<svg width="30" height="30" viewBox="0 0 16 16" fill="none" xmlns="http://www.w3.org/2000/svg">
<rect width="30" height="30" rx="3" fill="#4F00CE"/>
<path d="M9.43415 3.69327C11.3257 5.27047 13.1314 9.15192 12.7854 11.3131C12.6418 12.2104 11.7999 12.8178 10.9015 12.681C9.06346 12.4013 9.15037 11.0632 7.9449 10.9621C6.19856 11.0159 6.53464 12.7388 4.26265 12.7503C3.85606 12.7523 3.46716 12.5443 3.26666 12.1905C2.69053 11.1741 3.98708 9.79506 6.7177 8.46976L7.35043 9.34995C7.47026 9.51662 7.71773 9.51818 7.83964 9.35294L9.74888 6.76388C9.89617 6.56416 9.75357 6.28169 9.50532 6.28169H5.82775C5.58418 6.28169 5.44041 6.55492 5.57846 6.75568L6.08979 7.49939L8.33497 6.9286L6.4606 7.70952C6.34754 7.75662 6.26479 7.85616 6.23916 7.97599L6.16603 8.31753L3.38818 9.402C4.06566 6.66486 5.03199 4.46704 6.65056 3.48731C7.52894 2.95529 8.64529 3.03557 9.43415 3.69327Z" fill="white"/>
</svg>
