<svg width="37" height="36" viewBox="0 0 37 36" fill="none" xmlns="http://www.w3.org/2000/svg">
<path d="M28.3495 20.8617L28.363 20.8482C28.7758 20.4242 29.3466 20.175 29.9856 20.175H33.0156C33.4298 20.175 33.7656 19.8392 33.7656 19.425V17.265C33.7656 13.7458 30.8948 10.875 27.3756 10.875H10.1556C6.63641 10.875 3.76562 13.7458 3.76562 17.265V27.36C3.76562 30.8792 6.63641 33.75 10.1556 33.75H27.3756C30.8948 33.75 33.7656 30.8792 33.7656 27.36V25.575C33.7656 25.1608 33.4298 24.825 33.0156 24.825H30.1656C28.8765 24.825 27.771 23.8827 27.673 22.7077L27.6731 22.7077L27.6722 22.6989C27.6048 21.9912 27.8735 21.3264 28.3495 20.8617Z" fill="#4F00CF" stroke="#4F00CF" stroke-width="1.5" stroke-linecap="round" stroke-linejoin="round"/>
<path d="M4.51562 18.615V11.76C4.51562 9.97503 5.61063 8.38497 7.27563 7.75497L19.1856 3.25497C21.0456 2.54997 23.0406 3.93001 23.0406 5.92501V11.625" stroke="#4F00CF" stroke-width="2" stroke-linecap="round" stroke-linejoin="round"/>
<path d="M34.6038 20.9557V24.0458C34.6038 24.8708 33.9438 25.5457 33.1038 25.5757H30.1638C28.5438 25.5757 27.0588 24.3908 26.9238 22.7708C26.8338 21.8258 27.1938 20.9407 27.8238 20.3257C28.3788 19.7557 29.1438 19.4258 29.9838 19.4258H33.1038C33.9438 19.4558 34.6038 20.1307 34.6038 20.9557Z" stroke="#4F00CF" stroke-width="1.5" stroke-linecap="round" stroke-linejoin="round"/>
<path d="M11.2656 18H21.7656" stroke="white" stroke-width="2" stroke-linecap="round" stroke-linejoin="round"/>
</svg>
