<svg width="37" height="36" viewBox="0 0 37 36" fill="none" xmlns="http://www.w3.org/2000/svg">
<path d="M13.8352 3.66823L13.8346 3.66864L5.75017 9.96823C5.75007 9.9683 5.74998 9.96838 5.74988 9.96845C4.96128 10.5819 4.28592 11.5051 3.80855 12.478C3.33128 13.4508 3.01562 14.5473 3.01562 15.5402V26.6552C3.01562 30.5471 6.1841 33.7352 10.0806 33.7352H27.4506C31.346 33.7352 34.5156 30.5483 34.5156 26.6702V15.7502C34.5156 14.6905 34.1661 13.5361 33.6374 12.5232C33.1088 11.5106 32.3622 10.565 31.4951 9.9604C31.4949 9.96025 31.4947 9.9601 31.4945 9.95995L22.226 3.46601L22.2257 3.46582C21.0217 2.62299 19.4885 2.24367 17.9999 2.27857C16.5114 2.31348 14.9974 2.76427 13.8352 3.66823Z" fill="#4F00CF" stroke="#4F00CF" stroke-width="1.5" stroke-linecap="round" stroke-linejoin="round"/>
<path d="M18.7656 26.9849V22.4849" stroke="white" stroke-width="1.5" stroke-linecap="round" stroke-linejoin="round"/>
</svg>
