<svg width="37" height="36" viewBox="0 0 37 36" fill="none" xmlns="http://www.w3.org/2000/svg">
<path d="M13.8371 3.66725L13.8366 3.66767L5.75212 9.96725C5.75203 9.96733 5.75193 9.9674 5.75184 9.96748C4.96323 10.5809 4.28787 11.5041 3.81051 12.477C3.33323 13.4498 3.01758 14.5463 3.01758 15.5393V26.6543C3.01758 30.5462 6.18605 33.7343 10.0826 33.7343H27.4526C31.3479 33.7343 34.5176 30.5473 34.5176 26.6693V15.7493C34.5176 14.6896 34.168 13.5351 33.6393 12.5222C33.1108 11.5096 32.3642 10.564 31.4971 9.95942C31.4969 9.95927 31.4966 9.95912 31.4964 9.95897L22.2279 3.46503L22.2277 3.46484C21.0236 2.62201 19.4904 2.24269 18.0019 2.2776C16.5133 2.3125 14.9994 2.76329 13.8371 3.66725Z" fill="#4F00CF" stroke="#4F00CF" stroke-width="1.5" stroke-linecap="round" stroke-linejoin="round"/>
<path d="M18.7676 26.9844V22.4844" stroke="white" stroke-width="1.5" stroke-linecap="round" stroke-linejoin="round"/>
</svg>
