<svg width="195" height="195" viewBox="0 0 195 195" fill="none" xmlns="http://www.w3.org/2000/svg">
<g filter="url(#filter0_d_2370_122278)">
<circle cx="93" cy="93" r="83" fill="white"/>
</g>
<g filter="url(#filter1_d_2370_122278)">
<circle cx="93" cy="93" r="51.875" stroke="white" stroke-width="11.5278" shape-rendering="crispEdges"/>
</g>
<path d="M163.618 93.0011C169.189 93.0011 173.77 88.4677 173.076 82.9404C171.773 72.577 168.467 62.5319 163.307 53.3774C156.49 41.2838 146.669 31.1534 134.792 23.9654C122.915 16.7775 109.385 12.7752 95.5093 12.3453C81.6335 11.9155 67.8815 15.0727 55.5827 21.5117C43.2838 27.9508 32.8542 37.4539 25.302 49.1023C17.7497 60.7508 13.3304 74.1506 12.4711 88.0065C11.6119 101.862 14.3418 115.705 20.3969 128.198C24.9805 137.654 31.3522 146.094 39.1272 153.069C43.274 156.789 49.6096 155.607 52.7835 151.029C55.9573 146.45 54.7448 140.219 50.7566 136.329C45.7561 131.453 41.619 125.729 38.5504 119.399C34.009 110.029 31.9616 99.647 32.6061 89.2551C33.2505 78.8632 36.565 68.8134 42.2292 60.077C47.8934 51.3407 55.7156 44.2134 64.9397 39.3841C74.1638 34.5548 84.4779 32.1869 94.8847 32.5093C105.292 32.8316 115.439 35.8334 124.347 41.2244C133.254 46.6153 140.62 54.2131 145.733 63.2833C149.188 69.412 151.534 76.0729 152.693 82.9608C153.617 88.4543 158.048 93.0011 163.618 93.0011Z" fill="#0594FB"/>
<path d="M72.2703 160.494C70.634 165.819 73.6217 171.529 79.1092 172.489C90.6309 174.504 102.495 173.997 113.871 170.953C128.508 167.036 141.746 159.077 152.071 147.987C162.396 136.898 169.389 123.125 172.252 108.246C174.477 96.6818 174.136 84.8118 171.304 73.4633C169.956 68.0583 164.046 65.4856 158.852 67.4977C153.657 69.5099 151.168 75.35 152.29 80.8065C153.886 88.5644 153.95 96.5933 152.442 104.435C150.295 115.594 145.049 125.924 137.306 134.241C129.562 142.558 119.634 148.527 108.656 151.465C100.942 153.529 92.929 154.038 85.077 153C79.5543 152.269 73.9067 155.169 72.2703 160.494Z" fill="#FBBC05"/>
<path d="M33.7393 131.372C29.0629 134.399 27.6811 140.694 31.2679 144.957C39.2896 154.49 49.4419 162.072 60.9594 167.057C72.477 172.042 84.954 174.253 97.3944 173.576C102.957 173.274 106.6 167.958 105.607 162.476C104.613 156.995 99.3488 153.446 93.7784 153.517C85.2891 153.625 76.8328 151.945 68.9723 148.543C61.1118 145.141 54.0992 140.126 48.367 133.863C44.6057 129.754 38.4157 128.345 33.7393 131.372Z" fill="#12A93C"/>
<defs>
<filter id="filter0_d_2370_122278" x="0.777776" y="0.777776" width="193.667" height="193.667" filterUnits="userSpaceOnUse" color-interpolation-filters="sRGB">
<feFlood flood-opacity="0" result="BackgroundImageFix"/>
<feColorMatrix in="SourceAlpha" type="matrix" values="0 0 0 0 0 0 0 0 0 0 0 0 0 0 0 0 0 0 127 0" result="hardAlpha"/>
<feOffset dx="4.61111" dy="4.61111"/>
<feGaussianBlur stdDeviation="6.91667"/>
<feComposite in2="hardAlpha" operator="out"/>
<feColorMatrix type="matrix" values="0 0 0 0 0.154063 0 0 0 0 0.226502 0 0 0 0 0.483333 0 0 0 0.25 0"/>
<feBlend mode="normal" in2="BackgroundImageFix" result="effect1_dropShadow_2370_122278"/>
<feBlend mode="normal" in="SourceGraphic" in2="effect1_dropShadow_2370_122278" result="shape"/>
</filter>
<filter id="filter1_d_2370_122278" x="30.7502" y="31.903" width="124.5" height="124.5" filterUnits="userSpaceOnUse" color-interpolation-filters="sRGB">
<feFlood flood-opacity="0" result="BackgroundImageFix"/>
<feColorMatrix in="SourceAlpha" type="matrix" values="0 0 0 0 0 0 0 0 0 0 0 0 0 0 0 0 0 0 127 0" result="hardAlpha"/>
<feOffset dy="1.15278"/>
<feGaussianBlur stdDeviation="2.30556"/>
<feComposite in2="hardAlpha" operator="out"/>
<feColorMatrix type="matrix" values="0 0 0 0 0.403922 0 0 0 0 0.498039 0 0 0 0 0.839216 0 0 0 0.15 0"/>
<feBlend mode="normal" in2="BackgroundImageFix" result="effect1_dropShadow_2370_122278"/>
<feBlend mode="normal" in="SourceGraphic" in2="effect1_dropShadow_2370_122278" result="shape"/>
</filter>
</defs>
</svg>
