<svg width="40" height="40" viewBox="0 0 40 40" fill="none" xmlns="http://www.w3.org/2000/svg">
<rect width="40" height="40" rx="20" fill="#5C85FF"/>
<path d="M22.0807 19.5H17.9141C17.5724 19.5 17.2891 19.2167 17.2891 18.875C17.2891 18.5333 17.5724 18.25 17.9141 18.25H22.0807C22.4224 18.25 22.7057 18.5333 22.7057 18.875C22.7057 19.2167 22.4224 19.5 22.0807 19.5Z" fill="white"/>
<path d="M20 21.633C19.6583 21.633 19.375 21.3496 19.375 21.008V16.8413C19.375 16.4996 19.6583 16.2163 20 16.2163C20.3417 16.2163 20.625 16.4996 20.625 16.8413V21.008C20.625 21.3496 20.3417 21.633 20 21.633Z" fill="white"/>
<path d="M25.8945 28.9587C25.4695 28.9587 25.0029 28.8337 24.5529 28.5753L20.4862 26.317C20.2445 26.1837 19.7695 26.1837 19.5279 26.317L15.4612 28.5753C14.6362 29.0337 13.7945 29.0837 13.1529 28.7003C12.5112 28.3253 12.1445 27.567 12.1445 26.6253V14.8837C12.1445 12.767 13.8695 11.042 15.9862 11.042H24.0279C26.1445 11.042 27.8695 12.767 27.8695 14.8837V26.6253C27.8695 27.567 27.5029 28.3253 26.8612 28.7003C26.5695 28.8753 26.2362 28.9587 25.8945 28.9587ZM20.0029 24.967C20.3945 24.967 20.7779 25.0503 21.0862 25.2253L25.1529 27.4837C25.5779 27.7253 25.9695 27.7753 26.2195 27.6253C26.4695 27.4753 26.6112 27.117 26.6112 26.6253V14.8837C26.6112 13.4587 25.4445 12.292 24.0195 12.292H15.9862C14.5612 12.292 13.3945 13.4587 13.3945 14.8837V26.6253C13.3945 27.117 13.5362 27.4837 13.7862 27.6253C14.0362 27.767 14.4279 27.7253 14.8529 27.4837L18.9195 25.2253C19.2279 25.0503 19.6112 24.967 20.0029 24.967Z" fill="white"/>
</svg>
