<svg width="14" height="16" viewBox="0 0 14 16" fill="none" xmlns="http://www.w3.org/2000/svg">
<path d="M11.7129 15.1667C11.3729 15.1667 10.9996 15.0667 10.6396 14.86L7.38622 13.0534C7.19289 12.9467 6.81289 12.9467 6.61956 13.0534L3.36622 14.86C2.70622 15.2267 2.03289 15.2667 1.51956 14.96C1.00622 14.66 0.712891 14.0534 0.712891 13.3V3.90671C0.712891 2.21337 2.09289 0.833374 3.78622 0.833374H10.2196C11.9129 0.833374 13.2929 2.21337 13.2929 3.90671V13.3C13.2929 14.0534 12.9996 14.66 12.4862 14.96C12.2529 15.1 11.9862 15.1667 11.7129 15.1667ZM6.99956 11.9734C7.31289 11.9734 7.61956 12.04 7.86622 12.18L11.1196 13.9867C11.4596 14.18 11.7729 14.22 11.9729 14.1C12.1729 13.98 12.2862 13.6934 12.2862 13.3V3.90671C12.2862 2.76671 11.3529 1.83337 10.2129 1.83337H3.78622C2.64622 1.83337 1.71289 2.76671 1.71289 3.90671V13.3C1.71289 13.6934 1.82622 13.9867 2.02622 14.1C2.22622 14.2134 2.53956 14.18 2.87956 13.9867L6.13289 12.18C6.37956 12.04 6.68622 11.9734 6.99956 11.9734Z" fill="white"/>
</svg>
