<svg width="25" height="24" viewBox="0 0 25 24" fill="none" xmlns="http://www.w3.org/2000/svg">
<path d="M10.6103 11.1501H7.9603C7.3303 11.1501 6.82031 11.6601 6.82031 12.2901V17.4101H10.6103V11.1501V11.1501Z" stroke="#292D32" stroke-width="1.5" stroke-miterlimit="10" stroke-linecap="round" stroke-linejoin="round"/>
<path d="M13.2616 6.6001H11.7415C11.1115 6.6001 10.6016 7.11011 10.6016 7.74011V17.4001H14.3916V7.74011C14.3916 7.11011 13.8916 6.6001 13.2616 6.6001Z" stroke="#292D32" stroke-width="1.5" stroke-miterlimit="10" stroke-linecap="round" stroke-linejoin="round"/>
<path d="M17.0484 12.8501H14.3984V17.4001H18.1884V13.9901C18.1784 13.3601 17.6684 12.8501 17.0484 12.8501Z" stroke="#292D32" stroke-width="1.5" stroke-miterlimit="10" stroke-linecap="round" stroke-linejoin="round"/>
<path d="M9.5 22H15.5C20.5 22 22.5 20 22.5 15V9C22.5 4 20.5 2 15.5 2H9.5C4.5 2 2.5 4 2.5 9V15C2.5 20 4.5 22 9.5 22Z" stroke="#292D32" stroke-width="1.5" stroke-linecap="round" stroke-linejoin="round"/>
</svg>
