<svg width="17" height="17" viewBox="0 0 17 17" fill="none" xmlns="http://www.w3.org/2000/svg">
<g clip-path="url(#clip0_2323_184380)">
<path d="M8.59961 11.5V12.9" stroke="#292D32" stroke-linecap="round" stroke-linejoin="round"/>
<path d="M5.2666 15.1665H11.9333V14.4998C11.9333 13.7665 11.3333 13.1665 10.5999 13.1665H6.59993C5.8666 13.1665 5.2666 13.7665 5.2666 14.4998V15.1665V15.1665Z" stroke="#292D32" stroke-miterlimit="10"/>
<path d="M4.59961 15.1665H12.5996" stroke="#292D32" stroke-linecap="round" stroke-linejoin="round"/>
<path d="M8.49967 11.1668C5.91967 11.1668 3.83301 9.08016 3.83301 6.50016V4.50016C3.83301 3.02683 5.02634 1.8335 6.49967 1.8335H10.4997C11.973 1.8335 13.1663 3.02683 13.1663 4.50016V6.50016C13.1663 9.08016 11.0797 11.1668 8.49967 11.1668Z" stroke="#292D32" stroke-linecap="round" stroke-linejoin="round"/>
<path d="M4.14702 8.26657C3.64702 8.10657 3.20702 7.81324 2.86035 7.46657C2.26035 6.7999 1.86035 5.9999 1.86035 5.06657C1.86035 4.13324 2.59368 3.3999 3.52702 3.3999H3.96035C3.82702 3.70657 3.76035 4.04657 3.76035 4.3999V6.3999C3.76035 7.06657 3.90035 7.69324 4.14702 8.26657Z" stroke="#292D32" stroke-linecap="round" stroke-linejoin="round"/>
<path d="M12.8535 8.26657C13.3535 8.10657 13.7935 7.81324 14.1402 7.46657C14.7402 6.7999 15.1402 5.9999 15.1402 5.06657C15.1402 4.13324 14.4068 3.3999 13.4735 3.3999H13.0402C13.1735 3.70657 13.2402 4.04657 13.2402 4.3999V6.3999C13.2402 7.06657 13.1002 7.69324 12.8535 8.26657Z" stroke="#292D32" stroke-linecap="round" stroke-linejoin="round"/>
</g>
<defs>
<clipPath id="clip0_2323_184380">
<rect width="16" height="16" fill="white" transform="translate(0.5 0.5)"/>
</clipPath>
</defs>
</svg>
