<svg width="16" height="17" viewBox="0 0 16 17" fill="none" xmlns="http://www.w3.org/2000/svg">
<g clip-path="url(#clip0_1865_126708)">
<path d="M8.09961 11.5V12.9" stroke="#292D32" stroke-linecap="round" stroke-linejoin="round"/>
<path d="M4.76758 15.167H11.4342V14.5003C11.4342 13.767 10.8342 13.167 10.1009 13.167H6.10091C5.36758 13.167 4.76758 13.767 4.76758 14.5003V15.167V15.167Z" stroke="#292D32" stroke-miterlimit="10"/>
<path d="M4.09961 15.167H12.0996" stroke="#292D32" stroke-linecap="round" stroke-linejoin="round"/>
<path d="M8.00065 11.1663C5.42065 11.1663 3.33398 9.07967 3.33398 6.49967V4.49967C3.33398 3.02634 4.52732 1.83301 6.00065 1.83301H10.0007C11.474 1.83301 12.6673 3.02634 12.6673 4.49967V6.49967C12.6673 9.07967 10.5807 11.1663 8.00065 11.1663Z" stroke="#292D32" stroke-linecap="round" stroke-linejoin="round"/>
<path d="M3.64604 8.26706C3.14604 8.10706 2.70604 7.81372 2.35938 7.46706C1.75938 6.80039 1.35938 6.00039 1.35938 5.06706C1.35938 4.13372 2.09271 3.40039 3.02604 3.40039H3.45938C3.32604 3.70706 3.25937 4.04706 3.25937 4.40039V6.40039C3.25937 7.06706 3.39937 7.69372 3.64604 8.26706Z" stroke="#292D32" stroke-linecap="round" stroke-linejoin="round"/>
<path d="M12.3535 8.26706C12.8535 8.10706 13.2935 7.81372 13.6402 7.46706C14.2402 6.80039 14.6402 6.00039 14.6402 5.06706C14.6402 4.13372 13.9068 3.40039 12.9735 3.40039H12.5402C12.6735 3.70706 12.7402 4.04706 12.7402 4.40039V6.40039C12.7402 7.06706 12.6002 7.69372 12.3535 8.26706Z" stroke="#292D32" stroke-linecap="round" stroke-linejoin="round"/>
</g>
<defs>
<clipPath id="clip0_1865_126708">
<rect width="16" height="16" fill="white" transform="translate(0 0.5)"/>
</clipPath>
</defs>
<svg width="12" height="11" viewBox="0 0 12 11" fill="none" xmlns="http://www.w3.org/2000/svg">
<path d="M5.99967 10.1667C3.41967 10.1667 1.33301 8.08004 1.33301 5.50004V3.50004C1.33301 2.02671 2.52634 0.833374 3.99967 0.833374H7.99967C9.47301 0.833374 10.6663 2.02671 10.6663 3.50004V5.50004C10.6663 8.08004 8.57967 10.1667 5.99967 10.1667Z" stroke="#292D32" stroke-linecap="round" stroke-linejoin="round"/>
</svg>
