<svg width="16" height="16" viewBox="0 0 16 16" fill="none" xmlns="http://www.w3.org/2000/svg">
<g clip-path="url(#clip0_1240_122458)">
<path d="M8.09961 11V12.4" stroke="#292D32" stroke-linecap="round" stroke-linejoin="round"/>
<path d="M4.7666 14.6666H11.4333V14C11.4333 13.2666 10.8333 12.6666 10.0999 12.6666H6.09993C5.3666 12.6666 4.7666 13.2666 4.7666 14V14.6666V14.6666Z" stroke="#292D32" stroke-miterlimit="10"/>
<path d="M4.09961 14.6666H12.0996" stroke="#292D32" stroke-linecap="round" stroke-linejoin="round"/>
<path d="M7.99967 10.6667C5.41967 10.6667 3.33301 8.58004 3.33301 6.00004V4.00004C3.33301 2.52671 4.52634 1.33337 5.99967 1.33337H9.99967C11.473 1.33337 12.6663 2.52671 12.6663 4.00004V6.00004C12.6663 8.58004 10.5797 10.6667 7.99967 10.6667Z" stroke="#292D32" stroke-linecap="round" stroke-linejoin="round"/>
<path d="M3.64702 7.76669C3.14702 7.60669 2.70702 7.31336 2.36035 6.96669C1.76035 6.30002 1.36035 5.50002 1.36035 4.56669C1.36035 3.63336 2.09368 2.90002 3.02702 2.90002H3.46035C3.32702 3.20669 3.26035 3.54669 3.26035 3.90002V5.90002C3.26035 6.56669 3.40035 7.19336 3.64702 7.76669Z" stroke="#292D32" stroke-linecap="round" stroke-linejoin="round"/>
<path d="M12.3535 7.76669C12.8535 7.60669 13.2935 7.31336 13.6402 6.96669C14.2402 6.30002 14.6402 5.50002 14.6402 4.56669C14.6402 3.63336 13.9068 2.90002 12.9735 2.90002H12.5402C12.6735 3.20669 12.7402 3.54669 12.7402 3.90002V5.90002C12.7402 6.56669 12.6002 7.19336 12.3535 7.76669Z" stroke="#292D32" stroke-linecap="round" stroke-linejoin="round"/>
</g>
<defs>
<clipPath id="clip0_1240_122458">
<rect width="16" height="16" fill="white"/>
</clipPath>
</defs>
</svg>
