<svg width="52" height="52" viewBox="0 0 52 52" fill="none" xmlns="http://www.w3.org/2000/svg">
<path d="M35 18.98C31.67 18.65 28.32 18.48 24.98 18.48C23 18.48 21.02 18.58 19.04 18.78L17 18.98" stroke="#292D32" stroke-width="1.5" stroke-linecap="round" stroke-linejoin="round"/>
<path d="M22.5 17.97L22.72 16.66C22.88 15.71 23 15 24.69 15H27.31C29 15 29.13 15.75 29.28 16.67L29.5 17.97" stroke="#292D32" stroke-width="1.5" stroke-linecap="round" stroke-linejoin="round"/>
<path d="M32.85 22.1401L32.2 32.2101C32.09 33.7801 32 35.0001 29.21 35.0001H22.79C20 35.0001 19.91 33.7801 19.8 32.2101L19.15 22.1401" stroke="#292D32" stroke-width="1.5" stroke-linecap="round" stroke-linejoin="round"/>
<path d="M24.33 29.5H27.66" stroke="#292D32" stroke-width="1.5" stroke-linecap="round" stroke-linejoin="round"/>
<path d="M23.5 25.5H28.5" stroke="#292D32" stroke-width="1.5" stroke-linecap="round" stroke-linejoin="round"/>
</svg>
