<svg width="24" height="25" viewBox="0 0 24 25" fill="none" xmlns="http://www.w3.org/2000/svg">
<path d="M17.8001 2.6L7.87009 5.09C6.42009 5.45 4.95009 6.92 4.59009 8.37L2.10009 18.3C1.35009 21.3 3.19009 23.15 6.20009 22.4L16.1301 19.92C17.5701 19.56 19.0501 18.08 19.4101 16.64L21.9001 6.7C22.6501 3.7 20.8001 1.85 17.8001 2.6Z" stroke="#292D32" stroke-width="1.5" stroke-linecap="round" stroke-linejoin="round"/>
<path d="M12 16C13.933 16 15.5 14.433 15.5 12.5C15.5 10.567 13.933 9 12 9C10.067 9 8.5 10.567 8.5 12.5C8.5 14.433 10.067 16 12 16Z" stroke="#292D32" stroke-width="1.5" stroke-linecap="round" stroke-linejoin="round"/>
</svg>
