<svg width="229" height="233" viewBox="0 0 229 233" fill="none" xmlns="http://www.w3.org/2000/svg">
<g id="Group">
<g id="Group_2">
<path id="Vector" d="M32.3811 163.577C33.0615 163.187 40.7408 159.936 78.9436 177.746C78.8322 177.898 78.785 177.969 78.785 177.969C78.785 177.969 39.0694 191.344 31.2879 174.867C28.9642 169.962 29.63 166.584 32.3148 163.615L32.3811 163.577Z" fill="#4F00CF"/>
<path id="Vector_2" d="M160.784 170.316C152.484 177.294 139.468 182.358 126.908 175.623C128.893 174.355 130.943 173.049 133.033 171.698C145.646 163.594 156.756 169.016 160.784 170.316Z" fill="#4F00CF"/>
<path id="Vector_3" d="M175.65 84.4979C184.13 155.11 163.978 167.925 161.735 169.872C161.085 170.435 160.822 170.394 159.84 170.141L159.823 170.151C155.667 169.049 145.646 163.593 133.033 171.696C130.943 173.047 128.892 174.354 126.908 175.622C114.041 183.782 103.651 189.533 96.1648 186.195C89.8153 182.956 84.0902 180.153 78.9433 177.745C40.7405 159.935 33.0612 163.186 32.3809 163.576C33.1703 163.146 40.4125 159.131 50.1639 152.072C50.1971 152.053 50.2303 152.034 50.2374 152.008C63.2716 142.562 80.7269 127.676 93.2739 108.527C101.815 95.506 110.171 62.496 126.294 56.019C159.428 43.6582 174.275 70.1351 175.65 84.4979Z" fill="#AA75FF"/>
<path id="Vector_4" d="M139.013 83.2592C140.042 80.5433 139.942 77.9879 138.789 77.5515C137.637 77.1152 135.869 78.9631 134.841 81.6791C133.812 84.395 133.913 86.9504 135.065 87.3868C136.217 87.8231 137.985 85.9751 139.013 83.2592Z" fill="white"/>
<path id="Vector_5" d="M160.11 86.7225C160.839 83.9113 160.463 81.3816 159.271 81.0724C158.078 80.7632 156.52 82.7914 155.792 85.6026C155.063 88.4138 155.438 90.9434 156.631 91.2527C157.824 91.5619 159.382 89.5337 160.11 86.7225Z" fill="white"/>
<path id="Vector_6" d="M147.269 97.0473C147.096 97.0471 146.928 96.9879 146.794 96.8794C146.659 96.7708 146.566 96.6196 146.529 96.4507C146.394 95.8392 145.793 94.03 144.841 93.7611C143.888 93.4922 142.019 94.5362 141.263 95.0839C141.101 95.2017 140.898 95.2501 140.699 95.2184C140.501 95.1866 140.323 95.0774 140.206 94.9146C140.088 94.7519 140.039 94.549 140.071 94.3506C140.103 94.1522 140.212 93.9746 140.375 93.8567C140.673 93.641 143.341 91.7638 145.252 92.3029C147.245 92.8653 147.937 95.7961 148.009 96.1285C148.034 96.2391 148.033 96.3538 148.007 96.464C147.98 96.5742 147.93 96.6772 147.859 96.7653C147.788 96.8535 147.698 96.9246 147.596 96.9734C147.494 97.0222 147.382 97.0474 147.268 97.0473H147.269Z" fill="white"/>
</g>
</g>
</svg>
