<svg width="242" height="242" viewBox="0 0 242 242" fill="none" xmlns="http://www.w3.org/2000/svg">
<path d="M87.0859 82.105L100.014 65.6152L108.743 73.5957L101.119 84.894C95.9191 92.596 88.1844 98.2319 79.2597 100.822L66.3724 104.559L54.6543 92.144L87.0859 82.105Z" fill="#D3B8FF" stroke="#1D2B47" stroke-width="0.395102"/>
<path d="M110.515 54.3302L117.422 48.9941L116.66 61.8624L108.739 73.5947L100.009 65.6143L103.052 61.7391C105.225 58.9713 107.732 56.4828 110.515 54.3302Z" fill="#FC9797" stroke="#1D2B47" stroke-width="0.395102"/>
<path d="M103.925 204.033C104.295 207.287 103.152 212.92 95.1689 213.176C90.9594 213.311 88.7656 211.957 86.2778 211.869C84.2691 211.796 81.8904 214.212 79.5614 213.954C77.5053 213.717 75.7218 210.871 73.4712 210.437C71.4103 210.048 68.6995 212.073 66.5176 211.478C64.4757 210.925 63.1642 207.818 61.0511 207.057C59.0518 206.346 56.0541 207.894 54.0193 206.962C52.0817 206.073 51.3086 202.793 49.3662 201.69C47.5116 200.637 44.2934 201.664 42.453 200.398C40.698 199.188 40.5012 195.825 38.777 194.405C37.1312 193.048 33.7967 193.508 32.1887 191.948C30.6662 190.458 30.2701 189.484 28.9847 187.94C27.6993 186.396 23.447 183.69 23.447 183.69C20.428 181.762 21.9695 177.343 23.9617 175.192L24.5735 174.664C25.2656 173.915 26.1701 173.395 27.1657 173.174L51.1354 167.848C51.1354 167.848 56.8012 145.189 61.0511 133.858C72.9091 129.994 81.3947 129.738 81.3947 129.738C81.3947 129.738 100.934 153.796 103.925 204.033Z" fill="#1D2B47" stroke="#1D2B47" stroke-width="0.395102"/>
<path d="M59.2227 111.986L75.1456 174.276L82.1821 232.95L116.677 229.155L114.448 225.555C113.33 223.744 111.48 222.508 109.38 222.168L103.398 221.196C100.405 220.71 98.1284 218.247 97.8797 215.224C96.5184 198.732 91.5357 146.744 81.0698 121.295C66.6268 112.325 59.2227 111.986 59.2227 111.986L59.2227 111.986Z" fill="#FC9797" stroke="#1D2B47" stroke-width="0.395102"/>
<path d="M67.2074 180.938C52.1857 193.949 38.7316 204.171 32.7765 208.598C30.8075 210.058 29.9186 212.566 30.5283 214.94L32.2951 221.818C32.993 224.541 32.6856 227.425 31.4295 229.94L30.1678 232.464L8.6123 205.257L55.3328 166.794L51.4197 139.087C50.7983 134.678 52.8284 134.147 53.4427 129.738L57.0499 121.883L69.0881 111.344C69.0881 111.344 85.4759 165.11 67.2074 180.938Z" fill="#FC9797" stroke="#1D2B47" stroke-width="0.395102"/>
<path d="M103.925 203.003C104.295 206.255 100.061 198.625 95.1688 205.451C92.7142 208.871 88.7655 204.232 86.2777 204.142C84.2689 204.071 81.8902 206.487 79.5613 206.226C77.5051 205.989 75.7217 203.143 73.471 202.712C71.4101 202.32 68.6994 204.346 66.5175 203.753C64.4756 203.198 63.1641 200.093 61.051 199.33C59.0517 198.618 56.054 200.169 54.0192 199.235C52.0816 198.345 51.3084 195.066 49.3661 193.963C47.5115 192.912 44.2932 193.937 42.4529 192.67C40.6979 191.463 40.5011 188.098 38.7769 186.677C37.131 185.323 33.7965 185.783 32.1886 184.22C30.666 182.733 31.036 179.382 29.568 177.694C29.568 177.694 28.081 175.061 24.3505 175.322C20.0057 175.618 51.1353 160.13 51.1353 160.13C51.1353 160.13 48.8183 134.12 53.0682 122.789C64.9143 118.921 81.3946 122.011 81.3946 122.011C81.3946 122.011 100.934 152.778 103.925 203.003Z" fill="white" stroke="#1D2B47" stroke-width="0.395102"/>
<path d="M51.135 160.129L53.0679 172.49L44.1602 163.655C44.1602 163.655 49.852 160.383 51.135 160.129Z" fill="#1D2B47" stroke="#1D2B47" stroke-width="0.395102"/>
<path d="M12.6511 201.934C15.1888 205.41 20.328 212.414 24.3977 217.672C24.9522 218.388 25.9825 218.521 26.7005 217.968C27.9176 217.055 29.3526 216.477 30.8627 216.291L32.2856 221.829C32.9835 224.552 32.6762 227.436 31.42 229.952L30.1678 232.463L8.6123 205.256L12.6511 201.934Z" fill="#FCB332" stroke="#1D2B47" stroke-width="0.395102"/>
<path d="M81.6533 229.013C85.9459 228.702 96.2458 227.543 102.86 226.879C103.762 226.789 104.42 225.985 104.331 225.083C104.16 223.345 103.927 222.572 104.444 221.424L110.566 222.382C113.246 223.231 115.529 225.019 116.997 227.417L118.465 229.815L82.168 233.649L81.6533 229.013Z" fill="#FCB332" stroke="#1D2B47" stroke-width="0.395102"/>
<path d="M77.6621 122.27C77.6621 122.27 97.2326 166.95 95.4301 200.041" stroke="#1D2B47" stroke-width="0.395102"/>
<path d="M71.9961 122.785C71.9961 122.785 90.0203 172.487 86.5459 201.074" stroke="#1D2B47" stroke-width="0.395102"/>
<path d="M67.3457 123.041C67.3457 123.041 80.7524 161.285 74.1854 199.527" stroke="#1D2B47" stroke-width="0.395102"/>
<path d="M62.3578 123.566C62.3578 123.566 71.4814 159.482 62.3389 193.989" stroke="#1D2B47" stroke-width="0.395102"/>
<path d="M56.4148 126.648C56.4148 126.648 54.4843 143.129 57.6006 166.043C58.7603 174.581 54.3396 183.159 50.2344 189.996" stroke="#1D2B47" stroke-width="0.395102"/>
<path d="M52.195 166.902L37.4863 180.084L52.195 166.902Z" fill="#F76D6D"/>
<path d="M52.195 166.902L37.4863 180.084" stroke="#1D2B47" stroke-width="0.395102"/>
<path d="M50.9647 98.6452C50.8293 94.3139 53.0962 90.2616 56.8582 88.1106L56.7538 86.9959C56.7157 86.5888 56.8465 86.1838 57.1155 85.8758C57.3845 85.5678 57.7682 85.3837 58.1768 85.3666L66.124 85.0654C66.868 85.0385 67.5183 85.5634 67.6489 86.2963L67.9003 87.7999C70.8958 89.2923 73.1085 91.9962 73.9787 95.2277L74.3321 96.5392C77.8281 95.5516 81.5044 97.3696 82.8417 100.747C84.1789 104.125 82.7434 107.967 79.5188 109.64C79.043 109.888 78.54 110.081 78.0199 110.214L81.3022 122.383L51.8683 127.448L50.9647 98.6452Z" fill="#D3B8FF" stroke="#1D2B47" stroke-width="0.395102" stroke-linecap="round"/>
<path d="M64.6657 64.791C64.6657 64.791 70.3575 64.8906 68.899 73.4972C69.6532 75.494 70.4666 77.9107 70.9291 79.0775C71.1133 79.5404 71.084 80.061 70.849 80.5003C70.6141 80.9396 70.1973 81.2529 69.7101 81.3566L64.8768 82.3907L61.9668 68.7919" fill="#1D2B47"/>
<path d="M64.6657 64.791C64.6657 64.791 70.3575 64.8906 68.899 73.4972C69.6532 75.494 70.4666 77.9107 70.9291 79.0775C71.1133 79.5404 71.084 80.061 70.849 80.5003C70.6141 80.9396 70.1973 81.2529 69.7101 81.3566L64.8768 82.3907L61.9668 68.7919" stroke="#1D2B47" stroke-width="0.395102" stroke-linecap="round"/>
<path d="M57.2422 76.2604L58.6889 87.9335L66.5578 89.0149L63.5649 75.0391" fill="#FC9797"/>
<path d="M66.5574 89.0149L63.5645 75.0391" stroke="#1D2B47" stroke-width="0.395102" stroke-linecap="round"/>
<path d="M64.5775 79.7734C64.5775 79.7734 62.7276 80.3545 61.1553 79.7734C61.9901 81.8344 65.4242 83.6723 65.4242 83.6723L64.5775 79.7734Z" fill="#1D2B47"/>
<ellipse cx="62.2297" cy="75.2609" rx="5.08708" ry="5.08708" fill="#FC9797"/>
<path d="M61.2571 80.2543C63.283 80.6516 65.348 79.7847 66.4831 78.0602C67.6181 76.3358 67.5979 74.0963 66.4318 72.3926C65.2657 70.689 63.1853 69.8596 61.167 70.2935" stroke="#1D2B47" stroke-width="0.395102" stroke-linecap="round"/>
<path d="M62.5855 72.6501C61.7396 72.8701 61.1845 73.679 61.2835 74.5474C61.478 76.2478 61.1104 76.4944 61.1104 76.4944C61.1104 76.4944 60.6717 73.824 59.4503 73.6888C58.2289 73.5537 57.9917 76.1079 59.7633 76.3877L60.8116 81.2803C60.9293 81.8413 60.8135 82.4261 60.491 82.8999C60.1684 83.3737 59.6668 83.6958 59.1017 83.7919L55.3735 84.4108C54.7788 84.5055 54.172 84.3413 53.7062 83.9598C53.2403 83.5782 52.9598 83.0156 52.9355 82.414L52.5537 72.2706C52.3534 69.4903 54.2321 66.9874 56.9577 66.4033C58.8858 65.9788 61.3001 65.4546 63.7192 64.9566L63.9113 64.9163C65.8594 64.5002 67.7763 65.741 68.1944 67.6887C68.6078 69.6055 67.4144 71.5015 65.5073 71.9576L62.5855 72.6501Z" fill="#1D2B47" stroke="#1D2B47" stroke-width="0.395102"/>
<path d="M58.2314 83.9512L58.6892 87.9355" stroke="#1D2B47" stroke-width="0.395102" stroke-linecap="round"/>
<path d="M66.8119 86.3926C66.8119 86.3926 61.7201 87.4005 58.0654 86.7009C58.2686 88.3424 58.568 89.9705 58.9619 91.5769L67.974 91.2638L66.8119 86.3926Z" fill="#D3B8FF"/>
<path d="M66.8109 86.3926C66.8109 86.3926 61.7191 87.4005 58.0645 86.7009" stroke="#1D2B47" stroke-width="0.395102" stroke-linecap="round"/>
<path d="M58.3068 87.3008L58.3542 88.6739" stroke="#1D2B47" stroke-width="0.395102" stroke-linecap="round"/>
<path d="M59.8097 87.6777L59.8571 89.0509" stroke="#1D2B47" stroke-width="0.395102" stroke-linecap="round"/>
<path d="M61.373 87.8828L61.411 89.2583" stroke="#1D2B47" stroke-width="0.395102" stroke-linecap="round"/>
<path d="M66.5403 87.0527L66.6968 88.4188" stroke="#1D2B47" stroke-width="0.395102" stroke-linecap="round"/>
<path d="M64.9893 87.4238L65.1482 88.7875" stroke="#1D2B47" stroke-width="0.395102" stroke-linecap="round"/>
<path d="M63.3858 87.9668L63.5447 89.3328" stroke="#1D2B47" stroke-width="0.395102" stroke-linecap="round"/>
<path d="M152.571 161.166H129.834C125.952 161.166 122.805 164.311 122.802 168.193V222.415C122.804 226.298 125.951 229.444 129.834 229.444H152.571" fill="#1D2B47"/>
<path d="M152.571 161.166H129.834C125.952 161.166 122.805 164.311 122.802 168.193V222.415C122.804 226.298 125.951 229.444 129.834 229.444H152.571" stroke="#1D2B47" stroke-width="0.395102"/>
<path d="M63.6621 91.4486L85.2081 90.1347L104.617 74.9043L118.479 84.412L121.562 89.9497L95.9775 103.705C92.0504 105.84 87.7034 107.089 83.242 107.364L65.0353 108.491" fill="#D3B8FF"/>
<path d="M63.6621 91.4486L85.2081 90.1347L104.617 74.9043L118.479 84.412L121.562 89.9497L95.9775 103.705C92.0504 105.84 87.7034 107.089 83.242 107.364L65.0353 108.491" stroke="#1D2B47" stroke-width="0.395102"/>
<path d="M122.013 85.3191C123.142 86.7075 122.952 88.7448 121.585 89.9004C120.218 91.0559 118.178 90.9044 116.997 89.5595L111.988 83.6234L116.85 79.2051L122.013 85.3191Z" fill="#1D2B47" stroke="#1D2B47" stroke-width="0.395102"/>
<path d="M116.311 57.9524C116.314 46.2296 124.865 36.2602 136.451 34.4735C127.201 33.0473 117.976 37.1848 112.889 45.0409C107.803 52.8971 107.803 63.0077 112.889 70.8638C117.976 78.72 127.201 82.8575 136.451 81.4312C124.865 79.6446 116.314 69.6752 116.311 57.9524Z" fill="#1D2B47" stroke="#1D2B47" stroke-width="0.395102"/>
<path d="M220.175 161.166H152.542C150.677 161.165 148.888 161.904 147.569 163.222C146.25 164.54 145.508 166.328 145.508 168.193V222.415C145.508 224.28 146.249 226.069 147.568 227.387C148.888 228.706 150.677 229.446 152.542 229.444H207.395" fill="white"/>
<path d="M220.175 161.166H152.542C150.677 161.165 148.888 161.904 147.569 163.222C146.25 164.54 145.508 166.328 145.508 168.193V222.415C145.508 224.28 146.249 226.069 147.568 227.387C148.888 228.706 150.677 229.446 152.542 229.444H207.395" stroke="#1D2B47" stroke-width="0.395102"/>
<ellipse cx="136.451" cy="57.9523" rx="20.142" ry="23.4836" fill="#FCB332" stroke="#1D2B47" stroke-width="0.395102"/>
<path d="M109.784 70.8496L116.845 79.2048L111.983 83.623L104.617 74.905L109.784 70.8496Z" fill="#FC9797" stroke="#1D2B47" stroke-width="0.395102"/>
<path d="M111.333 74.3902L118.228 66.5213C118.946 65.7031 118.883 64.4615 118.085 63.7204L117.611 63.2793L108.556 71.8171L111.333 74.3902Z" fill="#FC9797"/>
<path d="M108.559 71.8073L117.613 63.2695L118.088 63.7106C118.886 64.4518 118.949 65.6933 118.23 66.5115L116.257 68.7788C116.257 68.7788 119.15 70.7638 118.6 75.1821" stroke="#1D2B47" stroke-width="0.395102" stroke-linecap="round"/>
<path d="M118.503 75.5525L128.855 75.3154C129.46 75.3011 129.941 74.8033 129.934 74.1983C129.929 73.6328 129.499 73.162 128.936 73.1074L118.901 72.1445L118.503 75.5525Z" fill="#FC9797" stroke="#1D2B47" stroke-width="0.395102" stroke-linecap="round"/>
<path d="M120.051 74.0626L122.909 73.4223L124.285 73.114L130.154 71.7978C130.745 71.6654 131.119 71.083 130.994 70.491C130.878 69.9408 130.368 69.5652 129.808 69.6183L119.776 70.6309L120.051 74.0626Z" fill="#FC9797"/>
<path d="M123.322 73.3294L124.271 73.116L130.14 71.7997C130.731 71.6674 131.105 71.0849 130.98 70.493C130.864 69.9428 130.354 69.5672 129.794 69.6202L119.762 70.6329L120.052 74.0622" stroke="#1D2B47" stroke-width="0.395102" stroke-linecap="round"/>
<path d="M120.549 71.6181L130.339 68.2457C130.911 68.0479 131.218 67.4282 131.03 66.8536C130.852 66.3171 130.299 66.0002 129.747 66.1184L119.89 68.2386L120.549 71.6181Z" fill="#FC9797"/>
<path d="M123.208 70.7027L130.339 68.2457C130.911 68.0479 131.218 67.4282 131.03 66.8536C130.852 66.3171 130.299 66.0002 129.747 66.1184L119.89 68.2386L120.549 71.6181" stroke="#1D2B47" stroke-width="0.395102" stroke-linecap="round"/>
<path d="M120.106 69.1932L127.963 65.7402C128.516 65.4979 128.778 64.8618 128.556 64.3006C128.344 63.7695 127.767 63.4824 127.216 63.6342L119.594 65.7402L120.106 69.1932Z" fill="#FC9797"/>
<path d="M122.729 75.4648L120.376 65.5586L114.991 66.8843L109.047 72.1445L116.399 79.1052C118.816 78.8162 121.024 77.5919 122.549 75.6948L122.729 75.4648Z" fill="#FC9797"/>
<path d="M116.362 79.1584C118.794 78.8463 121.01 77.6014 122.542 75.6864L122.73 75.4492" stroke="#1D2B47" stroke-width="0.395102" stroke-linecap="round"/>
<path d="M122.186 68.33L127.963 65.7402C128.516 65.4979 128.778 64.8618 128.556 64.3006C128.345 63.7695 127.768 63.4824 127.216 63.6342L116.75 66.3924" stroke="#1D2B47" stroke-width="0.395102" stroke-linecap="round"/>
<path d="M216.982 103.596H148.063L163.953 135.299C164.771 136.929 166.438 137.958 168.262 137.958C170.925 137.958 173.083 140.116 173.083 142.779V182.02C178.439 182.77 183.863 181.228 188.024 177.775L190.396 175.797V142.779C190.396 141.498 190.906 140.27 191.813 139.365C192.721 138.46 193.951 137.954 195.232 137.958H196.776C198.599 137.958 200.267 136.929 201.085 135.299L216.982 103.596Z" fill="white" stroke="#1D2B47" stroke-width="0.395102"/>
<path d="M216.981 103.313C216.981 98.8572 201.547 95.25 182.505 95.25C163.464 95.25 148.037 98.8572 148.037 103.313C148.037 105.071 150.434 106.695 154.504 108.021C159.031 105.443 169.865 103.626 182.513 103.626C195.16 103.626 205.991 105.443 210.521 108.021C214.584 106.695 216.981 105.071 216.981 103.313Z" fill="white" stroke="#1D2B47" stroke-width="0.395102"/>
<path d="M154.497 108.022C160.756 110.059 170.968 111.387 182.506 111.387C194.044 111.387 204.256 110.059 210.514 108.022C205.987 105.444 195.153 103.627 182.506 103.627C169.858 103.627 159.024 105.444 154.497 108.022Z" fill="#1D2B47" stroke="#1D2B47" stroke-width="0.395102"/>
<path d="M233.388 161.166H152.543C150.678 161.165 148.889 161.904 147.57 163.222C146.251 164.54 145.509 166.328 145.509 168.193V222.415C145.509 224.28 146.25 226.069 147.569 227.387C148.889 228.706 150.678 229.446 152.543 229.444H223.542" stroke="#1D2B47" stroke-width="0.395102"/>
<path d="M140.63 213.972H206.556H140.63Z" fill="#1D2B47"/>
<path d="M140.63 213.972H206.556" stroke="#1D2B47" stroke-width="0.395102"/>
<path d="M193.27 176.969C193.27 176.969 201.677 176.295 203.359 186.05C212.608 187.058 213.45 193.618 212.945 196.644C217.823 197.317 218.326 204.707 216.977 206.735" stroke="#1D2B47" stroke-width="0.395102"/>
<path d="M171.912 186.057C171.912 186.057 166.694 187.906 166.362 195.306C154.589 201.866 160.979 210.273 160.979 210.273C160.979 210.273 156.1 213.966 159.297 220.027" stroke="#1D2B47" stroke-width="0.395102"/>
<path d="M152.626 21.6405L186.096 8.34766L186.791 47.9107L152.626 21.6405Z" fill="#FCB332" stroke="#1D2B47" stroke-width="0.395102"/>
<path d="M193.446 76.6852C196.261 74.8452 200.035 75.6356 201.875 78.4507L210.284 91.3158C212.124 94.1309 211.334 97.9047 208.519 99.7447L195.654 108.154C192.839 109.994 189.065 109.203 187.225 106.388L178.816 93.5232C176.976 90.7081 177.766 86.9343 180.581 85.0943L193.446 76.6852Z" fill="#1D2B47" stroke="#1D2B47" stroke-width="0.395102"/>
<path d="M187.317 67.3024C190.132 65.4624 193.906 66.2528 195.746 69.0679L202.743 79.7731C204.583 82.5883 203.793 86.362 200.978 88.2021L188.113 96.6111C185.297 98.4512 181.524 97.6607 179.684 94.8456L172.686 84.1404C170.846 81.3253 171.637 77.5515 174.452 75.7115L187.317 67.3024Z" fill="#FCB332" stroke="#1D2B47" stroke-width="0.395102"/>
<ellipse cx="169.284" cy="35.0273" rx="4.66968" ry="21.6907" transform="rotate(-53.92 169.284 35.0273)" fill="#1D2B47" stroke="#1D2B47" stroke-width="0.395102"/>
<ellipse cx="166.276" cy="81.5359" rx="4.28785" ry="4.28785" fill="#D3B8FF" stroke="#1D2B47" stroke-width="0.395102"/>
<ellipse cx="205.797" cy="36.6347" rx="3.78507" ry="3.78507" fill="#D3B8FF" stroke="#1D2B47" stroke-width="0.395102"/>
<ellipse cx="133.65" cy="20.4882" rx="3.78507" ry="3.78507" fill="#D3B8FF" stroke="#1D2B47" stroke-width="0.395102"/>
<path d="M161.989 51.0137H167.37L169.725 56.9H173.257L174.433 60.2629" stroke="#1D2B47" stroke-width="0.395102"/>
<path d="M198.147 12.8379L202.015 16.2008L198.147 20.0689L199.997 23.7686L198.147 28.1418" stroke="#1D2B47" stroke-width="0.395102"/>
<path d="M215.806 54.7129L220.011 56.8995V61.2704" stroke="#1D2B47" stroke-width="0.395102"/>
<path d="M189.234 189.42L196.97 191.775L193.27 197.661L189.234 189.42Z" fill="#D3B8FF" stroke="#1D2B47" stroke-width="0.395102"/>
<path d="M187.643 213.542L194.615 208.256L196.128 217.028L187.643 213.542Z" fill="#D3B8FF" stroke="#1D2B47" stroke-width="0.395102"/>
<path d="M170.733 203.042L177.63 199.342L175.611 206.741L170.733 203.042Z" fill="#D3B8FF" stroke="#1D2B47" stroke-width="0.395102"/>
<path d="M191.084 204.891L196.128 203.041L199.323 206.741L204.033 204.891L206.556 208.254" fill="white"/>
<path d="M191.084 204.891L196.128 203.041L199.323 206.741L204.033 204.891L206.556 208.254" stroke="#1D2B47" stroke-width="0.395102"/>
<path d="M177.63 193.455H180.319L181.33 195.305" fill="white"/>
<path d="M177.63 193.455H180.319L181.33 195.305" stroke="#1D2B47" stroke-width="0.395102"/>
</svg>
