<svg width="24" height="25" viewBox="0 0 24 25" fill="none" xmlns="http://www.w3.org/2000/svg">
<path d="M14.9993 8.75V6.875C14.9993 6.37772 14.8017 5.90081 14.4501 5.54917C14.0985 5.19754 13.6216 5 13.1243 5H4.12427C3.62699 5 3.15007 5.19754 2.79844 5.54917C2.44681 5.90081 2.24927 6.37772 2.24927 6.875V18.125C2.24927 18.6223 2.44681 19.0992 2.79844 19.4508C3.15007 19.8025 3.62699 20 4.12427 20H13.1243C13.6216 20 14.0985 19.8025 14.4501 19.4508C14.8017 19.0992 14.9993 18.6223 14.9993 18.125V16.25" stroke="#EB1E1E" stroke-width="1.5" stroke-linecap="round" stroke-linejoin="round"/>
<path d="M18.0002 8.75024L21.7508 12.5008L18.0002 16.2513" stroke="#EB1E1E" stroke-width="1.5" stroke-linecap="round" stroke-linejoin="round"/>
<path d="M8.95337 12.5002H21.7502" stroke="#EB1E1E" stroke-width="1.5" stroke-linecap="round" stroke-linejoin="round"/>
</svg>
