<svg xmlns="http://www.w3.org/2000/svg" xmlns:xlink="http://www.w3.org/1999/xlink" version="1.1" width="1000" height="1000" viewBox="0 0 1000 1000" xml:space="preserve">
<desc>Created with Fabric.js 3.5.0</desc>
<defs>
</defs>
<rect x="0" y="0" width="100%" height="100%" fill="#ffffff"/>
<g transform="matrix(0.0488 0 0 0.0488 57.9473 57.9473)" id="69513">
<g style="" vector-effect="non-scaling-stroke">
		<g transform="matrix(1 0 0 1 0.1409 0.1449)">
<path style="stroke: none; stroke-width: 1; stroke-dasharray: none; stroke-linecap: butt; stroke-dashoffset: 0; stroke-linejoin: miter; stroke-miterlimit: 4; is-custom-font: none; font-file-url: none; fill: rgb(128,128,128); fill-rule: nonzero; opacity: 1;" transform=" translate(-256.1409, -256.1449)" d="M 432 448 C 429.898 448.003 427.817 447.591 425.876 446.786 C 423.935 445.981 422.172 444.8 420.69 443.31 L 68.6899 91.31 C 65.816 88.285 64.2374 84.257 64.2909 80.0848 C 64.3443 75.9127 66.0254 71.9264 68.9758 68.976 C 71.9263 66.0255 75.9125 64.3444 80.0847 64.291 C 84.2569 64.2376 88.2849 65.8161 91.3099 68.69 L 443.31 420.69 C 445.546 422.928 447.069 425.778 447.685 428.881 C 448.302 431.983 447.985 435.199 446.775 438.122 C 445.565 441.045 443.515 443.543 440.885 445.301 C 438.255 447.059 435.163 447.999 432 448 V 448 Z M 248 315.85 L 196.21 264.06 C 195.913 263.766 195.532 263.572 195.119 263.505 C 194.706 263.439 194.283 263.504 193.909 263.69 C 193.535 263.877 193.229 264.176 193.034 264.545 C 192.838 264.915 192.764 265.336 192.82 265.75 C 194.911 279.186 201.22 291.61 210.835 301.225 C 220.45 310.84 232.874 317.149 246.31 319.24 C 246.724 319.296 247.145 319.222 247.515 319.026 C 247.884 318.831 248.183 318.525 248.37 318.151 C 248.556 317.777 248.621 317.354 248.554 316.941 C 248.488 316.528 248.294 316.147 248 315.85 Z M 264 196.15 L 315.87 248 C 316.166 248.298 316.548 248.496 316.963 248.565 C 317.378 248.633 317.804 248.57 318.18 248.382 C 318.556 248.195 318.864 247.894 319.06 247.522 C 319.256 247.15 319.329 246.726 319.27 246.31 C 317.184 232.855 310.871 220.414 301.243 210.786 C 291.616 201.159 279.174 194.846 265.72 192.76 C 265.303 192.696 264.877 192.765 264.502 192.957 C 264.127 193.15 263.822 193.456 263.631 193.832 C 263.441 194.208 263.374 194.634 263.44 195.051 C 263.506 195.467 263.702 195.852 264 196.15 V 196.15 Z" stroke-linecap="round"/>
</g>
		<g transform="matrix(1 0 0 1 0.0216 0)">
<path style="stroke: none; stroke-width: 1; stroke-dasharray: none; stroke-linecap: butt; stroke-dashoffset: 0; stroke-linejoin: miter; stroke-miterlimit: 4; is-custom-font: none; font-file-url: none; fill: rgb(128,128,128); fill-rule: nonzero; opacity: 1;" transform=" translate(-256.0216, -256)" d="M 491 273.36 C 494.311 268.164 496.061 262.127 496.043 255.965 C 496.025 249.804 494.24 243.777 490.9 238.6 C 464.44 197.68 430.11 162.92 391.63 138.07 C 349 110.55 302 96 255.68 96 C 231.261 96.0335 207.008 100.015 183.86 107.79 C 183.212 108.005 182.63 108.383 182.17 108.887 C 181.709 109.391 181.385 110.005 181.229 110.669 C 181.072 111.334 181.089 112.028 181.276 112.684 C 181.464 113.341 181.816 113.938 182.3 114.42 L 229.54 161.66 C 230.031 162.152 230.641 162.507 231.311 162.691 C 231.981 162.875 232.687 162.882 233.36 162.71 C 249.372 158.808 266.12 159.094 281.99 163.54 C 297.86 167.987 312.318 176.444 323.972 188.098 C 335.626 199.752 344.083 214.21 348.53 230.08 C 352.976 245.95 353.262 262.697 349.36 278.71 C 349.19 279.382 349.197 280.086 349.382 280.754 C 349.566 281.422 349.92 282.03 350.41 282.52 L 418.36 350.52 C 419.067 351.228 420.014 351.646 421.013 351.69 C 422.013 351.735 422.993 351.403 423.76 350.76 C 449.916 328.466 472.581 302.376 491 273.36 Z M 256 352 C 241.467 352.001 227.124 348.702 214.052 342.353 C 200.98 336.004 189.52 326.769 180.536 315.347 C 171.552 303.924 165.279 290.61 162.189 276.41 C 159.1 262.209 159.274 247.493 162.7 233.37 C 162.87 232.698 162.862 231.994 162.678 231.326 C 162.494 230.658 162.14 230.05 161.65 229.56 L 94.8099 162.69 C 94.1012 161.98 93.1518 161.563 92.1498 161.52 C 91.1478 161.478 90.1664 161.813 89.3999 162.46 C 65.0099 183.27 42.3999 208.59 21.7299 238.18 C 18.1118 243.373 16.1191 249.525 16.0052 255.853 C 15.8912 262.181 17.6611 268.4 21.0899 273.72 C 47.4999 315.05 81.4799 349.86 119.37 374.37 C 162.06 402 207.92 416 255.68 416 C 280.345 415.934 304.851 412.037 328.32 404.45 C 328.974 404.241 329.563 403.868 330.03 403.365 C 330.498 402.863 330.828 402.249 330.99 401.582 C 331.152 400.915 331.139 400.218 330.954 399.557 C 330.768 398.897 330.415 398.295 329.93 397.81 L 282.46 350.35 C 281.97 349.86 281.362 349.506 280.694 349.322 C 280.026 349.138 279.322 349.13 278.65 349.3 C 271.234 351.097 263.63 352.003 256 352 V 352 Z" stroke-linecap="round"/>
</g>
</g>
</g>
</svg>