<svg width="52" height="52" viewBox="0 0 52 52" fill="none" xmlns="http://www.w3.org/2000/svg">
<path d="M35 20.75H17C16.59 20.75 16.25 20.41 16.25 20C16.25 19.59 16.59 19.25 17 19.25H35C35.41 19.25 35.75 19.59 35.75 20C35.75 20.41 35.41 20.75 35 20.75Z" fill="#292D32"/>
<path d="M32 25.75H20C19.59 25.75 19.25 25.41 19.25 25C19.25 24.59 19.59 24.25 20 24.25H32C32.41 24.25 32.75 24.59 32.75 25C32.75 25.41 32.41 25.75 32 25.75Z" fill="#292D32"/>
<path d="M28 30.75H24C23.59 30.75 23.25 30.41 23.25 30C23.25 29.59 23.59 29.25 24 29.25H28C28.41 29.25 28.75 29.59 28.75 30C28.75 30.41 28.41 30.75 28 30.75Z" fill="#292D32"/>
<rect x="0.5" y="0.5" width="51" height="51" rx="25.5" stroke="#F5F5F7"/>
</svg>
