<svg width="25" height="25" viewBox="0 0 25 25" fill="none" xmlns="http://www.w3.org/2000/svg">
<path d="M23.0005 12.7332C23.0005 11.8699 22.9291 11.2399 22.7744 10.5865H12.7148V14.4832H18.6196C18.5006 15.4515 17.8577 16.9099 16.4291 17.8898L16.4091 18.0203L19.5897 20.435L19.8101 20.4565C21.8338 18.6249 23.0005 15.9298 23.0005 12.7332Z" fill="#4285F4"/>
<path d="M12.712 23.0001C15.6048 23.0001 18.0334 22.0667 19.8072 20.4567L16.4263 17.89C15.5215 18.5083 14.3072 18.94 12.712 18.94C9.87874 18.94 7.474 17.1083 6.61678 14.5767L6.49113 14.5871L3.18388 17.0955L3.14062 17.2133C4.9025 20.6433 8.52155 23.0001 12.712 23.0001Z" fill="#34A853"/>
<path d="M6.619 14.5767C6.39281 13.9234 6.26191 13.2233 6.26191 12.5C6.26191 11.7767 6.39281 11.0767 6.6071 10.4234L6.60111 10.2842L3.25239 7.7356L3.14283 7.78667C2.41667 9.21002 2 10.8084 2 12.5C2 14.1917 2.41667 15.79 3.14283 17.2133L6.619 14.5767Z" fill="#FBBC05"/>
<path d="M12.7121 6.05997C14.724 6.05997 16.0811 6.91163 16.8549 7.62335L19.8787 4.73C18.0216 3.03834 15.6049 2 12.7121 2C8.52158 2 4.90251 4.35665 3.14062 7.78662L6.6049 10.4233C7.47403 7.89166 9.87878 6.05997 12.7121 6.05997Z" fill="#EB4335"/>
</svg>
