<svg width="36" height="36" viewBox="0 0 36 36" fill="none" xmlns="http://www.w3.org/2000/svg">
<path d="M4.5 13.665V22.32C4.5 25.5 4.5 25.5 7.5 27.525L15.75 32.295C16.995 33.015 19.02 33.015 20.25 32.295L28.5 27.525C31.5 25.5 31.5 25.5 31.5 22.335V13.665C31.5 10.5 31.5 10.5 28.5 8.47504L20.25 3.70504C19.02 2.98504 16.995 2.98504 15.75 3.70504L7.5 8.47504C4.5 10.5 4.5 10.5 4.5 13.665Z" stroke="#292D32" stroke-width="1.5" stroke-linecap="round" stroke-linejoin="round"/>
<path d="M18 22.5C20.4853 22.5 22.5 20.4853 22.5 18C22.5 15.5147 20.4853 13.5 18 13.5C15.5147 13.5 13.5 15.5147 13.5 18C13.5 20.4853 15.5147 22.5 18 22.5Z" stroke="#292D32" stroke-width="1.5" stroke-linecap="round" stroke-linejoin="round"/>
</svg>
