<svg width="52" height="52" viewBox="0 0 52 52" fill="none" xmlns="http://www.w3.org/2000/svg">
<path d="M26 19.9414V23.2714" stroke="#292D32" stroke-width="1.5" stroke-miterlimit="10" stroke-linecap="round"/>
<path d="M26.0209 15.5C22.3409 15.5 19.3609 18.48 19.3609 22.16V24.26C19.3609 24.94 19.0809 25.96 18.7309 26.54L17.4609 28.66C16.6809 29.97 17.2209 31.43 18.6609 31.91C23.4409 33.5 28.6109 33.5 33.3909 31.91C34.7409 31.46 35.3209 29.88 34.5909 28.66L33.3209 26.54C32.9709 25.96 32.6909 24.93 32.6909 24.26V22.16C32.6809 18.5 29.6809 15.5 26.0209 15.5Z" stroke="#292D32" stroke-width="1.5" stroke-miterlimit="10" stroke-linecap="round"/>
<path d="M29.3299 32.3203C29.3299 34.1503 27.8299 35.6503 25.9999 35.6503C25.0899 35.6503 24.2499 35.2703 23.6499 34.6703C23.0499 34.0703 22.6699 33.2303 22.6699 32.3203" stroke="#292D32" stroke-width="1.5" stroke-miterlimit="10"/>
<rect x="0.5" y="0.5" width="51" height="51" rx="25.5" stroke="#F5F5F7"/>
</svg>
