<svg width="36" height="36" viewBox="0 0 36 36" fill="none" xmlns="http://www.w3.org/2000/svg">
<path d="M27 28.2906H25.86C24.66 28.2906 23.52 28.7556 22.68 29.5956L20.115 32.1306C18.945 33.2856 17.04 33.2856 15.87 32.1306L13.305 29.5956C12.465 28.7556 11.31 28.2906 10.125 28.2906H9C6.51 28.2906 4.5 26.2956 4.5 23.8356V7.47058C4.5 5.01058 6.51 3.01562 9 3.01562H27C29.49 3.01562 31.5 5.01058 31.5 7.47058V23.8356C31.5 26.2806 29.49 28.2906 27 28.2906Z" stroke="#292D32" stroke-width="1.5" stroke-miterlimit="10" stroke-linecap="round" stroke-linejoin="round"/>
<path d="M18.0009 14.9997C19.9311 14.9997 21.4959 13.4349 21.4959 11.5047C21.4959 9.57446 19.9311 8.00977 18.0009 8.00977C16.0706 8.00977 14.5059 9.57446 14.5059 11.5047C14.5059 13.4349 16.0706 14.9997 18.0009 14.9997Z" stroke="#292D32" stroke-width="1.5" stroke-linecap="round" stroke-linejoin="round"/>
<path d="M24 23.4895C24 20.7895 21.315 18.5996 18 18.5996C14.685 18.5996 12 20.7895 12 23.4895" stroke="#292D32" stroke-width="1.5" stroke-linecap="round" stroke-linejoin="round"/>
</svg>
