<svg width="259" height="256" viewBox="0 0 259 256" fill="none" xmlns="http://www.w3.org/2000/svg">
<path fill-rule="evenodd" clip-rule="evenodd" d="M175.931 181.577C175.838 181.518 175.728 181.484 175.609 181.484C175.275 181.484 175.004 181.755 175.004 182.09V238.396C175.004 238.73 175.275 239.001 175.609 239.001C175.944 239.001 176.215 238.73 176.215 238.396V227.58C183.986 217.534 192.549 215.019 199.167 214.992C202.518 214.978 205.385 215.603 207.413 216.231C208.427 216.546 209.23 216.86 209.776 217.095C210.05 217.212 210.259 217.31 210.398 217.377C210.457 217.405 210.503 217.428 210.536 217.445L217.874 224.782C218.074 224.982 218.399 224.982 218.599 224.782C218.799 224.582 218.799 224.257 218.599 224.057L211.263 216.721C211.246 216.688 211.224 216.643 211.197 216.587C211.132 216.449 211.037 216.244 210.923 215.975C210.694 215.437 210.389 214.647 210.086 213.648C209.479 211.649 208.883 208.822 208.924 205.511C209.007 198.94 211.601 190.404 221.761 182.603H233.402C233.685 182.603 233.915 182.373 233.915 182.09C233.915 181.807 233.685 181.577 233.402 181.577H221.592H221.581H175.931ZM208.652 215.56L199.368 206.277L199.346 206.273C199.222 206.251 199.038 206.22 198.799 206.187C198.322 206.12 197.63 206.042 196.777 205.999C195.07 205.913 192.731 205.969 190.193 206.531C185.21 207.635 179.459 210.688 176.215 218.526V225.934C183.975 216.469 192.478 213.993 199.163 213.966C202.642 213.952 205.614 214.6 207.717 215.252C208.051 215.355 208.363 215.459 208.652 215.56ZM200.054 205.512C200.02 205.463 199.976 205.419 199.926 205.384L199.598 205.056C199.588 205.004 199.579 204.948 199.569 204.889C199.492 204.432 199.4 203.768 199.34 202.948C199.219 201.307 199.226 199.051 199.735 196.589C200.745 191.7 203.733 185.977 211.716 182.603H220.107C210.536 190.384 207.983 198.857 207.899 205.498C207.856 208.938 208.475 211.872 209.105 213.946C209.203 214.271 209.302 214.575 209.399 214.857L200.054 205.512ZM198.317 203.023C198.339 203.319 198.364 203.595 198.392 203.85L191.535 196.993C191.517 196.921 191.494 196.818 191.468 196.689C191.411 196.404 191.341 195.989 191.291 195.475C191.192 194.446 191.177 193.032 191.509 191.487C192.167 188.425 194.196 184.79 199.813 182.603H209.313C202.451 186.198 199.707 191.657 198.731 196.381C198.198 198.96 198.191 201.315 198.317 203.023ZM198.169 205.077C197.782 205.037 197.332 205 196.829 204.975C195.057 204.886 192.621 204.943 189.972 205.53C185.19 206.589 179.717 209.377 176.215 216.098V205.537C178.42 200.197 182.045 198.263 185.129 197.642C186.718 197.322 188.176 197.349 189.237 197.458C189.767 197.512 190.196 197.586 190.49 197.646C190.626 197.674 190.733 197.698 190.808 197.716L198.169 205.077ZM184.927 196.636C181.963 197.233 178.586 198.948 176.215 203.18V183.123L189.552 196.46C189.484 196.452 189.413 196.445 189.342 196.437C188.207 196.321 186.642 196.291 184.927 196.636ZM197.349 182.603H177.145L190.288 195.746C190.282 195.69 190.276 195.632 190.27 195.574C190.164 194.47 190.147 192.945 190.507 191.271C191.14 188.324 192.935 184.955 197.349 182.603Z" fill="#D3B8FF"/>
<path fill-rule="evenodd" clip-rule="evenodd" d="M133.88 22.792C133.307 22.5555 132.693 22.4343 132.073 22.4354L132.068 22.4354C130.816 22.4365 129.616 22.9341 128.731 23.8192C127.847 24.7037 127.349 25.9028 127.347 27.1537V33.0931H115.609L115.609 27.1457C115.613 22.7845 117.347 18.6029 120.431 15.5191C123.514 12.4358 127.695 10.7017 132.055 10.6973L132.058 10.6973C134.219 10.6942 136.36 11.117 138.358 11.9416C140.357 12.7667 142.175 13.9781 143.705 15.5063C145.236 17.0346 146.451 18.8496 147.279 20.8477C148.108 22.8458 148.535 24.9877 148.535 27.1508V32.8733H136.797V27.1508C136.797 26.5309 136.674 25.917 136.437 25.3444C136.199 24.7717 135.851 24.2516 135.413 23.8136C134.974 23.3756 134.453 23.0285 133.88 22.792ZM132.058 10.6973L132.055 10.6973L132.058 10.6973Z" fill="#AA75FF"/>
<path d="M132.788 224.903C157.116 224.903 176.838 205.181 176.838 180.853C176.838 156.525 157.116 136.803 132.788 136.803C108.46 136.803 88.7383 156.525 88.7383 180.853C88.7383 205.181 108.46 224.903 132.788 224.903Z" fill="#AA75FF"/>
<path d="M202.29 132.289V98.4941C202.29 80.0605 194.968 62.3819 181.933 49.3474C168.899 36.3129 151.22 28.9902 132.787 28.9902C114.353 28.9902 96.6744 36.3129 83.6399 49.3474C70.6054 62.3819 63.2827 80.0605 63.2827 98.4941V132.289C63.2835 140.053 61.0871 147.659 56.9474 154.228C52.8077 160.796 46.8937 166.059 39.8889 169.408C38.279 170.175 36.9199 171.383 35.9701 172.892C35.0202 174.401 34.5185 176.149 34.5235 177.932V178.115C34.5223 178.759 34.6481 179.397 34.8937 179.993C35.1394 180.588 35.5 181.129 35.955 181.585C36.41 182.041 36.9504 182.403 37.5453 182.649C38.1402 182.896 38.7779 183.023 39.422 183.023H226.142C226.786 183.023 227.424 182.896 228.019 182.649C228.614 182.403 229.154 182.041 229.609 181.585C230.064 181.129 230.425 180.588 230.67 179.993C230.916 179.397 231.042 178.759 231.041 178.115V177.932C231.041 176.155 230.538 174.413 229.59 172.91C228.643 171.406 227.288 170.201 225.684 169.435C218.675 166.084 212.758 160.817 208.618 154.244C204.478 147.67 202.284 140.058 202.29 132.289Z" fill="#FCB332"/>
<path fill-rule="evenodd" clip-rule="evenodd" d="M105.328 105.001C105.46 105.01 105.59 105.064 105.693 105.162L105.702 105.172L130.719 130.193C130.799 130.242 130.864 130.308 130.911 130.384L163.248 162.727C163.477 162.956 163.477 163.327 163.248 163.556C163.019 163.784 162.648 163.784 162.419 163.555L146.599 147.733C133.589 144.69 123.397 148.024 116.441 152.127C112.946 154.189 110.268 156.446 108.465 158.185C107.564 159.055 106.883 159.794 106.429 160.314C106.201 160.574 106.031 160.779 105.918 160.917L105.874 160.973V163.443C105.874 163.767 105.611 164.029 105.288 164.029C104.964 164.029 104.702 163.767 104.702 163.443V160.973C104.688 160.956 104.673 160.937 104.657 160.917C104.544 160.779 104.374 160.574 104.147 160.314C103.692 159.794 103.011 159.055 102.11 158.185C100.307 156.446 97.6291 154.189 94.1332 152.127C87.1785 148.026 76.9877 144.692 63.9785 147.73L48.0004 163.711C47.7716 163.94 47.4005 163.94 47.1717 163.711C46.9428 163.482 46.9428 163.111 47.1716 162.883L63.2099 146.842C63.2402 146.802 63.2756 146.767 63.3153 146.736L79.665 130.384C79.7118 130.308 79.7762 130.242 79.8556 130.193L88.6256 121.422C88.6459 121.398 88.6684 121.375 88.6928 121.355L104.87 105.174C104.88 105.164 104.891 105.155 104.901 105.145C104.992 105.066 105.101 105.019 105.214 105.005C105.252 105 105.29 104.999 105.328 105.001ZM65.5024 146.206C78.0133 143.779 87.8939 147.087 94.7286 151.118C98.3195 153.236 101.07 155.553 102.924 157.342C103.657 158.05 104.251 158.675 104.702 159.174V149.55C104.694 149.533 104.686 149.513 104.676 149.491C104.629 149.384 104.555 149.223 104.451 149.017C104.244 148.604 103.917 148.013 103.448 147.311C102.509 145.906 100.998 144.061 98.7224 142.316C94.2086 138.856 86.6199 135.746 74.3438 137.364L65.5024 146.206ZM136.231 137.364L145.075 146.208C132.563 143.777 122.681 147.086 115.846 151.118C112.255 153.236 109.505 155.553 107.651 157.342C106.918 158.05 106.324 158.675 105.874 159.174V149.551C105.881 149.533 105.89 149.513 105.899 149.491C105.947 149.384 106.021 149.223 106.124 149.017C106.332 148.605 106.658 148.013 107.128 147.311C108.067 145.906 109.577 144.061 111.853 142.316C116.367 138.856 123.955 135.746 136.231 137.364ZM75.6818 136.025C87.3799 134.803 94.8476 137.869 99.4353 141.386C101.83 143.221 103.424 145.167 104.422 146.66C104.521 146.808 104.614 146.951 104.702 147.09V138.199L104.701 138.198C104.633 138.101 104.53 137.959 104.392 137.778C104.116 137.417 103.703 136.905 103.157 136.311C102.064 135.12 100.447 133.603 98.3522 132.297C94.2054 129.711 88.1756 127.936 80.5364 131.17L75.6818 136.025ZM104.02 135.518C104.274 135.795 104.502 136.056 104.702 136.293V126.477C104.666 126.419 104.617 126.342 104.555 126.249C104.401 126.018 104.167 125.689 103.852 125.307C103.221 124.542 102.271 123.572 100.996 122.748C98.4898 121.128 94.6768 120.034 89.412 122.293L82.5009 129.205C89.4303 127.073 95.0179 128.837 98.9724 131.303C101.18 132.679 102.876 134.271 104.02 135.518ZM91.3297 120.375C95.7997 119.143 99.2312 120.212 101.632 121.764C102.996 122.645 104.015 123.674 104.702 124.496V107.001L91.3297 120.375ZM134.893 136.025L130.039 131.17C122.4 127.936 116.37 129.711 112.223 132.297C110.128 133.603 108.512 135.12 107.419 136.311C106.873 136.905 106.459 137.417 106.184 137.778C106.046 137.959 105.943 138.101 105.875 138.198L105.874 138.199V147.09C105.961 146.951 106.054 146.808 106.153 146.66C107.151 145.167 108.745 143.221 111.14 141.386C115.728 137.87 123.196 134.803 134.893 136.025ZM106.555 135.518C106.301 135.795 106.074 136.056 105.874 136.293V126.476C105.909 126.418 105.958 126.342 106.02 126.249C106.173 126.018 106.407 125.689 106.722 125.307C107.353 124.541 108.301 123.572 109.575 122.748C112.081 121.127 115.897 120.031 121.17 122.3L128.074 129.205C121.145 127.073 115.558 128.837 111.603 131.303C109.396 132.679 107.7 134.271 106.555 135.518ZM119.249 120.378L105.874 107.001V124.494C106.559 123.672 107.576 122.645 108.939 121.764C111.34 120.211 114.774 119.141 119.249 120.378Z" fill="white"/>
<path fill-rule="evenodd" clip-rule="evenodd" d="M170.73 103.958V0H171.902V103.958H170.73Z" fill="black"/>
<path fill-rule="evenodd" clip-rule="evenodd" d="M161.188 97.4701C161.459 97.3639 161.764 97.4973 161.87 97.768L162.981 100.6L166.61 101.854C167.565 99.5221 169.315 97.9602 171.315 97.9602C173.317 97.9602 175.069 99.5259 176.023 101.863L179.676 100.6L180.787 97.768C180.893 97.4973 181.198 97.3639 181.469 97.4701C181.74 97.5763 181.873 97.8818 181.767 98.1524L180.568 101.211C180.511 101.354 180.395 101.466 180.249 101.516L176.368 102.858C176.583 103.609 176.723 104.418 176.771 105.265L180.112 104.503C180.316 104.457 180.529 104.522 180.671 104.676L183.501 107.725C183.721 107.962 183.707 108.333 183.47 108.553C183.233 108.773 182.862 108.759 182.642 108.522L180.042 105.721L176.778 106.466C176.741 107.285 176.619 108.07 176.425 108.803L178.94 108.23C179.16 108.179 179.389 108.26 179.529 108.437L181.864 111.385C182.065 111.639 182.022 112.008 181.769 112.209C181.515 112.41 181.146 112.367 180.946 112.113L178.84 109.455L175.982 110.106C175.685 110.81 175.316 111.441 174.888 111.977C175.081 112.451 175.188 112.971 175.188 113.516C175.188 115.716 173.454 117.499 171.315 117.499C169.176 117.499 167.442 115.716 167.442 113.516C167.442 112.971 167.548 112.451 167.741 111.978C167.313 111.439 166.942 110.806 166.644 110.099L163.817 109.455L161.712 112.113C161.511 112.367 161.142 112.41 160.889 112.209C160.635 112.008 160.592 111.639 160.793 111.385L163.128 108.437C163.268 108.26 163.497 108.179 163.717 108.23L166.202 108.796C166.009 108.063 165.887 107.278 165.851 106.459L162.615 105.721L160.016 108.522C159.795 108.759 159.425 108.773 159.187 108.553C158.95 108.333 158.936 107.962 159.156 107.725L161.986 104.676C162.128 104.522 162.341 104.457 162.546 104.503L165.859 105.259C165.908 104.411 166.048 103.601 166.264 102.849L162.408 101.516C162.262 101.466 162.146 101.354 162.09 101.211L160.89 98.1524C160.784 97.8818 160.917 97.5763 161.188 97.4701Z" fill="#4F00CF"/>
<path d="M257.586 88.9435C257.638 88.8498 257.669 88.7461 257.679 88.6392C257.688 88.5324 257.674 88.4249 257.638 88.3237C257.603 88.2225 257.547 88.13 257.473 88.0522C257.399 87.9744 257.31 87.9131 257.211 87.8723C254.317 86.7186 244.081 83.2942 238.486 90.1979C234.743 94.7353 229.453 97.7262 223.635 98.594C223.489 98.6137 223.352 98.6771 223.242 98.776C223.132 98.8749 223.055 99.0046 223.02 99.1482C222.986 99.2917 222.995 99.4424 223.048 99.5805C223.1 99.7185 223.193 99.8374 223.315 99.9217C228.259 103.428 244.593 112.365 257.586 88.9435Z" fill="#D3B8FF"/>
<path d="M40.7566 137.36C40.7979 137.285 40.8229 137.202 40.8299 137.116C40.8369 137.03 40.8258 136.944 40.7973 136.863C40.7688 136.782 40.7235 136.707 40.6645 136.645C40.6054 136.582 40.5339 136.533 40.4545 136.5C38.138 135.584 29.9067 132.837 25.411 138.331C22.4112 141.971 18.1721 144.374 13.5081 145.079C13.391 145.095 13.2814 145.145 13.1936 145.224C13.1059 145.304 13.0441 145.407 13.0164 145.522C12.9886 145.637 12.9963 145.758 13.0383 145.868C13.0803 145.979 13.1547 146.074 13.2517 146.141C17.198 148.998 30.3187 156.176 40.7566 137.36Z" fill="#D3B8FF"/>
<path d="M235.064 126.974C235.029 126.912 235.008 126.842 235.002 126.77C234.996 126.699 235.005 126.627 235.03 126.559C235.054 126.491 235.092 126.43 235.142 126.378C235.193 126.327 235.253 126.286 235.32 126.26C237.261 125.482 244.137 123.184 247.891 127.817C250.408 130.865 253.963 132.874 257.872 133.457C257.975 133.466 258.073 133.508 258.152 133.577C258.23 133.645 258.285 133.737 258.308 133.838C258.332 133.94 258.322 134.046 258.282 134.142C258.241 134.238 258.171 134.319 258.082 134.372C254.768 136.744 243.789 142.741 235.064 126.974Z" fill="#D3B8FF"/>
<path d="M0.102226 97.2598C0.0457139 97.1551 0.0117607 97.0397 0.00255419 96.9212C-0.00665231 96.8026 0.00909219 96.6833 0.048773 96.5712C0.0884538 96.4591 0.15119 96.3565 0.23294 96.2701C0.314689 96.1836 0.413636 96.1153 0.523406 96.0695C3.72804 94.7968 15.0724 91.0062 21.2711 98.6423C25.4233 103.677 31.296 106.992 37.7521 107.945C37.9135 107.969 38.0641 108.04 38.1843 108.151C38.3045 108.261 38.3888 108.405 38.4263 108.564C38.4638 108.723 38.4527 108.889 38.3945 109.042C38.3364 109.194 38.2337 109.326 38.1 109.419C32.5972 113.301 14.4956 123.208 0.102226 97.2598Z" fill="#D3B8FF"/>
<path d="M38.6312 67.558C38.3164 66.3233 39.4562 65.2108 40.6829 65.5555L48.9631 67.8824C50.1898 68.2271 50.5833 69.7705 49.6714 70.6605L43.5162 76.6679C42.6043 77.5579 41.071 77.127 40.7561 75.8923L38.6312 67.558Z" fill="#D3B8FF"/>
<path d="M228.932 26.9987C229.421 24.9717 232.304 24.9717 232.794 26.9987L234.441 33.8206C234.615 34.5449 235.181 35.1105 235.905 35.2853L242.727 36.9321C244.754 37.4214 244.754 40.3045 242.727 40.7938L235.905 42.4406C235.181 42.6154 234.615 43.181 234.441 43.9053L232.794 50.7272C232.304 52.7542 229.421 52.7542 228.932 50.7272L227.285 43.9053C227.11 43.181 226.545 42.6154 225.821 42.4406L218.999 40.7938C216.972 40.3045 216.972 37.4214 218.999 36.9321L225.821 35.2853C226.545 35.1105 227.11 34.5449 227.285 33.8206L228.932 26.9987Z" fill="#D3B8FF"/>
<path d="M86.9321 223.999C87.4214 221.972 90.3045 221.972 90.7938 223.999L92.4406 230.821C92.6154 231.545 93.181 232.11 93.9053 232.285L100.727 233.932C102.754 234.421 102.754 237.304 100.727 237.794L93.9053 239.441C93.181 239.615 92.6154 240.181 92.4406 240.905L90.7938 247.727C90.3045 249.754 87.4214 249.754 86.9321 247.727L85.2853 240.905C85.1105 240.181 84.5449 239.615 83.8206 239.441L76.9987 237.794C74.9717 237.304 74.9717 234.421 76.9987 233.932L83.8206 232.285C84.5449 232.11 85.1105 231.545 85.2853 230.821L86.9321 223.999Z" fill="#D3B8FF"/>
<path d="M60.3453 213.793C60.3453 216.307 58.3073 218.345 55.7934 218.345C53.2794 218.345 51.2414 216.307 51.2414 213.793C51.2414 211.279 53.2794 209.241 55.7934 209.241C58.3073 209.241 60.3453 211.279 60.3453 213.793Z" stroke="#D3B8FF" stroke-width="2.48287"/>
<circle cx="62.7934" cy="34.7934" r="4.55192" stroke="#D3B8FF" stroke-width="2.48287"/>
<circle cx="243.793" cy="204.793" r="4.55192" stroke="#D3B8FF" stroke-width="2.48287"/>
</svg>
