<svg width="52" height="52" viewBox="0 0 52 52" fill="none" xmlns="http://www.w3.org/2000/svg">
<path d="M26 19.9399V23.2699" stroke="#292D32" stroke-width="1.5" stroke-miterlimit="10" stroke-linecap="round"/>
<path d="M26.0199 15.5C22.3399 15.5 19.3599 18.48 19.3599 22.16V24.26C19.3599 24.94 19.0799 25.96 18.7299 26.54L17.4599 28.66C16.6799 29.97 17.2199 31.43 18.6599 31.91C23.4399 33.5 28.6099 33.5 33.3899 31.91C34.7399 31.46 35.3199 29.88 34.5899 28.66L33.3199 26.54C32.9699 25.96 32.6899 24.93 32.6899 24.26V22.16C32.6799 18.5 29.6799 15.5 26.0199 15.5Z" stroke="#292D32" stroke-width="1.5" stroke-miterlimit="10" stroke-linecap="round"/>
<path d="M29.3299 32.3198C29.3299 34.1498 27.8299 35.6498 25.9999 35.6498C25.0899 35.6498 24.2499 35.2698 23.6499 34.6698C23.0499 34.0698 22.6699 33.2298 22.6699 32.3198" stroke="#292D32" stroke-width="1.5" stroke-miterlimit="10"/>
<rect x="0.5" y="0.5" width="51" height="51" rx="25.5" stroke="#F5F5F7"/>
<circle cx="32" cy="18" r="4" fill="#EB1E1E"/>
</svg>
