<svg width="134" height="134" viewBox="0 0 134 134" fill="none" xmlns="http://www.w3.org/2000/svg">
<g clip-path="url(#clip0_5266_238805)">
<path d="M161 -21.4871V154.487C161 165.81 155.96 175 149.75 175H-15.7502C-21.9599 175 -27 165.81 -27 154.487V-21.4871C-27 -32.8098 -21.9599 -42 -15.7502 -42H149.756C151.978 -42 154.055 -40.822 155.793 -38.7809C158.923 -35.1556 161 -28.758 161 -21.4871Z" fill="url(#paint0_linear_5266_238805)"/>
<path d="M161 24.8287V154.486C161 165.809 155.966 174.989 149.756 174.989H-15.7499C-21.9596 174.989 -26.9941 165.809 -26.9941 154.486V54.9278C-23.7529 49.0786 -19.9602 43.6051 -15.5438 38.9948C-2.07747 24.9099 10.9378 25.8543 36.4169 28.3017C67.1144 31.2466 69.2753 40.8328 90.8894 42.0514C99.7835 42.5591 107.023 41.3609 113.172 39.3603C133.895 32.5261 142.104 16.2681 158.773 23.7117C159.513 24.0468 160.254 24.4123 161 24.8287Z" fill="url(#paint1_linear_5266_238805)"/>
<path d="M30.9143 -42C27.8512 12.5216 3.32994 55.4566 -27 58.2695V-21.4871C-27 -32.8098 -21.9599 -42 -15.7502 -42H30.9143Z" fill="url(#paint2_linear_5266_238805)"/>
<path opacity="0.27" d="M161 152.079V154.476C161 165.799 155.96 174.989 149.75 174.989H-15.7502C-21.9599 174.989 -27 165.799 -27 154.476V73.7852C-23.8812 70.7591 -20.278 68.4539 -16.2403 67.6415C-6.884 65.7832 0.456228 72.8916 9.07737 81.4928C25.6124 97.9945 28.2132 111.044 37.5639 121.889C55.5525 142.757 70.3332 122.813 100.864 124.194C123.864 125.25 148.291 138.045 161 152.079Z" fill="url(#paint3_linear_5266_238805)"/>
<path opacity="0.53" d="M161 -21.4871V154.487C161 165.81 155.96 175 149.75 175H-15.7502C-21.9599 175 -27 165.81 -27 154.487V-21.4871C-27 -32.8098 -21.9599 -42 -15.7502 -42H149.756C151.978 -42 154.055 -40.822 155.793 -38.7809C158.923 -35.1556 161 -28.758 161 -21.4871Z" fill="url(#paint4_linear_5266_238805)"/>
<path d="M51.7754 65.384C51.7754 66.0347 51.6261 66.632 51.3274 67.176C51.0288 67.7093 50.5701 68.1413 49.9514 68.472C49.3328 68.8027 48.5648 68.968 47.6474 68.968H45.9514V73H43.2154V61.768H47.6474C48.5434 61.768 49.3008 61.9227 49.9194 62.232C50.5381 62.5413 51.0021 62.968 51.3114 63.512C51.6208 64.056 51.7754 64.68 51.7754 65.384ZM47.4394 66.792C47.9621 66.792 48.3514 66.6693 48.6074 66.424C48.8634 66.1787 48.9914 65.832 48.9914 65.384C48.9914 64.936 48.8634 64.5893 48.6074 64.344C48.3514 64.0987 47.9621 63.976 47.4394 63.976H45.9514V66.792H47.4394ZM55.4558 61.16V73H52.7198V61.16H55.4558ZM56.4146 68.52C56.4146 67.6027 56.5852 66.7973 56.9266 66.104C57.2786 65.4107 57.7532 64.8773 58.3506 64.504C58.9479 64.1307 59.6146 63.944 60.3506 63.944C60.9799 63.944 61.5292 64.072 61.9986 64.328C62.4786 64.584 62.8466 64.92 63.1026 65.336V64.072H65.8386V73H63.1026V71.736C62.8359 72.152 62.4626 72.488 61.9826 72.744C61.5132 73 60.9639 73.128 60.3346 73.128C59.6092 73.128 58.9479 72.9413 58.3506 72.568C57.7532 72.184 57.2786 71.6453 56.9266 70.952C56.5852 70.248 56.4146 69.4373 56.4146 68.52ZM63.1026 68.536C63.1026 67.8533 62.9106 67.3147 62.5266 66.92C62.1532 66.5253 61.6946 66.328 61.1506 66.328C60.6066 66.328 60.1426 66.5253 59.7586 66.92C59.3852 67.304 59.1986 67.8373 59.1986 68.52C59.1986 69.2027 59.3852 69.7467 59.7586 70.152C60.1426 70.5467 60.6066 70.744 61.1506 70.744C61.6946 70.744 62.1532 70.5467 62.5266 70.152C62.9106 69.7573 63.1026 69.2187 63.1026 68.536ZM66.7939 68.536C66.7939 67.608 66.9806 66.7973 67.3539 66.104C67.7379 65.4107 68.2659 64.8773 68.9379 64.504C69.6206 64.1307 70.3993 63.944 71.2739 63.944C72.3939 63.944 73.3273 64.2373 74.0739 64.824C74.8313 65.4107 75.3273 66.2373 75.5619 67.304H72.6499C72.4046 66.6213 71.9299 66.28 71.2259 66.28C70.7246 66.28 70.3246 66.4773 70.0259 66.872C69.7273 67.256 69.5779 67.8107 69.5779 68.536C69.5779 69.2613 69.7273 69.8213 70.0259 70.216C70.3246 70.6 70.7246 70.792 71.2259 70.792C71.9299 70.792 72.4046 70.4507 72.6499 69.768H75.5619C75.3273 70.8133 74.8313 71.6347 74.0739 72.232C73.3166 72.8293 72.3833 73.128 71.2739 73.128C70.3993 73.128 69.6206 72.9413 68.9379 72.568C68.2659 72.1947 67.7379 71.6613 67.3539 70.968C66.9806 70.2747 66.7939 69.464 66.7939 68.536ZM84.9614 68.392C84.9614 68.648 84.9454 68.9147 84.9134 69.192H78.7214C78.7641 69.7467 78.9401 70.1733 79.2494 70.472C79.5694 70.76 79.9588 70.904 80.4174 70.904C81.1001 70.904 81.5748 70.616 81.8414 70.04H84.7534C84.6041 70.6267 84.3321 71.1547 83.9374 71.624C83.5534 72.0933 83.0681 72.4613 82.4814 72.728C81.8948 72.9947 81.2388 73.128 80.5134 73.128C79.6388 73.128 78.8601 72.9413 78.1774 72.568C77.4948 72.1947 76.9614 71.6613 76.5774 70.968C76.1934 70.2747 76.0014 69.464 76.0014 68.536C76.0014 67.608 76.1881 66.7973 76.5614 66.104C76.9454 65.4107 77.4788 64.8773 78.1614 64.504C78.8441 64.1307 79.6281 63.944 80.5134 63.944C81.3774 63.944 82.1454 64.1253 82.8174 64.488C83.4894 64.8507 84.0121 65.368 84.3854 66.04C84.7694 66.712 84.9614 67.496 84.9614 68.392ZM82.1614 67.672C82.1614 67.2027 82.0014 66.8293 81.6814 66.552C81.3614 66.2747 80.9614 66.136 80.4814 66.136C80.0228 66.136 79.6334 66.2693 79.3134 66.536C79.0041 66.8027 78.8121 67.1813 78.7374 67.672H82.1614ZM88.6608 65.56C88.9808 65.0693 89.3808 64.6853 89.8608 64.408C90.3408 64.12 90.8741 63.976 91.4608 63.976V66.872H90.7088C90.0261 66.872 89.5141 67.0213 89.1728 67.32C88.8315 67.608 88.6608 68.12 88.6608 68.856V73H85.9248V64.072H88.6608V65.56Z" fill="white"/>
</g>
<defs>
<linearGradient id="paint0_linear_5266_238805" x1="-6.45388" y1="200.436" x2="219.427" y2="76.5573" gradientUnits="userSpaceOnUse">
<stop stop-color="#1B1464"/>
<stop offset="1" stop-color="#83EFFF"/>
</linearGradient>
<linearGradient id="paint1_linear_5266_238805" x1="6.5" y1="175" x2="136.522" y2="138.887" gradientUnits="userSpaceOnUse">
<stop stop-color="#A7000A"/>
<stop offset="1" stop-color="#83EFFF"/>
</linearGradient>
<linearGradient id="paint2_linear_5266_238805" x1="-33.5109" y1="46.3939" x2="46.2179" y2="12.3259" gradientUnits="userSpaceOnUse">
<stop stop-color="#ED0202"/>
<stop offset="1" stop-color="#06F2D6"/>
</linearGradient>
<linearGradient id="paint3_linear_5266_238805" x1="121.5" y1="214.5" x2="-12.1538" y2="101.798" gradientUnits="userSpaceOnUse">
<stop stop-color="#1B1464"/>
<stop offset="0.924773" stop-color="#83EFFF"/>
</linearGradient>
<linearGradient id="paint4_linear_5266_238805" x1="-6.45388" y1="200.436" x2="219.427" y2="76.5573" gradientUnits="userSpaceOnUse">
<stop stop-color="#7B340B"/>
<stop offset="1" stop-color="#29C8AB"/>
</linearGradient>
<clipPath id="clip0_5266_238805">
<rect width="134" height="134" rx="10" fill="white"/>
</clipPath>
</defs>
</svg>
