<svg width="24" height="24" viewBox="0 0 24 24" fill="none" xmlns="http://www.w3.org/2000/svg">
<path d="M10.3636 3.00195C8.90721 3.00195 7.48354 3.43382 6.2726 4.24294C5.06167 5.05206 4.11786 6.2021 3.56052 7.54762C3.00319 8.89314 2.85737 10.3737 3.14149 11.8021C3.42562 13.2305 4.12693 14.5426 5.15675 15.5724C6.18657 16.6022 7.49863 17.3035 8.92703 17.5876C10.3554 17.8718 11.836 17.7259 13.1815 17.1686C14.527 16.6113 15.6771 15.6675 16.4862 14.4565C17.2953 13.2456 17.7272 11.8219 17.7272 10.3655C17.7271 8.41264 16.9512 6.53975 15.5703 5.15884C14.1894 3.77792 12.3165 3.00208 10.3636 3.00195V3.00195Z" stroke="#666666" stroke-width="1.5" stroke-miterlimit="10"/>
<path d="M15.8555 15.8594L21.0002 21.0041" stroke="#666666" stroke-width="1.5" stroke-miterlimit="10" stroke-linecap="round"/>
</svg>
