<svg width="24" height="24" viewBox="0 0 24 24" fill="none" xmlns="http://www.w3.org/2000/svg">
<path d="M10.4862 2.22957L5.49625 4.09957C4.34625 4.52957 3.40625 5.88955 3.40625 7.11955V14.5495C3.40625 15.7295 4.18626 17.2795 5.13626 17.9895L9.43625 21.1996C10.8462 22.2596 13.1662 22.2596 14.5762 21.1996L18.8763 17.9895C19.8263 17.2795 20.6062 15.7295 20.6062 14.5495V7.11955C20.6062 5.88955 19.6662 4.52957 18.5162 4.09957L13.5262 2.22957C12.6762 1.91957 11.3162 1.91957 10.4862 2.22957Z" stroke="#00B068" stroke-width="1.5" stroke-linecap="round" stroke-linejoin="round"/>
<path d="M11.9997 10.9204C11.9597 10.9204 11.9097 10.9204 11.8697 10.9204C10.9297 10.8904 10.1797 10.1104 10.1797 9.1604C10.1797 8.1904 10.9697 7.40039 11.9397 7.40039C12.9097 7.40039 13.6997 8.1904 13.6997 9.1604C13.6897 10.1204 12.9397 10.8904 11.9997 10.9204Z" stroke="#00B068" stroke-width="1.5" stroke-linecap="round" stroke-linejoin="round"/>
<path d="M10.0091 13.7204C9.04906 14.3604 9.04906 15.4103 10.0091 16.0503C11.0991 16.7803 12.8891 16.7803 13.9791 16.0503C14.9391 15.4103 14.9391 14.3604 13.9791 13.7204C12.8991 12.9904 11.1091 12.9904 10.0091 13.7204Z" stroke="#00B068" stroke-width="1.5" stroke-linecap="round" stroke-linejoin="round"/>
</svg>
