<svg width="24" height="25" viewBox="0 0 24 25" fill="none" xmlns="http://www.w3.org/2000/svg">
<path d="M14 6.69995V10.5C11.21 10.55 10.05 11.71 10 14.5H6.2C3.2 14.5 2 13.3 2 10.3V6.69995C2 3.69995 3.2 2.5 6.2 2.5H9.8C12.8 2.5 14 3.69995 14 6.69995Z" stroke="#292D32" stroke-width="1.5" stroke-linecap="round" stroke-linejoin="round"/>
<path d="M6.95995 6.36996C6.42995 6.00996 5.72995 6.00998 5.19995 6.38998" stroke="#292D32" stroke-width="1.5" stroke-miterlimit="10" stroke-linecap="round" stroke-linejoin="round"/>
<path d="M10.9599 6.36996C10.4299 6.00996 9.72995 6.00998 9.19995 6.38998" stroke="#292D32" stroke-width="1.5" stroke-miterlimit="10" stroke-linecap="round" stroke-linejoin="round"/>
<path d="M8.16005 11.92H5.84005C5.54005 11.92 5.30005 11.68 5.30005 11.38C5.30005 9.89 6.51005 8.68005 8.00005 8.68005C8.64005 8.68005 9.23005 8.90002 9.69005 9.27002" stroke="#292D32" stroke-width="1.5" stroke-miterlimit="10" stroke-linecap="round" stroke-linejoin="round"/>
<path d="M22 14.7V18.3C22 21.3 20.8 22.5 17.8 22.5H14.2C11.2 22.5 10 21.3 10 18.3V14.5C10.05 11.71 11.21 10.55 14 10.5H17.8C20.8 10.5 22 11.7 22 14.7Z" stroke="#292D32" stroke-width="1.5" stroke-linecap="round" stroke-linejoin="round"/>
<path d="M14.9599 14.12C14.4299 14.48 13.73 14.48 13.2 14.1" stroke="#292D32" stroke-width="1.5" stroke-miterlimit="10" stroke-linecap="round" stroke-linejoin="round"/>
<path d="M18.9599 14.12C18.4299 14.48 17.73 14.48 17.2 14.1" stroke="#292D32" stroke-width="1.5" stroke-miterlimit="10" stroke-linecap="round" stroke-linejoin="round"/>
<path d="M13.84 16.6801H18.16C18.46 16.6801 18.7001 16.92 18.7001 17.22C18.7001 18.71 17.49 19.92 16 19.92C14.51 19.92 13.3 18.71 13.3 17.22C13.3 16.92 13.54 16.6801 13.84 16.6801Z" stroke="#292D32" stroke-width="1.5" stroke-miterlimit="10" stroke-linecap="round" stroke-linejoin="round"/>
</svg>
