<svg width="17" height="16" viewBox="0 0 17 16" fill="none" xmlns="http://www.w3.org/2000/svg">
<path d="M7.15954 15.0332C7.12621 15.0332 7.09287 15.0332 7.05954 15.0199C4.50621 14.4999 2.43287 12.6199 1.65954 10.1265C1.57954 9.85987 1.72621 9.57987 1.98621 9.49987C2.25288 9.41987 2.53287 9.56654 2.61287 9.82654C3.27954 11.9732 5.05954 13.5865 7.25954 14.0332C7.53287 14.0865 7.70621 14.3532 7.64621 14.6265C7.59954 14.8665 7.38621 15.0332 7.15954 15.0332Z" fill="#292D32"/>
<path d="M15.1335 7.82016C14.8801 7.82016 14.6601 7.62683 14.6335 7.3735C14.3135 4.2135 11.6735 1.8335 8.50015 1.8335C5.32015 1.8335 2.68682 4.2135 2.36682 7.36683C2.34015 7.64016 2.10015 7.84683 1.82015 7.8135C1.54682 7.78683 1.34681 7.54016 1.37348 7.26683C1.74681 3.60016 4.81348 0.833496 8.50015 0.833496C12.1935 0.833496 15.2601 3.60016 15.6268 7.26683C15.6535 7.54016 15.4535 7.78683 15.1801 7.8135C15.1668 7.82016 15.1468 7.82016 15.1335 7.82016Z" fill="#292D32"/>
<path d="M9.84006 15.0334C9.60673 15.0334 9.40006 14.8734 9.35339 14.6334C9.30006 14.3601 9.47339 14.1001 9.74006 14.0467C11.9267 13.6001 13.7067 12.0001 14.3801 9.86673C14.4601 9.60006 14.7467 9.45339 15.0067 9.54006C15.2734 9.62006 15.4134 9.90673 15.3334 10.1667C14.5467 12.6467 12.4801 14.5067 9.94006 15.0267C9.90673 15.0267 9.87339 15.0334 9.84006 15.0334Z" fill="#292D32"/>
</svg>
