<svg width="52" height="52" viewBox="0 0 52 52" fill="none" xmlns="http://www.w3.org/2000/svg">
<path d="M35 18.9805C31.67 18.6505 28.32 18.4805 24.98 18.4805C23 18.4805 21.02 18.5805 19.04 18.7805L17 18.9805" stroke="#292D32" stroke-width="1.5" stroke-linecap="round" stroke-linejoin="round"/>
<path d="M22.5 17.97L22.72 16.66C22.88 15.71 23 15 24.69 15H27.31C29 15 29.13 15.75 29.28 16.67L29.5 17.97" stroke="#292D32" stroke-width="1.5" stroke-linecap="round" stroke-linejoin="round"/>
<path d="M32.8499 22.1396L32.1999 32.2096C32.0899 33.7796 31.9999 34.9996 29.2099 34.9996H22.7899C19.9999 34.9996 19.9099 33.7796 19.7999 32.2096L19.1499 22.1396" stroke="#292D32" stroke-width="1.5" stroke-linecap="round" stroke-linejoin="round"/>
<path d="M24.3301 29.5H27.6601" stroke="#292D32" stroke-width="1.5" stroke-linecap="round" stroke-linejoin="round"/>
<path d="M23.5 25.5H28.5" stroke="#292D32" stroke-width="1.5" stroke-linecap="round" stroke-linejoin="round"/>
<rect x="0.5" y="0.5" width="51" height="51" rx="25.5" stroke="#F5F5F7"/>
</svg>
