<svg width="288" height="288" viewBox="0 0 288 288" fill="none" xmlns="http://www.w3.org/2000/svg">
<g clip-path="url(#clip0_2326_439249)">
<path d="M132.701 234.402C196.049 234.402 247.402 183.049 247.402 119.701C247.402 56.3534 196.049 5 132.701 5C69.3534 5 18 56.3534 18 119.701C18 183.049 69.3534 234.402 132.701 234.402Z" fill="url(#paint0_linear_2326_439249)"/>
<path d="M241.787 102.915C241.787 102.915 200.646 110.986 202.242 180.418C203.659 242.081 129.593 225.387 105.683 204.423C74.7103 177.266 80.3287 121.427 45.4646 119.883C10.6005 118.34 21.0019 39.521 73.4474 38.7871C138.688 37.874 117.46 2.95622 134.181 -15.8045C146.182 -29.2693 204.276 -27.0962 212.529 13.7557C219.474 48.1319 234.061 45.7598 245.021 48.0822C260.827 51.4314 276.585 90.9783 241.787 102.915Z" fill="url(#paint1_linear_2326_439249)"/>
<g filter="url(#filter0_d_2326_439249)">
<path d="M171.368 49.7267L26.365 79.6525C21.7451 80.606 18.7729 85.124 19.7264 89.7439L38.4031 180.24C39.3565 184.86 43.8746 187.833 48.4944 186.879L193.498 156.953C198.118 156 201.09 151.482 200.136 146.862L181.46 56.3653C180.506 51.7455 175.988 48.7732 171.368 49.7267Z" fill="#AA75FF"/>
<path d="M167.114 60.5898L150.414 64.0364C147.642 64.6085 145.859 67.3193 146.431 70.0913L149.877 86.7915C150.45 89.5634 153.16 91.3467 155.932 90.7747L172.633 87.3281C175.404 86.756 177.188 84.0452 176.616 81.2732L173.169 64.573C172.597 61.8011 169.886 60.0178 167.114 60.5898Z" fill="white"/>
<path d="M100.269 131.085L43.9205 142.714C43.7357 142.752 43.6169 142.933 43.655 143.118L45.3598 151.378C45.3979 151.563 45.5786 151.682 45.7634 151.644L102.112 140.015C102.297 139.976 102.416 139.796 102.378 139.611L100.673 131.35C100.635 131.166 100.454 131.047 100.269 131.085Z" fill="white"/>
<path d="M127.931 143.352L47.4762 159.956C47.2914 159.994 47.1725 160.175 47.2107 160.36L48.9154 168.62C48.9536 168.805 49.1343 168.924 49.3191 168.886L129.774 152.282C129.959 152.244 130.078 152.063 130.04 151.878L128.335 143.618C128.297 143.433 128.116 143.314 127.931 143.352Z" fill="white"/>
<g filter="url(#filter1_d_2326_439249)">
<path d="M198.047 180.422C211.484 180.422 222.377 169.529 222.377 156.092C222.377 142.655 211.484 131.762 198.047 131.762C184.609 131.762 173.716 142.655 173.716 156.092C173.716 169.529 184.609 180.422 198.047 180.422Z" fill="#FCB332"/>
<path d="M198.047 180.422C211.484 180.422 222.377 169.529 222.377 156.092C222.377 142.655 211.484 131.762 198.047 131.762C184.609 131.762 173.716 142.655 173.716 156.092C173.716 169.529 184.609 180.422 198.047 180.422Z" stroke="white" stroke-width="15" stroke-miterlimit="10"/>
</g>
<path d="M207.418 154.053H200.489C200.436 154.053 200.383 154.042 200.333 154.022C200.284 154.001 200.239 153.971 200.201 153.933C200.163 153.896 200.133 153.851 200.113 153.801C200.092 153.752 200.082 153.699 200.082 153.645V146.717C200.082 146.177 199.867 145.659 199.485 145.276C199.103 144.894 198.584 144.68 198.044 144.68C197.504 144.68 196.985 144.894 196.603 145.276C196.221 145.659 196.006 146.177 196.006 146.717V153.645C196.006 153.699 195.996 153.752 195.975 153.801C195.955 153.851 195.925 153.896 195.887 153.933C195.849 153.971 195.804 154.001 195.755 154.022C195.705 154.042 195.652 154.053 195.599 154.053H188.671C188.134 154.058 187.621 154.274 187.243 154.656C186.864 155.038 186.652 155.553 186.652 156.09C186.652 156.628 186.864 157.143 187.243 157.525C187.621 157.906 188.134 158.123 188.671 158.128H195.599C195.708 158.128 195.811 158.171 195.888 158.248C195.964 158.324 196.007 158.428 196.007 158.536V165.464C196.007 166.004 196.222 166.522 196.604 166.905C196.986 167.287 197.504 167.501 198.045 167.501C198.585 167.501 199.103 167.287 199.485 166.905C199.868 166.522 200.082 166.004 200.082 165.464V158.536C200.082 158.428 200.125 158.324 200.202 158.248C200.278 158.171 200.382 158.128 200.49 158.128H207.418C207.955 158.123 208.469 157.906 208.847 157.525C209.225 157.143 209.437 156.628 209.437 156.09C209.437 155.553 209.225 155.038 208.847 154.656C208.469 154.274 207.955 154.058 207.418 154.053Z" fill="white"/>
</g>
<path d="M34.4351 54.3972C34.7415 53.128 36.5468 53.128 36.8532 54.3972L37.8843 58.6689C37.9938 59.1225 38.348 59.4766 38.8015 59.5861L43.0732 60.6172C44.3424 60.9236 44.3424 62.7289 43.0732 63.0353L38.8015 64.0665C38.348 64.176 37.9938 64.5301 37.8843 64.9836L36.8532 69.2553C36.5468 70.5245 34.7415 70.5245 34.4351 69.2553L33.4039 64.9836C33.2945 64.5301 32.9403 64.176 32.4868 64.0665L28.2151 63.0353C26.9459 62.7289 26.9459 60.9236 28.2151 60.6172L32.4868 59.5861C32.9403 59.4766 33.2945 59.1225 33.4039 58.6689L34.4351 54.3972Z" fill="#AA75FF"/>
<path d="M27.1683 187.432C26.5429 187.04 25.7712 186.958 25.0777 187.212L0.732322 196.113C-0.0457981 196.398 -0.234298 197.412 0.389683 197.957C0.802392 198.318 1.37898 198.424 1.89318 198.235L27.0069 188.984C27.6842 188.734 27.7797 187.815 27.1683 187.432Z" fill="#C9DFFF"/>
<path d="M231.39 48.2051C231.39 50.5315 229.504 52.4175 227.177 52.4175C224.851 52.4175 222.965 50.5315 222.965 48.2051C222.965 45.8786 224.851 43.9926 227.177 43.9926C229.504 43.9926 231.39 45.8786 231.39 48.2051Z" stroke="url(#paint2_linear_2326_439249)" stroke-width="2.2977"/>
<circle cx="77.8271" cy="204.449" r="4.21246" stroke="url(#paint3_linear_2326_439249)" stroke-width="2.2977"/>
<circle cx="207.264" cy="212.873" r="4.21246" stroke="url(#paint4_linear_2326_439249)" stroke-width="2.2977"/>
<path d="M199.713 20.4022C200.166 18.5264 202.834 18.5264 203.287 20.4022L206.001 31.6439C206.162 32.3143 206.686 32.8376 207.356 32.9995L218.598 35.7132C220.474 36.166 220.474 38.834 218.598 39.2868L207.356 42.0005C206.686 42.1624 206.162 42.6857 206.001 43.3561L203.287 54.5978C202.834 56.4736 200.166 56.4736 199.713 54.5978L196.999 43.3561C196.838 42.6857 196.314 42.1624 195.644 42.0005L184.402 39.2868C182.526 38.834 182.526 36.166 184.402 35.7132L195.644 32.9995C196.314 32.8376 196.838 32.3143 196.999 31.6439L199.713 20.4022Z" fill="#AA75FF"/>
<path d="M245.591 185.762C246.044 183.886 248.712 183.886 249.165 185.762L250.689 192.075C250.85 192.745 251.374 193.268 252.044 193.43L258.357 194.954C260.233 195.407 260.233 198.075 258.357 198.528L252.044 200.052C251.374 200.214 250.85 200.737 250.689 201.407L249.165 207.72C248.712 209.596 246.044 209.596 245.591 207.72L244.067 201.407C243.905 200.737 243.382 200.214 242.711 200.052L236.398 198.528C234.522 198.075 234.522 195.407 236.398 194.954L242.711 193.43C243.382 193.268 243.905 192.745 244.067 192.075L245.591 185.762Z" fill="#AA75FF"/>
<path d="M49.8007 170.985C50.9651 170.798 51.8946 171.942 51.4739 173.044L48.6343 180.479C48.2136 181.581 46.7581 181.814 46.0145 180.899L40.9948 174.722C40.2512 173.807 40.777 172.43 41.9414 172.243L49.8007 170.985Z" fill="#4F00CF"/>
<path d="M32.1366 223.921C31.8453 222.778 32.9002 221.748 34.0354 222.067L41.698 224.221C42.8333 224.54 43.1974 225.968 42.3535 226.792L36.6574 232.351C35.8135 233.175 34.3945 232.776 34.1031 231.633L32.1366 223.921Z" fill="#D3B8FF"/>
<path d="M80.141 42.9557C79.7041 42.928 79.2949 42.7318 78.9996 42.4086C78.7043 42.0853 78.5459 41.6601 78.5577 41.2224L78.6793 24.7293C78.6765 24.4999 78.72 24.2724 78.8071 24.0601C78.8942 23.8479 79.0231 23.6554 79.1862 23.4941C79.3493 23.3328 79.5431 23.2059 79.7563 23.1211C79.9694 23.0363 80.1974 22.9953 80.4268 23.0004L81.7452 23.0594C81.9737 23.0744 82.1968 23.1356 82.4011 23.2391C82.6054 23.3426 82.7866 23.4864 82.9339 23.6618C83.0812 23.8372 83.1915 24.0405 83.2581 24.2596C83.3248 24.4788 83.3464 24.7091 83.3217 24.9368L81.8818 41.3709C81.8516 41.8085 81.6538 42.2175 81.3295 42.5127C81.0052 42.808 80.5795 42.9667 80.141 42.9557Z" fill="#AA75FF"/>
<path d="M72.4304 44.7431C72.1612 44.8363 71.8659 44.8187 71.6097 44.6941C71.3534 44.5696 71.1571 44.3484 71.0639 44.0791L67.363 33.998C67.2556 33.7114 67.2663 33.3939 67.3928 33.1152C67.5193 32.8365 67.7511 32.6194 68.0375 32.5115L68.8585 32.2207C68.9994 32.1722 69.1488 32.1535 69.2973 32.1657C69.4458 32.1779 69.5902 32.2208 69.7213 32.2916C69.8524 32.3624 69.9674 32.4597 70.0591 32.5772C70.1507 32.6947 70.217 32.8299 70.2537 32.9743L73.1338 43.3461C73.2135 43.6247 73.1854 43.9232 73.0551 44.182C72.9248 44.4409 72.7018 44.6412 72.4304 44.7431Z" fill="#AA75FF"/>
<path d="M68.3704 50.8499C67.8279 51.5912 66.6685 51.6377 65.7421 50.9551L49.2927 38.8358C48.3101 38.1119 47.9708 36.8532 48.5462 36.0669L49.3482 34.971C49.9238 34.1846 51.1822 34.187 52.1172 34.9767L67.7642 48.1919C68.6455 48.9361 68.9128 50.1086 68.3704 50.8499Z" fill="#AA75FF"/>
</g>
<defs>
<filter id="filter0_d_2326_439249" x="15.5483" y="49.5488" width="218.329" height="146.373" filterUnits="userSpaceOnUse" color-interpolation-filters="sRGB">
<feFlood flood-opacity="0" result="BackgroundImageFix"/>
<feColorMatrix in="SourceAlpha" type="matrix" values="0 0 0 0 0 0 0 0 0 0 0 0 0 0 0 0 0 0 127 0" result="hardAlpha"/>
<feOffset dy="4"/>
<feGaussianBlur stdDeviation="2"/>
<feComposite in2="hardAlpha" operator="out"/>
<feColorMatrix type="matrix" values="0 0 0 0 0.09375 0 0 0 0 0.159375 0 0 0 0 0.75 0 0 0 0.25 0"/>
<feBlend mode="normal" in2="BackgroundImageFix" result="effect1_dropShadow_2326_439249"/>
<feBlend mode="normal" in="SourceGraphic" in2="effect1_dropShadow_2326_439249" result="shape"/>
</filter>
<filter id="filter1_d_2326_439249" x="160.216" y="116.262" width="71.6606" height="71.6602" filterUnits="userSpaceOnUse" color-interpolation-filters="sRGB">
<feFlood flood-opacity="0" result="BackgroundImageFix"/>
<feColorMatrix in="SourceAlpha" type="matrix" values="0 0 0 0 0 0 0 0 0 0 0 0 0 0 0 0 0 0 127 0" result="hardAlpha"/>
<feOffset dx="-2" dy="-4"/>
<feGaussianBlur stdDeviation="2"/>
<feComposite in2="hardAlpha" operator="out"/>
<feColorMatrix type="matrix" values="0 0 0 0 0.145208 0 0 0 0 0.300263 0 0 0 0 0.85 0 0 0 0.25 0"/>
<feBlend mode="normal" in2="BackgroundImageFix" result="effect1_dropShadow_2326_439249"/>
<feBlend mode="normal" in="SourceGraphic" in2="effect1_dropShadow_2326_439249" result="shape"/>
</filter>
<linearGradient id="paint0_linear_2326_439249" x1="131.817" y1="-32.3495" x2="134.167" y2="370.463" gradientUnits="userSpaceOnUse">
<stop stop-color="white" stop-opacity="0"/>
<stop offset="1" stop-color="#D3B8FF"/>
</linearGradient>
<linearGradient id="paint1_linear_2326_439249" x1="307.558" y1="187.122" x2="47.9841" y2="37.257" gradientUnits="userSpaceOnUse">
<stop stop-color="#9DB3FF"/>
<stop offset="0.0001" stop-color="#D3F5FA" stop-opacity="0.682292"/>
<stop offset="1" stop-color="#F7E3B1" stop-opacity="0"/>
</linearGradient>
<linearGradient id="paint2_linear_2326_439249" x1="220.587" y1="44.8542" x2="237.341" y2="59.3745" gradientUnits="userSpaceOnUse">
<stop stop-color="#94BFFF"/>
<stop offset="1" stop-color="#4C94FE"/>
</linearGradient>
<linearGradient id="paint3_linear_2326_439249" x1="71.2372" y1="201.098" x2="87.9913" y2="215.619" gradientUnits="userSpaceOnUse">
<stop stop-color="#94BFFF"/>
<stop offset="1" stop-color="#4C94FE"/>
</linearGradient>
<linearGradient id="paint4_linear_2326_439249" x1="200.674" y1="209.522" x2="217.428" y2="224.042" gradientUnits="userSpaceOnUse">
<stop stop-color="#94BFFF"/>
<stop offset="1" stop-color="#4C94FE"/>
</linearGradient>
<clipPath id="clip0_2326_439249">
<rect width="288" height="288" fill="white"/>
</clipPath>
</defs>
</svg>
