<svg width="270" height="270" viewBox="0 0 270 270" fill="none" xmlns="http://www.w3.org/2000/svg">
<g clip-path="url(#clip0_2326_439293)">
<path d="M190.251 205.106C190.251 205.106 157.838 183.324 113.157 230.107C73.4761 271.655 35.6877 211.875 33.7473 182.319C31.2341 144.032 71.7137 110.953 49.7669 86.9734C27.8201 62.9935 86.5854 17.93 121.612 51.99C165.184 94.3593 174.201 57.379 197.572 56.0356C214.344 55.0711 251.177 94.7666 229.706 127.11C211.638 154.326 222.808 162.371 228.497 171.12C236.702 183.736 221.034 220.164 190.251 205.106Z" fill="#F8F5FF"/>
<g filter="url(#filter0_d_2326_439293)">
<path d="M57.0874 189.934L199.93 189.703C201.19 189.701 202.438 189.451 203.601 188.967C204.765 188.483 205.822 187.774 206.711 186.882C207.601 185.989 208.306 184.93 208.787 183.765C209.267 182.6 209.513 181.351 209.511 180.091L209.369 91.8576C209.367 90.5973 209.116 89.3497 208.632 88.1862C208.148 87.0226 207.439 85.9658 206.547 85.0761C205.654 84.1864 204.595 83.4812 203.43 83.0008C202.265 82.5204 201.017 82.2742 199.756 82.2762L55.9581 82.295C51.0597 82.295 47.141 77.6066 47.3172 73.5879V82.5223L47.4752 180.353C47.4771 181.613 47.7273 182.861 48.2114 184.024C48.6955 185.188 49.4041 186.245 50.2967 187.134C51.1893 188.024 52.2484 188.729 53.4135 189.21C54.5787 189.69 55.8271 189.937 57.0874 189.934Z" fill="#D3B8FF"/>
<path d="M154.576 117.486L209.625 117.397C211.541 117.394 213.379 118.152 214.736 119.504C216.093 120.857 216.857 122.693 216.86 124.608L216.897 147.313C216.9 149.229 216.142 151.068 214.79 152.424C213.437 153.781 211.601 154.545 209.685 154.548L154.637 154.638C154.27 154.638 153.918 154.493 153.659 154.235C153.399 153.976 153.253 153.624 153.252 153.258L153.197 118.87C153.196 118.504 153.341 118.152 153.6 117.892C153.859 117.633 154.21 117.487 154.576 117.486Z" fill="#AA75FF"/>
<path d="M172.455 144.539C177.152 144.539 180.96 140.731 180.96 136.034C180.96 131.337 177.152 127.529 172.455 127.529C167.758 127.529 163.95 131.337 163.95 136.034C163.95 140.731 167.758 144.539 172.455 144.539Z" fill="white"/>
<path d="M54.5452 63.8086H177.933C179.849 63.8086 181.686 64.5696 183.041 65.9243C184.396 67.2789 185.157 69.1163 185.157 71.032V82.2955H56.6049C54.1429 82.2955 51.7817 81.3175 50.0407 79.5766C48.2998 77.8356 47.3218 75.4745 47.3218 73.0124V71.032C47.3218 69.1163 48.0828 67.2789 49.4375 65.9243C50.7921 64.5696 52.6294 63.8086 54.5452 63.8086Z" fill="#AA75FF"/>
</g>
<path d="M150.595 71.926C150.427 71.9261 150.264 71.8679 150.135 71.7612C150.005 71.6545 149.917 71.5061 149.885 71.3414C149.853 71.1767 149.879 71.006 149.959 70.8586C150.039 70.7112 150.168 70.5963 150.324 70.5336C150.353 70.5216 151.065 70.2356 152.37 69.7554C152.55 69.6892 152.748 69.6972 152.922 69.7776C153.096 69.8579 153.231 70.0041 153.297 70.1839C153.363 70.3637 153.355 70.5624 153.275 70.7363C153.195 70.9102 153.048 71.0451 152.869 71.1112C151.584 71.5838 150.871 71.8707 150.864 71.8734C150.779 71.9081 150.687 71.926 150.595 71.926Z" fill="#4F00CF"/>
<path d="M66.143 210.441C65.9771 210.441 65.8161 210.384 65.6873 210.279C65.5584 210.175 65.4694 210.029 65.4353 209.867C65.4012 209.704 65.4241 209.535 65.5001 209.388C65.576 209.24 65.7005 209.123 65.8525 209.057C66.5222 208.763 67.2036 208.479 67.8778 208.213C67.966 208.178 68.0602 208.161 68.1551 208.162C68.2499 208.164 68.3436 208.184 68.4306 208.222C68.5176 208.259 68.5964 208.314 68.6624 208.382C68.7283 208.45 68.7802 208.531 68.8151 208.619C68.85 208.707 68.8671 208.801 68.8656 208.896C68.864 208.991 68.8438 209.085 68.8061 209.172C68.7684 209.259 68.7139 209.338 68.6457 209.403C68.5776 209.469 68.4971 209.521 68.4089 209.556C67.7512 209.816 67.0862 210.094 66.4327 210.38C66.3414 210.42 66.2427 210.441 66.143 210.441Z" fill="#4F00CF"/>
<path d="M57.7692 211.172C58.869 210.895 59.3576 209.073 58.8606 207.104C58.3636 205.134 57.0691 203.763 55.9694 204.04C54.8696 204.318 54.3809 206.139 54.878 208.109C55.375 210.078 56.6694 211.45 57.7692 211.172Z" fill="#FFE5A2"/>
<path d="M61.938 221.651C62.9978 221.247 63.2703 219.381 62.5467 217.483C61.8231 215.585 60.3773 214.374 59.3174 214.778C58.2576 215.182 57.9851 217.048 58.7087 218.946C59.4323 220.844 60.8781 222.055 61.938 221.651Z" fill="#FFE5A2"/>
<path d="M58.2546 214.629C59.0935 214.629 59.7734 213.949 59.7734 213.111C59.7734 212.272 59.0935 211.592 58.2546 211.592C57.4158 211.592 56.7358 212.272 56.7358 213.111C56.7358 213.949 57.4158 214.629 58.2546 214.629Z" fill="#E5820E"/>
<path d="M32.9421 51.4095C33.2275 50.2272 34.9091 50.2272 35.1944 51.4095L36.1549 55.3885C36.2569 55.8109 36.5868 56.1408 37.0093 56.2428L40.9883 57.2033C42.1705 57.4887 42.1705 59.1703 40.9883 59.4557L37.0093 60.4162C36.5868 60.5182 36.2569 60.848 36.1549 61.2705L35.1944 65.2495C34.9091 66.4317 33.2275 66.4317 32.9421 65.2495L31.9816 61.2705C31.8796 60.848 31.5497 60.5182 31.1272 60.4162L27.1482 59.4557C25.966 59.1703 25.966 57.4887 27.1482 57.2033L31.1272 56.2428C31.5497 56.1408 31.8796 55.8109 31.9816 55.3885L32.9421 51.4095Z" fill="#AA75FF"/>
<path d="M85.3324 96.1991C84.7498 95.8336 84.031 95.758 83.3851 95.9941L60.7078 104.286C59.983 104.551 59.8075 105.496 60.3887 106.003C60.7731 106.339 61.3102 106.438 61.7892 106.262L85.182 97.6444C85.8129 97.412 85.9019 96.5563 85.3324 96.1991Z" fill="#C9DFFF"/>
<path d="M216.971 45.6404C216.971 48.1224 214.959 50.1344 212.477 50.1344C209.995 50.1344 207.983 48.1224 207.983 45.6404C207.983 43.1585 209.995 41.1465 212.477 41.1465C214.959 41.1465 216.971 43.1585 216.971 45.6404Z" stroke="#FCB332"/>
<circle cx="154.996" cy="216.994" r="4.49394" stroke="#FCB332"/>
<circle cx="193.935" cy="199.025" r="4.49394" stroke="#AA75FF"/>
<path d="M28.4367 207.901C28.8585 206.154 31.3437 206.154 31.7655 207.901L33.185 213.781C33.3357 214.406 33.8233 214.893 34.4476 215.044L40.3282 216.464C42.0755 216.885 42.0755 219.371 40.3282 219.792L34.4476 221.212C33.8233 221.363 33.3357 221.85 33.185 222.475L31.7655 228.355C31.3437 230.102 28.8585 230.102 28.4367 228.355L27.0171 222.475C26.8664 221.85 26.3789 221.363 25.7545 221.212L19.8739 219.792C18.1267 219.371 18.1267 216.885 19.8739 216.464L25.7545 215.044C26.3789 214.893 26.8664 214.406 27.0171 213.781L28.4367 207.901Z" fill="#D3B8FF"/>
<path d="M229.636 173.772C230.058 172.025 232.543 172.025 232.965 173.772L234.384 179.652C234.535 180.277 235.022 180.764 235.647 180.915L241.527 182.335C243.275 182.756 243.275 185.242 241.527 185.663L235.647 187.083C235.022 187.234 234.535 187.721 234.384 188.346L232.965 194.226C232.543 195.973 230.058 195.973 229.636 194.226L228.216 188.346C228.066 187.721 227.578 187.234 226.954 187.083L221.073 185.663C219.326 185.242 219.326 182.756 221.073 182.335L226.954 180.915C227.578 180.764 228.066 180.277 228.216 179.652L229.636 173.772Z" fill="#FCB332"/>
<path d="M47.2611 160.007C48.3456 159.834 49.2115 160.899 48.8196 161.925L46.1746 168.852C45.7827 169.878 44.427 170.095 43.7343 169.242L39.0586 163.489C38.3659 162.636 38.8557 161.354 39.9403 161.18L47.2611 160.007Z" fill="#FCB332"/>
<path d="M232.462 89.402C232.19 88.3377 233.173 87.3787 234.23 87.6759L241.368 89.6816C242.425 89.9788 242.765 91.3092 241.979 92.0764L236.673 97.2548C235.887 98.022 234.565 97.6506 234.294 96.5862L232.462 89.402Z" fill="url(#paint0_linear_2326_439293)"/>
</g>
<defs>
<filter id="filter0_d_2326_439293" x="44.9236" y="63.8086" width="174.361" height="130.901" filterUnits="userSpaceOnUse" color-interpolation-filters="sRGB">
<feFlood flood-opacity="0" result="BackgroundImageFix"/>
<feColorMatrix in="SourceAlpha" type="matrix" values="0 0 0 0 0 0 0 0 0 0 0 0 0 0 0 0 0 0 127 0" result="hardAlpha"/>
<feOffset dy="2.38791"/>
<feGaussianBlur stdDeviation="1.19396"/>
<feComposite in2="hardAlpha" operator="out"/>
<feColorMatrix type="matrix" values="0 0 0 0 0.65 0 0 0 0 0.751613 0 0 0 0 1 0 0 0 1 0"/>
<feBlend mode="normal" in2="BackgroundImageFix" result="effect1_dropShadow_2326_439293"/>
<feBlend mode="normal" in="SourceGraphic" in2="effect1_dropShadow_2326_439293" result="shape"/>
</filter>
<linearGradient id="paint0_linear_2326_439293" x1="231.851" y1="87.0073" x2="241.817" y2="97.2184" gradientUnits="userSpaceOnUse">
<stop stop-color="#FFA31A"/>
<stop offset="1" stop-color="#3A87FE"/>
</linearGradient>
<clipPath id="clip0_2326_439293">
<rect width="268.266" height="268.266" fill="white" transform="translate(0.869629 0.738281)"/>
</clipPath>
</defs>
</svg>
