<svg width="134" height="134" viewBox="0 0 134 134" fill="none" xmlns="http://www.w3.org/2000/svg">
<g clip-path="url(#clip0_1892_94250)">
<path d="M188 -21.4871V154.487C188 165.81 182.96 175 176.75 175H11.2498C5.04014 175 0 165.81 0 154.487V-21.4871C0 -32.8098 5.04014 -42 11.2498 -42H176.756C178.978 -42 181.055 -40.822 182.793 -38.7809C185.923 -35.1556 188 -28.758 188 -21.4871Z" fill="url(#paint0_linear_1892_94250)"/>
<path d="M188 24.8287V154.486C188 165.809 182.966 174.989 176.756 174.989H11.2501C5.04043 174.989 0.00585938 165.809 0.00585938 154.486V54.9278C3.24714 49.0786 7.03978 43.6051 11.4562 38.9948C24.9225 24.9099 37.9378 25.8543 63.4169 28.3017C94.1144 31.2466 96.2753 40.8328 117.889 42.0514C126.783 42.5591 134.023 41.3609 140.172 39.3603C160.895 32.5261 169.104 16.2681 185.773 23.7117C186.513 24.0468 187.254 24.4123 188 24.8287Z" fill="url(#paint1_linear_1892_94250)"/>
<path d="M57.9143 -42C54.8512 12.5216 30.3299 55.4566 0 58.2695V-21.4871C0 -32.8098 5.04014 -42 11.2498 -42H57.9143Z" fill="url(#paint2_linear_1892_94250)"/>
<path opacity="0.27" d="M188 152.079V154.476C188 165.799 182.96 174.989 176.75 174.989H11.2498C5.04014 174.989 0 165.799 0 154.476V73.7852C3.11876 70.7591 6.72204 68.4539 10.7597 67.6415C20.116 65.7832 27.4562 72.8916 36.0774 81.4928C52.6124 97.9945 55.2132 111.044 64.5639 121.889C82.5525 142.757 97.3332 122.813 127.864 124.194C150.864 125.25 175.291 138.045 188 152.079Z" fill="url(#paint3_linear_1892_94250)"/>
<path opacity="0.53" d="M188 -21.4871V154.487C188 165.81 182.96 175 176.75 175H11.2498C5.04014 175 0 165.81 0 154.487V-21.4871C0 -32.8098 5.04014 -42 11.2498 -42H176.756C178.978 -42 181.055 -40.822 182.793 -38.7809C185.923 -35.1556 188 -28.758 188 -21.4871Z" fill="url(#paint4_linear_1892_94250)"/>
<path d="M48.3971 71.016H44.2051L43.5331 73H40.6691L44.7331 61.768H47.9011L51.9651 73H49.0691L48.3971 71.016ZM47.6931 68.904L46.3011 64.792L44.9251 68.904H47.6931ZM52.178 68.52C52.178 67.6027 52.3487 66.7973 52.69 66.104C53.042 65.4107 53.5167 64.8773 54.114 64.504C54.7113 64.1307 55.378 63.944 56.114 63.944C56.7007 63.944 57.234 64.0667 57.714 64.312C58.2047 64.5573 58.5887 64.888 58.866 65.304V61.16H61.602V73H58.866V71.72C58.61 72.1467 58.242 72.488 57.762 72.744C57.2927 73 56.7433 73.128 56.114 73.128C55.378 73.128 54.7113 72.9413 54.114 72.568C53.5167 72.184 53.042 71.6453 52.69 70.952C52.3487 70.248 52.178 69.4373 52.178 68.52ZM58.866 68.536C58.866 67.8533 58.674 67.3147 58.29 66.92C57.9167 66.5253 57.458 66.328 56.914 66.328C56.37 66.328 55.906 66.5253 55.522 66.92C55.1487 67.304 54.962 67.8373 54.962 68.52C54.962 69.2027 55.1487 69.7467 55.522 70.152C55.906 70.5467 56.37 70.744 56.914 70.744C57.458 70.744 57.9167 70.5467 58.29 70.152C58.674 69.7573 58.866 69.2187 58.866 68.536ZM74.4934 63.976C75.6027 63.976 76.4827 64.312 77.1334 64.984C77.7947 65.656 78.1254 66.5893 78.1254 67.784V73H75.4054V68.152C75.4054 67.576 75.2507 67.1333 74.9414 66.824C74.6427 66.504 74.2267 66.344 73.6934 66.344C73.16 66.344 72.7387 66.504 72.4294 66.824C72.1307 67.1333 71.9814 67.576 71.9814 68.152V73H69.2614V68.152C69.2614 67.576 69.1067 67.1333 68.7974 66.824C68.4987 66.504 68.0827 66.344 67.5494 66.344C67.016 66.344 66.5947 66.504 66.2854 66.824C65.9867 67.1333 65.8374 67.576 65.8374 68.152V73H63.1014V64.072H65.8374V65.192C66.1147 64.8187 66.4774 64.5253 66.9254 64.312C67.3734 64.088 67.88 63.976 68.4454 63.976C69.1174 63.976 69.7147 64.12 70.2374 64.408C70.7707 64.696 71.1867 65.1067 71.4854 65.64C71.7947 65.1493 72.216 64.7493 72.7494 64.44C73.2827 64.1307 73.864 63.976 74.4934 63.976ZM80.9349 63.144C80.4549 63.144 80.0602 63.0053 79.7509 62.728C79.4522 62.44 79.3029 62.088 79.3029 61.672C79.3029 61.2453 79.4522 60.8933 79.7509 60.616C80.0602 60.328 80.4549 60.184 80.9349 60.184C81.4042 60.184 81.7882 60.328 82.0869 60.616C82.3962 60.8933 82.5509 61.2453 82.5509 61.672C82.5509 62.088 82.3962 62.44 82.0869 62.728C81.7882 63.0053 81.4042 63.144 80.9349 63.144ZM82.2949 64.072V73H79.5589V64.072H82.2949ZM89.2376 63.976C90.283 63.976 91.115 64.3173 91.7336 65C92.363 65.672 92.6776 66.6 92.6776 67.784V73H89.9576V68.152C89.9576 67.5547 89.803 67.0907 89.4936 66.76C89.1843 66.4293 88.7683 66.264 88.2456 66.264C87.723 66.264 87.307 66.4293 86.9976 66.76C86.6883 67.0907 86.5336 67.5547 86.5336 68.152V73H83.7976V64.072H86.5336V65.256C86.811 64.8613 87.1843 64.552 87.6536 64.328C88.123 64.0933 88.651 63.976 89.2376 63.976Z" fill="white"/>
</g>
<defs>
<linearGradient id="paint0_linear_1892_94250" x1="20.5461" y1="200.436" x2="246.427" y2="76.5573" gradientUnits="userSpaceOnUse">
<stop stop-color="#1B1464"/>
<stop offset="1" stop-color="#C425FC"/>
</linearGradient>
<linearGradient id="paint1_linear_1892_94250" x1="33.5" y1="175" x2="163.522" y2="138.887" gradientUnits="userSpaceOnUse">
<stop stop-color="#8500A7"/>
<stop offset="1" stop-color="#FF838A"/>
</linearGradient>
<linearGradient id="paint2_linear_1892_94250" x1="-6.51086" y1="46.3939" x2="73.2179" y2="12.3259" gradientUnits="userSpaceOnUse">
<stop stop-color="#3F02ED"/>
<stop offset="1" stop-color="#F20686"/>
</linearGradient>
<linearGradient id="paint3_linear_1892_94250" x1="148.5" y1="214.5" x2="14.8462" y2="101.798" gradientUnits="userSpaceOnUse">
<stop stop-color="#461464"/>
<stop offset="0.924773" stop-color="#9C83FF"/>
</linearGradient>
<linearGradient id="paint4_linear_1892_94250" x1="20.5461" y1="200.436" x2="246.427" y2="76.5573" gradientUnits="userSpaceOnUse">
<stop stop-color="#0E0B7B"/>
<stop offset="1" stop-color="#C8B829"/>
</linearGradient>
<clipPath id="clip0_1892_94250">
<rect width="134" height="134" rx="10" fill="white"/>
</clipPath>
</defs>
</svg>
