<svg width="36" height="36" viewBox="0 0 36 36" fill="none" xmlns="http://www.w3.org/2000/svg">
<path d="M47 -2.27353V38.2735C47 40.8824 45.4451 43 43.5293 43H-7.52931C-9.44506 43 -11 40.8824 -11 38.2735V-2.27353C-11 -4.88245 -9.44506 -7 -7.52931 -7H43.531C44.2166 -7 44.8574 -6.72858 45.3935 -6.25827C46.3591 -5.42295 47 -3.94885 47 -2.27353Z" fill="url(#paint0_linear_3773_211261)"/>
<path d="M47.0002 8.40035V38.2754C47.0002 40.8843 45.447 42.9995 43.5313 42.9995H-7.52908C-9.44483 42.9995 -10.998 40.8843 -10.998 38.2754V15.3356C-9.99808 13.9879 -8.82801 12.7267 -7.46551 11.6644C-3.31099 8.41907 0.704353 8.63667 8.56495 9.20057C18.0355 9.87913 18.7021 12.0879 25.3703 12.3687C28.1142 12.4857 30.3478 12.2096 32.2447 11.7487C38.6379 10.1739 41.1705 6.42787 46.313 8.14297C46.5415 8.22018 46.77 8.30442 47.0002 8.40035Z" fill="url(#paint1_linear_3773_211261)"/>
<path d="M6.86717 -7C5.92218 5.56259 -1.64289 15.4554 -11 16.1036V-2.27353C-11 -4.88245 -9.44506 -7 -7.52931 -7H6.86717Z" fill="url(#paint2_linear_3773_211261)"/>
<path opacity="0.27" d="M47 37.7197V38.2719C47 40.8808 45.4451 42.9984 43.5293 42.9984H-7.52931C-9.44506 42.9984 -11 40.8808 -11 38.2719V19.6795C-10.0378 18.9823 -8.92618 18.4511 -7.68051 18.2639C-4.794 17.8357 -2.52946 19.4736 0.130253 21.4555C5.23148 25.2577 6.03386 28.2644 8.91865 30.7633C14.4683 35.5717 19.0283 30.9763 28.4473 31.2945C35.5433 31.5378 43.0792 34.486 47 37.7197Z" fill="url(#paint3_linear_3773_211261)"/>
<path opacity="0.53" d="M47 -2.27353V38.2735C47 40.8824 45.445 43 43.5293 43H-7.52931C-9.44506 43 -11 40.8824 -11 38.2735V-2.27353C-11 -4.88245 -9.44506 -7 -7.52931 -7H43.531C44.2166 -7 44.8574 -6.72858 45.3935 -6.25827C46.3591 -5.42295 47 -3.94885 47 -2.27353Z" fill="url(#paint4_linear_3773_211261)"/>
<path d="M14.3959 22.016H10.2039L9.53187 24H6.66787L10.7319 12.768H13.8999L17.9639 24H15.0679L14.3959 22.016ZM13.6919 19.904L12.2999 15.792L10.9239 19.904H13.6919ZM18.1768 19.52C18.1768 18.6027 18.3474 17.7973 18.6888 17.104C19.0408 16.4107 19.5154 15.8773 20.1128 15.504C20.7101 15.1307 21.3768 14.944 22.1128 14.944C22.6994 14.944 23.2328 15.0667 23.7128 15.312C24.2034 15.5573 24.5874 15.888 24.8648 16.304V12.16H27.6008V24H24.8648V22.72C24.6088 23.1467 24.2408 23.488 23.7608 23.744C23.2914 24 22.7421 24.128 22.1128 24.128C21.3768 24.128 20.7101 23.9413 20.1128 23.568C19.5154 23.184 19.0408 22.6453 18.6888 21.952C18.3474 21.248 18.1768 20.4373 18.1768 19.52ZM24.8648 19.536C24.8648 18.8533 24.6728 18.3147 24.2888 17.92C23.9154 17.5253 23.4568 17.328 22.9128 17.328C22.3688 17.328 21.9048 17.5253 21.5208 17.92C21.1474 18.304 20.9608 18.8373 20.9608 19.52C20.9608 20.2027 21.1474 20.7467 21.5208 21.152C21.9048 21.5467 22.3688 21.744 22.9128 21.744C23.4568 21.744 23.9154 21.5467 24.2888 21.152C24.6728 20.7573 24.8648 20.2187 24.8648 19.536Z" fill="white"/>
<defs>
<linearGradient id="paint0_linear_3773_211261" x1="-4.6613" y1="48.8609" x2="54.2302" y2="5.61635" gradientUnits="userSpaceOnUse">
<stop stop-color="#1B1464"/>
<stop offset="1" stop-color="#C425FC"/>
</linearGradient>
<linearGradient id="paint1_linear_3773_211261" x1="-0.664748" y1="43.002" x2="37.2932" y2="28.886" gradientUnits="userSpaceOnUse">
<stop stop-color="#8500A7"/>
<stop offset="1" stop-color="#FF838A"/>
</linearGradient>
<linearGradient id="paint2_linear_3773_211261" x1="-13.0087" y1="13.3673" x2="8.9062" y2="0.829205" gradientUnits="userSpaceOnUse">
<stop stop-color="#3F02ED"/>
<stop offset="1" stop-color="#F20686"/>
</linearGradient>
<linearGradient id="paint3_linear_3773_211261" x1="34.8138" y1="52.1023" x2="3.79803" y2="17.084" gradientUnits="userSpaceOnUse">
<stop stop-color="#461464"/>
<stop offset="0.924773" stop-color="#9C83FF"/>
</linearGradient>
<linearGradient id="paint4_linear_3773_211261" x1="-4.6613" y1="48.8609" x2="54.2302" y2="5.61636" gradientUnits="userSpaceOnUse">
<stop stop-color="#0E0B7B"/>
<stop offset="1" stop-color="#C8B829"/>
</linearGradient>
</defs>
</svg>
