<svg width="17" height="17" viewBox="0 0 17 17" fill="none" xmlns="http://www.w3.org/2000/svg">
<g clip-path="url(#clip0_2338_495389)">
<path d="M8.6001 11.5V12.9" stroke="#292D32" stroke-linecap="round" stroke-linejoin="round"/>
<path d="M5.2666 15.1641H11.9333V14.4974C11.9333 13.7641 11.3333 13.1641 10.5999 13.1641H6.59993C5.8666 13.1641 5.2666 13.7641 5.2666 14.4974V15.1641V15.1641Z" stroke="#292D32" stroke-miterlimit="10"/>
<path d="M4.6001 15.1641H12.6001" stroke="#292D32" stroke-linecap="round" stroke-linejoin="round"/>
<path d="M8.50016 11.1693C5.92016 11.1693 3.8335 9.0826 3.8335 6.5026V4.5026C3.8335 3.02927 5.02683 1.83594 6.50016 1.83594H10.5002C11.9735 1.83594 13.1668 3.02927 13.1668 4.5026V6.5026C13.1668 9.0826 11.0802 11.1693 8.50016 11.1693Z" stroke="#292D32" stroke-linecap="round" stroke-linejoin="round"/>
<path d="M4.14653 8.2651C3.64653 8.1051 3.20653 7.81177 2.85986 7.4651C2.25986 6.79844 1.85986 5.99844 1.85986 5.0651C1.85986 4.13177 2.5932 3.39844 3.52653 3.39844H3.95986C3.82653 3.7051 3.75986 4.0451 3.75986 4.39844V6.39844C3.75986 7.0651 3.89986 7.69177 4.14653 8.2651Z" stroke="#292D32" stroke-linecap="round" stroke-linejoin="round"/>
<path d="M12.8535 8.2651C13.3535 8.1051 13.7935 7.81177 14.1402 7.4651C14.7402 6.79844 15.1402 5.99844 15.1402 5.0651C15.1402 4.13177 14.4068 3.39844 13.4735 3.39844H13.0402C13.1735 3.7051 13.2402 4.0451 13.2402 4.39844V6.39844C13.2402 7.0651 13.1002 7.69177 12.8535 8.2651Z" stroke="#292D32" stroke-linecap="round" stroke-linejoin="round"/>
</g>
<defs>
<clipPath id="clip0_2338_495389">
<rect width="16" height="16" fill="white" transform="translate(0.5 0.5)"/>
</clipPath>
</defs>
</svg>
