<svg width="50" height="50" viewBox="0 0 50 50" fill="none" xmlns="http://www.w3.org/2000/svg">
<circle cx="25" cy="25" r="25" fill="#05FF87" fill-opacity="0.1"/>
<g clip-path="url(#clip0_434_538)">
<path d="M27.7439 20.4269H30.4878C31.0883 20.4269 31.683 20.5452 32.2379 20.775C32.7927 21.0048 33.2969 21.3417 33.7215 21.7663C34.1462 22.191 34.483 22.6951 34.7129 23.25C34.9427 23.8048 35.061 24.3995 35.061 25.0001C35.061 25.6006 34.9427 26.1953 34.7129 26.7501C34.483 27.305 34.1462 27.8091 33.7215 28.2338C33.2969 28.6584 32.7927 28.9953 32.2379 29.2251C31.683 29.4549 31.0883 29.5732 30.4878 29.5732H27.7439M22.2561 29.5732H19.5122C18.9116 29.5732 18.3169 29.4549 17.7621 29.2251C17.2073 28.9953 16.7031 28.6584 16.2785 28.2338C15.4208 27.3761 14.939 26.2129 14.939 25.0001C14.939 23.7872 15.4208 22.624 16.2785 21.7663C17.1361 20.9087 18.2993 20.4269 19.5122 20.4269H22.2561" stroke="#05FF87" stroke-width="2" stroke-linecap="round" stroke-linejoin="round"/>
<path d="M21.3415 25H28.6585" stroke="#05FF87" stroke-width="2" stroke-linecap="round" stroke-linejoin="round"/>
</g>
<defs>
<clipPath id="clip0_434_538">
<rect width="21.9512" height="21.9512" fill="white" transform="translate(14.0244 14.0244)"/>
</clipPath>
</defs>
</svg>
