<svg width="34" height="34" viewBox="0 0 34 34" fill="none" xmlns="http://www.w3.org/2000/svg">
<g clip-path="url(#clip0_358_92)">
<path d="M11.2401 11.24H22.7601C22.9298 11.24 23.0926 11.3074 23.2126 11.4274C23.3327 11.5475 23.4001 11.7103 23.4001 11.88V22.12C23.4001 22.2897 23.3327 22.4525 23.2126 22.5725C23.0926 22.6926 22.9298 22.76 22.7601 22.76H11.2401C11.0704 22.76 10.9076 22.6926 10.7875 22.5725C10.6675 22.4525 10.6001 22.2897 10.6001 22.12V11.88C10.6001 11.7103 10.6675 11.5475 10.7875 11.4274C10.9076 11.3074 11.0704 11.24 11.2401 11.24ZM22.1201 13.9523L17.0462 18.4963L11.8801 13.9382V21.48H22.1201V13.9523ZM12.2071 12.52L17.0391 16.7837L21.8014 12.52H12.2071Z" fill="#4F00CE"/>
</g>
<circle cx="17" cy="17" r="16.5" stroke="#4F00CE"/>
<defs>
<clipPath id="clip0_358_92">
<rect width="15.36" height="15.36" fill="white" transform="translate(9.32007 9.32001)"/>
</clipPath>
</defs>
</svg>
