<svg width="16" height="16" viewBox="0 0 16 16" fill="none" xmlns="http://www.w3.org/2000/svg">
<path d="M11.334 13.6693H4.66732C2.66732 13.6693 1.33398 12.6693 1.33398 10.3359V5.66927C1.33398 3.33594 2.66732 2.33594 4.66732 2.33594H11.334C13.334 2.33594 14.6673 3.33594 14.6673 5.66927V10.3359C14.6673 12.6693 13.334 13.6693 11.334 13.6693Z" stroke="#1EB624" stroke-width="1.5" stroke-miterlimit="10" stroke-linecap="round" stroke-linejoin="round"/>
<path d="M8 10C9.10457 10 10 9.10457 10 8C10 6.89543 9.10457 6 8 6C6.89543 6 6 6.89543 6 8C6 9.10457 6.89543 10 8 10Z" stroke="#1EB624" stroke-width="1.5" stroke-miterlimit="10" stroke-linecap="round" stroke-linejoin="round"/>
<path d="M1.33398 5.9974H2.00065C4.00065 5.9974 4.66732 5.33073 4.66732 3.33073V2.66406" stroke="#1EB624" stroke-width="1.5" stroke-miterlimit="10" stroke-linecap="round" stroke-linejoin="round"/>
<path d="M14.6673 5.9974H14.0007C12.0007 5.9974 11.334 5.33073 11.334 3.33073V2.66406" stroke="#1EB624" stroke-width="1.5" stroke-miterlimit="10" stroke-linecap="round" stroke-linejoin="round"/>
<path d="M1.33398 10H2.00065C4.00065 10 4.66732 10.6667 4.66732 12.6667V13.3333" stroke="#1EB624" stroke-width="1.5" stroke-miterlimit="10" stroke-linecap="round" stroke-linejoin="round"/>
<path d="M14.6673 10H14.0007C12.0007 10 11.334 10.6667 11.334 12.6667V13.3333" stroke="#1EB624" stroke-width="1.5" stroke-miterlimit="10" stroke-linecap="round" stroke-linejoin="round"/>
</svg>
