<svg width="34" height="34" viewBox="0 0 34 34" fill="none" xmlns="http://www.w3.org/2000/svg">
<g clip-path="url(#clip0_358_90)">
<path d="M17.0001 15.08C16.4909 15.08 16.0025 15.2823 15.6425 15.6424C15.2824 16.0025 15.0801 16.4908 15.0801 17C15.0801 17.5093 15.2824 17.9976 15.6425 18.3577C16.0025 18.7178 16.4909 18.92 17.0001 18.92C17.5093 18.92 17.9977 18.7178 18.3577 18.3577C18.7178 17.9976 18.9201 17.5093 18.9201 17C18.9201 16.4908 18.7178 16.0025 18.3577 15.6424C17.9977 15.2823 17.5093 15.08 17.0001 15.08ZM17.0001 13.8C17.8488 13.8 18.6627 14.1372 19.2628 14.7373C19.863 15.3374 20.2001 16.1513 20.2001 17C20.2001 17.8487 19.863 18.6627 19.2628 19.2628C18.6627 19.8629 17.8488 20.2 17.0001 20.2C16.1514 20.2 15.3375 19.8629 14.7374 19.2628C14.1372 18.6627 13.8001 17.8487 13.8001 17C13.8001 16.1513 14.1372 15.3374 14.7374 14.7373C15.3375 14.1372 16.1514 13.8 17.0001 13.8ZM21.1601 13.64C21.1601 13.8522 21.0758 14.0557 20.9258 14.2057C20.7758 14.3558 20.5723 14.44 20.3601 14.44C20.1479 14.44 19.9444 14.3558 19.7944 14.2057C19.6444 14.0557 19.5601 13.8522 19.5601 13.64C19.5601 13.4279 19.6444 13.2244 19.7944 13.0744C19.9444 12.9243 20.1479 12.84 20.3601 12.84C20.5723 12.84 20.7758 12.9243 20.9258 13.0744C21.0758 13.2244 21.1601 13.4279 21.1601 13.64ZM17.0001 11.88C15.4167 11.88 15.1582 11.8845 14.4215 11.9172C13.9198 11.9408 13.5831 12.008 13.2708 12.1296C12.9931 12.2372 12.7927 12.3658 12.5796 12.5796C12.3793 12.7731 12.2253 13.0094 12.1291 13.2708C12.0075 13.5844 11.9403 13.9204 11.9172 14.4215C11.8839 15.128 11.8801 15.3751 11.8801 17C11.8801 18.5834 11.8846 18.842 11.9172 19.5786C11.9409 20.0797 12.0081 20.417 12.1291 20.7287C12.2379 21.0071 12.3659 21.2074 12.5783 21.4199C12.794 21.6349 12.9943 21.7636 13.2695 21.8698C13.5857 21.992 13.9223 22.0599 14.4215 22.0829C15.1281 22.1162 15.3751 22.12 17.0001 22.12C18.5835 22.12 18.842 22.1156 19.5787 22.0829C20.0791 22.0592 20.4164 21.992 20.7287 21.8711C21.0059 21.7629 21.2075 21.6343 21.4199 21.4218C21.6356 21.2061 21.7643 21.0058 21.8705 20.7306C21.9921 20.4151 22.0599 20.0778 22.083 19.5786C22.1163 18.872 22.1201 18.625 22.1201 17C22.1201 15.4167 22.1156 15.1581 22.083 14.4215C22.0593 13.921 21.9921 13.5831 21.8705 13.2708C21.774 13.0096 21.6203 12.7735 21.4206 12.5796C21.2271 12.3791 20.9908 12.2251 20.7294 12.129C20.4158 12.0074 20.0791 11.9402 19.5787 11.9172C18.8721 11.8839 18.6251 11.88 17.0001 11.88ZM17.0001 10.6C18.739 10.6 18.9559 10.6064 19.6382 10.6384C20.3198 10.6704 20.7838 10.7773 21.1921 10.936C21.6145 11.0986 21.9703 11.3188 22.3262 11.674C22.6516 11.9939 22.9034 12.3809 23.0641 12.808C23.2222 13.2157 23.3297 13.6804 23.3617 14.362C23.3918 15.0442 23.4001 15.2612 23.4001 17C23.4001 18.7389 23.3937 18.9559 23.3617 19.6381C23.3297 20.3197 23.2222 20.7837 23.0641 21.192C22.9039 21.6194 22.652 22.0065 22.3262 22.3261C22.0062 22.6514 21.6192 22.9032 21.1921 23.064C20.7844 23.2221 20.3198 23.3296 19.6382 23.3616C18.9559 23.3917 18.739 23.4 17.0001 23.4C15.2612 23.4 15.0443 23.3936 14.362 23.3616C13.6804 23.3296 13.2164 23.2221 12.8081 23.064C12.3808 22.9037 11.9937 22.6518 11.674 22.3261C11.3485 22.0062 11.0967 21.6192 10.9361 21.192C10.7774 20.7844 10.6705 20.3197 10.6385 19.6381C10.6084 18.9559 10.6001 18.7389 10.6001 17C10.6001 15.2612 10.6065 15.0442 10.6385 14.362C10.6705 13.6797 10.7774 13.2164 10.9361 12.808C11.0962 12.3806 11.3481 11.9935 11.674 11.674C11.9938 11.3483 12.3809 11.0965 12.8081 10.936C13.2164 10.7773 13.6798 10.6704 14.362 10.6384C15.0443 10.6084 15.2612 10.6 17.0001 10.6Z" fill="#4F00CE"/>
</g>
<circle cx="17" cy="17" r="16.5" stroke="#4F00CE"/>
<defs>
<clipPath id="clip0_358_90">
<rect width="15.36" height="15.36" fill="white" transform="translate(9.32007 9.32001)"/>
</clipPath>
</defs>
</svg>
