<svg width="17" height="16" viewBox="0 0 17 16" fill="none" xmlns="http://www.w3.org/2000/svg">
<path d="M6.8335 9.16291C6.8335 9.80958 7.33351 10.3296 7.94684 10.3296H9.20015C9.73349 10.3296 10.1668 9.87625 10.1668 9.30958C10.1668 8.70291 9.90017 8.48292 9.50684 8.34292L7.50016 7.64291C7.10683 7.50291 6.84017 7.28958 6.84017 6.67625C6.84017 6.11625 7.27349 5.65625 7.80682 5.65625H9.06016C9.67349 5.65625 10.1735 6.17625 10.1735 6.82292" stroke="#292D32" stroke-linecap="round" stroke-linejoin="round"/>
<path d="M8.5 5V11" stroke="#292D32" stroke-linecap="round" stroke-linejoin="round"/>
<path d="M15.1668 8.0026C15.1668 11.6826 12.1802 14.6693 8.50016 14.6693C4.82016 14.6693 1.8335 11.6826 1.8335 8.0026C1.8335 4.3226 4.82016 1.33594 8.50016 1.33594" stroke="#292D32" stroke-linecap="round" stroke-linejoin="round"/>
<path d="M15.1667 4.0026V1.33594H12.5" stroke="#292D32" stroke-width="1.5" stroke-linecap="round" stroke-linejoin="round"/>
<path d="M11.8335 4.66927L15.1668 1.33594" stroke="#292D32" stroke-linecap="round" stroke-linejoin="round"/>
</svg>
