<svg width="16" height="16" viewBox="0 0 16 16" fill="none" xmlns="http://www.w3.org/2000/svg">
<path d="M6.66003 15.0317C6.62669 15.0317 6.59336 15.0317 6.56003 15.0184C4.00669 14.4984 1.93336 12.6184 1.16003 10.1251C1.08003 9.85841 1.2267 9.57841 1.4867 9.49841C1.75336 9.41841 2.03336 9.56507 2.11336 9.82507C2.78003 11.9717 4.56003 13.5851 6.76003 14.0317C7.03336 14.0851 7.2067 14.3517 7.1467 14.6251C7.10003 14.8651 6.88669 15.0317 6.66003 15.0317Z" fill="#292D32"/>
<path d="M14.6335 7.8226C14.3801 7.8226 14.1601 7.62927 14.1335 7.37594C13.8135 4.21594 11.1735 1.83594 8.00015 1.83594C4.82015 1.83594 2.18682 4.21594 1.86682 7.36927C1.84015 7.6426 1.60015 7.84927 1.32015 7.81594C1.04682 7.78927 0.846812 7.5426 0.873479 7.26927C1.24681 3.6026 4.31348 0.835938 8.00015 0.835938C11.6935 0.835938 14.7601 3.6026 15.1268 7.26927C15.1535 7.5426 14.9535 7.78927 14.6801 7.81594C14.6668 7.8226 14.6468 7.8226 14.6335 7.8226Z" fill="#292D32"/>
<path d="M9.34006 15.0339C9.10673 15.0339 8.90006 14.8739 8.85339 14.6339C8.80006 14.3605 8.97339 14.1005 9.24006 14.0472C11.4267 13.6005 13.2067 12.0005 13.8801 9.86721C13.9601 9.60055 14.2467 9.45388 14.5067 9.54055C14.7734 9.62055 14.9134 9.90721 14.8334 10.1672C14.0467 12.6472 11.9801 14.5072 9.44006 15.0272C9.40673 15.0272 9.37339 15.0339 9.34006 15.0339Z" fill="#292D32"/>
</svg>
