<svg width="34" height="34" viewBox="0 0 34 34" fill="none" xmlns="http://www.w3.org/2000/svg">
<path d="M23.5039 12.9398C23.0153 13.156 22.4971 13.2979 21.9666 13.361C22.5258 13.0265 22.9443 12.5002 23.1442 11.88C22.6194 12.1923 22.044 12.4112 21.4443 12.5296C21.0415 12.0986 20.5076 11.8128 19.9256 11.7165C19.3436 11.6203 18.7461 11.719 18.2259 11.9974C17.7058 12.2758 17.2923 12.7182 17.0495 13.2559C16.8068 13.7935 16.7485 14.3963 16.8837 14.9706C15.8194 14.9172 14.7783 14.6406 13.8279 14.1588C12.8775 13.677 12.039 13.0007 11.3669 12.1738C11.129 12.5824 11.004 13.0469 11.0047 13.5197C11.0047 14.4477 11.477 15.2675 12.1951 15.7475C11.7701 15.7341 11.3545 15.6194 10.9829 15.4128V15.4461C10.983 16.0641 11.1969 16.6631 11.5882 17.1415C11.9796 17.6198 12.5243 17.9481 13.1301 18.0707C12.7356 18.1776 12.322 18.1934 11.9205 18.1168C12.0913 18.6488 12.4242 19.114 12.8726 19.4474C13.3209 19.7808 13.8623 19.9656 14.421 19.976C13.8658 20.412 13.2301 20.7344 12.5502 20.9246C11.8703 21.1148 11.1596 21.1691 10.4587 21.0845C11.6822 21.8713 13.1065 22.289 14.5611 22.2877C19.4847 22.2877 22.1771 18.209 22.1771 14.6717C22.1771 14.5565 22.1739 14.44 22.1688 14.3261C22.6929 13.9473 23.1452 13.4781 23.5045 12.9405L23.5039 12.9398Z" fill="#4F00CE"/>
<circle cx="17" cy="17" r="16.5" stroke="#4F00CE"/>
</svg>
