<svg width="51" height="50" viewBox="0 0 51 50" fill="none" xmlns="http://www.w3.org/2000/svg">
<circle cx="25.3334" cy="25" r="25" fill="#CE00B9" fill-opacity="0.1"/>
<g clip-path="url(#clip0_434_537)">
<path d="M15.2724 25.0001C15.2724 25.0001 18.9309 17.683 25.3334 17.683C31.7358 17.683 35.3944 25.0001 35.3944 25.0001C35.3944 25.0001 31.7358 32.3171 25.3334 32.3171C18.9309 32.3171 15.2724 25.0001 15.2724 25.0001Z" stroke="#CE00B9" stroke-width="2" stroke-linecap="round" stroke-linejoin="round"/>
<path d="M25.3334 27.7439C26.8488 27.7439 28.0773 26.5154 28.0773 25C28.0773 23.4846 26.8488 22.2561 25.3334 22.2561C23.818 22.2561 22.5895 23.4846 22.5895 25C22.5895 26.5154 23.818 27.7439 25.3334 27.7439Z" stroke="#CE00B9" stroke-width="2" stroke-linecap="round" stroke-linejoin="round"/>
</g>
<defs>
<clipPath id="clip0_434_537">
<rect width="21.9512" height="21.9512" fill="white" transform="translate(14.3578 14.0244)"/>
</clipPath>
</defs>
</svg>
