<svg width="37" height="36" viewBox="0 0 37 36" fill="none" xmlns="http://www.w3.org/2000/svg">
<path d="M26.7482 2.42215L26.7477 2.42228L11.8544 6.15686C11.8541 6.15693 11.8538 6.157 11.8536 6.15706C10.6039 6.46753 9.39389 7.23908 8.43166 8.2013C7.46944 9.16353 6.69789 10.3736 6.38743 11.6232C6.38736 11.6235 6.38729 11.6238 6.38722 11.624L2.65264 26.5173L2.65251 26.5179C2.04899 28.9319 2.45159 31.054 3.80934 32.414C5.16735 33.7743 7.28975 34.1809 9.71145 33.5775L9.71185 33.5774L24.6068 29.8574L24.607 29.8574C25.8503 29.5466 27.0601 28.7704 28.0229 27.8076C28.9858 26.8447 29.7619 25.6349 30.0727 24.3917L33.8076 9.482L33.8077 9.48166C34.4116 7.06629 34.0042 4.94445 32.6448 3.58505C31.2854 2.22566 29.1636 1.81831 26.7482 2.42215Z" fill="#4F00CF" stroke="#4F00CF" stroke-width="1.5" stroke-linecap="round" stroke-linejoin="round"/>
<path d="M18.2305 23.25C21.13 23.25 23.4805 20.8995 23.4805 18C23.4805 15.1005 21.13 12.75 18.2305 12.75C15.331 12.75 12.9805 15.1005 12.9805 18C12.9805 20.8995 15.331 23.25 18.2305 23.25Z" fill="white"/>
</svg>
