<svg width="37" height="36" viewBox="0 0 37 36" fill="none" xmlns="http://www.w3.org/2000/svg">
<path d="M23.9728 30.1281L23.9759 30.1249C24.6724 29.4285 25.6203 29.0396 26.6256 29.0396H27.7656C30.6649 29.0396 33.0156 26.6988 33.0156 23.8347V7.4696C33.0156 4.58885 30.6633 2.26465 27.7656 2.26465H9.76562C6.86798 2.26465 4.51562 4.58885 4.51562 7.4696V23.8347C4.51562 26.7154 6.86798 29.0396 9.76562 29.0396H10.8906C11.8822 29.0396 12.8448 29.4294 13.5403 30.1249L13.5434 30.128L16.1085 32.6631L16.1088 32.6633C17.5708 34.1067 19.9454 34.1067 21.4075 32.6633L21.4078 32.6631L23.9728 30.1281Z" fill="#4F00CF" stroke="#4F00CF" stroke-width="1.5" stroke-miterlimit="10" stroke-linecap="round" stroke-linejoin="round"/>
<path d="M18.7685 14.9997C20.6987 14.9997 22.2635 13.4349 22.2635 11.5047C22.2635 9.57446 20.6987 8.00977 18.7685 8.00977C16.8382 8.00977 15.2734 9.57446 15.2734 11.5047C15.2734 13.4349 16.8382 14.9997 18.7685 14.9997Z" stroke="white" stroke-width="2" stroke-linecap="round" stroke-linejoin="round"/>
<path d="M24.7656 23.4895C24.7656 20.7895 22.0806 18.5996 18.7656 18.5996C15.4506 18.5996 12.7656 20.7895 12.7656 23.4895" stroke="white" stroke-width="2" stroke-linecap="round" stroke-linejoin="round"/>
</svg>
