<svg width="44" height="44" viewBox="0 0 44 44" fill="none" xmlns="http://www.w3.org/2000/svg">
<rect x="0.75" y="0.75" width="42.5" height="42.5" rx="21.25" fill="white"/>
<g clip-path="url(#clip0_2870_39104)">
<path d="M24.5 21.3984H19.5C19.09 21.3984 18.75 21.0584 18.75 20.6484C18.75 20.2384 19.09 19.8984 19.5 19.8984H24.5C24.91 19.8984 25.25 20.2384 25.25 20.6484C25.25 21.0584 24.91 21.3984 24.5 21.3984Z" fill="#5C85FF"/>
<path d="M22 23.9609C21.59 23.9609 21.25 23.6209 21.25 23.2109V18.2109C21.25 17.8009 21.59 17.4609 22 17.4609C22.41 17.4609 22.75 17.8009 22.75 18.2109V23.2109C22.75 23.6209 22.41 23.9609 22 23.9609Z" fill="#5C85FF"/>
<path d="M29.0684 32.75C28.5584 32.75 27.9984 32.6 27.4584 32.29L22.5784 29.58C22.2884 29.42 21.7184 29.42 21.4284 29.58L16.5484 32.29C15.5584 32.84 14.5484 32.9 13.7784 32.44C13.0084 31.99 12.5684 31.08 12.5684 29.95V15.86C12.5684 13.32 14.6384 11.25 17.1784 11.25H26.8284C29.3684 11.25 31.4384 13.32 31.4384 15.86V29.95C31.4384 31.08 30.9984 31.99 30.2284 32.44C29.8784 32.65 29.4784 32.75 29.0684 32.75ZM21.9984 27.96C22.4684 27.96 22.9284 28.06 23.2984 28.27L28.1784 30.98C28.6884 31.27 29.1584 31.33 29.4584 31.15C29.7584 30.97 29.9284 30.54 29.9284 29.95V15.86C29.9284 14.15 28.5284 12.75 26.8184 12.75H17.1784C15.4684 12.75 14.0684 14.15 14.0684 15.86V29.95C14.0684 30.54 14.2384 30.98 14.5384 31.15C14.8384 31.32 15.3084 31.27 15.8184 30.98L20.6984 28.27C21.0684 28.06 21.5284 27.96 21.9984 27.96Z" fill="#5C85FF"/>
</g>
<rect x="0.75" y="0.75" width="42.5" height="42.5" rx="21.25" stroke="#5C85FF" stroke-width="1.5"/>
<defs>
<clipPath id="clip0_2870_39104">
<rect width="24" height="24" fill="white" transform="translate(10 10)"/>
</clipPath>
</defs>
</svg>
