<svg width="25" height="25" viewBox="0 0 25 25" fill="none" xmlns="http://www.w3.org/2000/svg">
<path d="M20.0189 5.58715L19.283 4.8512C19.075 4.64321 18.691 4.67522 18.451 4.96317L15.8908 7.50713C14.7388 7.01119 13.4749 6.77119 12.1468 6.77119C8.1947 6.78713 4.77092 9.0911 3.1228 12.4033C3.02677 12.6113 3.02677 12.8672 3.1228 13.0432C3.89073 14.6112 5.04281 15.9073 6.48281 16.8832L4.38682 19.0112C4.14682 19.2512 4.11481 19.6352 4.27485 19.8432L5.0108 20.5791C5.21879 20.7871 5.60277 20.7551 5.84277 20.4671L19.8907 6.41926C20.1947 6.17939 20.2267 5.79543 20.0187 5.58742L20.0189 5.58715ZM12.9948 10.419C12.7228 10.355 12.4349 10.2751 12.1628 10.2751C10.8028 10.2751 9.71489 11.3631 9.71489 12.723C9.71489 12.995 9.77891 13.2829 9.85887 13.555L8.78675 14.611C8.4668 14.051 8.29081 13.4269 8.29081 12.723C8.29081 10.595 10.0028 8.88303 12.1308 8.88303C12.8349 8.88303 13.4588 9.05901 14.0188 9.37897L12.9948 10.419Z" fill="#666666" fill-opacity="0.8"/>
<path d="M21.1694 12.4032C20.6095 11.2832 19.8734 10.2753 18.9615 9.45923L15.9854 12.4032V12.7232C15.9854 14.8512 14.2734 16.5632 12.1454 16.5632H11.8255L9.9375 18.4512C10.6416 18.5951 11.3775 18.6912 12.0975 18.6912C16.0496 18.6912 19.4734 16.3872 21.1215 13.0591C21.2655 12.835 21.2655 12.6111 21.1695 12.4031L21.1694 12.4032Z" fill="#666666" fill-opacity="0.8"/>
</svg>
