<svg width="45" height="44" viewBox="0 0 45 44" fill="none" xmlns="http://www.w3.org/2000/svg">
<g filter="url(#filter0_b_1029_7376)">
<rect x="0.620117" width="44" height="44" rx="12" fill="black" fill-opacity="0.4"/>
<g clip-path="url(#clip0_1029_7376)">
<path d="M17.845 23.5928L15.7233 21.4711C14.8793 20.6271 14.4051 19.4823 14.4051 18.2887C14.4051 17.0951 14.8793 15.9503 15.7233 15.1063C16.5674 14.2622 17.7121 13.7881 18.9058 13.7881C20.0994 13.7881 21.2442 14.2622 22.0882 15.1063L24.2098 17.2279" stroke="white" stroke-width="1.00189" stroke-linecap="round" stroke-linejoin="round"/>
<path d="M27.3911 20.4094L29.5127 22.531C30.3568 23.3751 30.8309 24.5198 30.8309 25.7135C30.8309 26.9071 30.3568 28.0519 29.5127 28.8959C28.6687 29.74 27.5239 30.2141 26.3303 30.2141C25.1367 30.2141 23.9919 29.74 23.1479 28.8959L21.0262 26.7743" stroke="white" stroke-width="1.00189" stroke-linecap="round" stroke-linejoin="round"/>
<path d="M19.5474 18.9277L25.7604 25.1408" stroke="white" stroke-width="1.00189" stroke-linecap="round" stroke-linejoin="round"/>
</g>
<rect x="1.62012" y="1" width="42" height="42" rx="11" stroke="white" stroke-width="2"/>
</g>
<defs>
<filter id="filter0_b_1029_7376" x="-15.3799" y="-16" width="76" height="76" filterUnits="userSpaceOnUse" color-interpolation-filters="sRGB">
<feFlood flood-opacity="0" result="BackgroundImageFix"/>
<feGaussianBlur in="BackgroundImage" stdDeviation="8"/>
<feComposite in2="SourceAlpha" operator="in" result="effect1_backgroundBlur_1029_7376"/>
<feBlend mode="normal" in="SourceGraphic" in2="effect1_backgroundBlur_1029_7376" result="shape"/>
</filter>
<clipPath id="clip0_1029_7376">
<rect width="24" height="24" fill="white" transform="translate(22.6201 5.02954) rotate(45)"/>
</clipPath>
</defs>
</svg>
