<svg width="151" height="25" viewBox="0 0 151 25" fill="none" xmlns="http://www.w3.org/2000/svg">
<path d="M11.3237 18L17.958 21.2196L12.1647 24.031C11.7759 24.2197 11.3237 23.9365 11.3237 23.5044V18Z" fill="#4F00CF"/>
<path d="M43.9105 0.320922C44.0319 0.17496 43.8945 -0.0408397 43.711 0.00736982L0.581764 11.3184C-0.118894 11.5022 -0.213217 12.4583 0.438088 12.7753L6.78669 15.8644L35.6168 4.82861L11.3308 18.0755L23.4567 23.9758C23.7797 24.133 24.1684 24.0493 24.3982 23.7731L43.9105 0.320922Z" fill="#4F00CF"/>
<path d="M58.259 15.1247H55.5365L54.877 18.2192H52.7802L55.5534 6.38237H58.1744L61.1675 18.2192H58.9523L58.259 15.1247ZM55.9762 13.1463H57.8193L56.8555 9.49378L55.9762 13.1463ZM62.6614 6.36546H65.8404C67.1143 6.36546 68.0838 6.71493 68.7489 7.41387C69.4253 8.11281 69.7635 9.04285 69.7635 10.204V14.8373C69.7635 17.0919 68.5685 18.2192 66.1786 18.2192H62.6614V6.36546ZM67.9034 10.0349C67.9034 9.41487 67.7456 8.96394 67.4299 8.68211C67.1255 8.389 66.6521 8.24245 66.0095 8.24245H64.5214V16.5113H65.908C66.5168 16.5113 67.0015 16.4212 67.3623 16.2408C67.723 16.0491 67.9034 15.6377 67.9034 15.0064V10.0349ZM71.8463 11.2355H77.2574V13.011H71.8463V11.2355ZM79.34 6.38237H83.1954C84.3791 6.38237 85.2528 6.76566 85.8164 7.53224C86.3914 8.28755 86.6788 9.24013 86.6788 10.39C86.6788 13.4112 85.5684 14.9218 83.3476 14.9218H81.2001V18.2192H79.34V6.38237ZM82.7896 13.1463C83.4321 13.1463 83.9 13.0054 84.1931 12.7236C84.4975 12.4417 84.6778 12.1261 84.7342 11.7766C84.7906 11.4159 84.8187 10.9649 84.8187 10.4238C84.8187 9.82634 84.7342 9.36977 84.5651 9.05412C84.4073 8.7272 84.1762 8.51301 83.8718 8.41155C83.5787 8.29882 83.1954 8.24245 82.7219 8.24245H81.2001V13.1463H82.7896ZM92.9825 14.9218H90.5137V18.2192H88.6536V6.38237H92.6612C93.4052 6.38237 94.0253 6.56838 94.5213 6.9404C95.0173 7.30114 95.3837 7.78589 95.6204 8.39464C95.8684 9.00339 95.9924 9.67415 95.9924 10.4069C95.9924 10.9593 95.9699 11.4384 95.9248 11.8442C95.8797 12.2501 95.7613 12.6728 95.5697 13.1125C95.3893 13.5521 95.0962 13.9467 94.6904 14.2962L96.0093 18.2192H94.1154L92.9825 14.9218ZM92.2215 13.1463C92.7739 13.1463 93.1798 13.0054 93.4391 12.7236C93.7096 12.4304 93.8731 12.0979 93.9294 11.7259C93.9971 11.3539 94.0309 10.9142 94.0309 10.4069C94.0309 9.80943 93.9463 9.3585 93.7772 9.05412C93.6081 8.73847 93.3714 8.52992 93.067 8.42846C92.7627 8.31573 92.3681 8.25936 91.8833 8.25936H90.5137V13.1463H92.2215ZM104.436 15.0909C104.436 16.2295 104.086 17.0694 103.387 17.6105C102.7 18.1403 101.871 18.4052 100.902 18.4052C100.293 18.4052 99.718 18.2982 99.1769 18.084C98.6358 17.8585 98.1905 17.4978 97.841 17.0017C97.5028 16.5057 97.3337 15.8688 97.3337 15.0909V9.64597C97.3337 8.48483 97.6494 7.60552 98.2807 7.00804C98.9232 6.41056 99.8026 6.11182 100.919 6.11182C102.035 6.11182 102.897 6.42747 103.506 7.05877C104.126 7.69007 104.436 8.5581 104.436 9.66288V15.0909ZM102.576 10.2716C102.576 9.79815 102.536 9.40923 102.457 9.10485C102.378 8.80048 102.215 8.56374 101.967 8.39464C101.719 8.21427 101.358 8.12408 100.885 8.12408C100.411 8.12408 100.051 8.20863 99.8026 8.37773C99.5545 8.54683 99.3911 8.78357 99.3122 9.08794C99.2333 9.38105 99.1938 9.76997 99.1938 10.2547V14.7696C99.1938 15.3108 99.3291 15.7391 99.5996 16.0548C99.8815 16.3592 100.31 16.5113 100.885 16.5113C101.415 16.5113 101.826 16.3479 102.119 16.021C102.424 15.694 102.576 15.2657 102.576 14.7358V10.2716ZM114.072 11.9626L112.093 18.2192H110.673L108.728 11.9795V18.2192H106.868V6.38237H108.728L111.383 14.2116L114.072 6.38237H115.932V18.2192H114.072V11.9626ZM125.458 15.0909C125.458 16.2295 125.108 17.0694 124.409 17.6105C123.721 18.1403 122.893 18.4052 121.923 18.4052C121.315 18.4052 120.74 18.2982 120.199 18.084C119.657 17.8585 119.212 17.4978 118.863 17.0017C118.524 16.5057 118.355 15.8688 118.355 15.0909V9.64597C118.355 8.48483 118.671 7.60552 119.302 7.00804C119.945 6.41056 120.824 6.11182 121.94 6.11182C123.056 6.11182 123.919 6.42747 124.527 7.05877C125.147 7.69007 125.458 8.5581 125.458 9.66288V15.0909ZM123.597 10.2716C123.597 9.79815 123.558 9.40923 123.479 9.10485C123.4 8.80048 123.237 8.56374 122.989 8.39464C122.741 8.21427 122.38 8.12408 121.906 8.12408C121.433 8.12408 121.072 8.20863 120.824 8.37773C120.576 8.54683 120.413 8.78357 120.334 9.08794C120.255 9.38105 120.215 9.76997 120.215 10.2547V14.7696C120.215 15.3108 120.351 15.7391 120.621 16.0548C120.903 16.3592 121.332 16.5113 121.906 16.5113C122.436 16.5113 122.848 16.3479 123.141 16.021C123.445 15.694 123.597 15.2657 123.597 14.7358V10.2716ZM128.626 8.25936H126.191V6.38237H132.989V8.25936H130.486V18.2192H128.626V8.25936ZM134.313 6.38237H139.961V8.24245H136.173V11.2355H138.49L137.966 13.011H136.173V16.5283H139.927V18.2192H134.313V6.38237ZM146.503 14.9218H144.034V18.2192H142.174V6.38237H146.181C146.925 6.38237 147.545 6.56838 148.041 6.9404C148.537 7.30114 148.904 7.78589 149.141 8.39464C149.389 9.00339 149.513 9.67415 149.513 10.4069C149.513 10.9593 149.49 11.4384 149.445 11.8442C149.4 12.2501 149.282 12.6728 149.09 13.1125C148.91 13.5521 148.616 13.9467 148.211 14.2962L149.53 18.2192H147.636L146.503 14.9218ZM145.742 13.1463C146.294 13.1463 146.7 13.0054 146.959 12.7236C147.23 12.4304 147.393 12.0979 147.45 11.7259C147.517 11.3539 147.551 10.9142 147.551 10.4069C147.551 9.80943 147.467 9.3585 147.297 9.05412C147.128 8.73847 146.892 8.52992 146.587 8.42846C146.283 8.31573 145.888 8.25936 145.404 8.25936H144.034V13.1463H145.742Z" fill="#4F00CF"/>
</svg>
