<svg width="310" height="311" viewBox="0 0 310 311" fill="none" xmlns="http://www.w3.org/2000/svg">
<rect x="10.6953" y="30.1367" width="255.104" height="184.215" rx="15.6798" fill="white" stroke="#1D2B47" stroke-width="0.4929"/>
<rect x="86.8477" y="73.6484" width="167.05" height="119.667" rx="10.7601" fill="white" stroke="#1D2B47" stroke-width="0.4929"/>
<rect x="149.703" y="143.52" width="90.4169" height="39.4059" rx="13.9593" fill="#D3B8FF"/>
<path d="M10.6953 55.8352V42.3647C10.6953 35.6114 16.17 30.1367 22.9233 30.1367H253.571C260.325 30.1367 265.799 35.6114 265.799 42.3647V55.8352H10.6953Z" fill="#D3B8FF" stroke="#1D2B47" stroke-width="0.4929"/>
<circle cx="23.2537" cy="42.6912" r="2.62483" fill="#1D2B47" stroke="#1D2B47" stroke-width="0.4929"/>
<circle cx="32.4803" cy="42.6912" r="2.62483" fill="#1D2B47" stroke="#1D2B47" stroke-width="0.4929"/>
<circle cx="41.7069" cy="42.6912" r="2.62483" fill="#1D2B47" stroke="#1D2B47" stroke-width="0.4929"/>
<path d="M253.906 199.244L232.109 177.312L101.195 193.295L253.906 199.244Z" fill="#FCB332" stroke="#1D2B47" stroke-width="0.4929"/>
<path d="M101.195 193.297L226.324 247.796C231.085 249.874 236.65 248.14 239.388 243.725L262.206 206.947L101.195 193.297Z" fill="#FCB332" stroke="#1D2B47" stroke-width="0.4929"/>
<path d="M248.362 213.727L253.906 199.245L101.195 193.297L248.362 213.727Z" fill="#1D2B47" stroke="#1D2B47" stroke-width="0.4929"/>
<path d="M262.197 206.947L299.303 242.786L101.195 193.297L262.197 206.947Z" fill="#FCB332" stroke="#1D2B47" stroke-width="0.4929"/>
<rect x="41.1562" y="91.3008" width="74.9444" height="55.8445" rx="6.7859" fill="#D3B8FF" stroke="#1D2B47" stroke-width="0.4929"/>
<path d="M41.1562 114.055L76.2026 125.557C77.7813 126.076 79.4847 126.076 81.0634 125.557L116.113 114.055" stroke="#1D2B47" stroke-width="0.4929"/>
<path d="M92.2305 121.891L116.1 139.639L92.2305 121.891Z" fill="white"/>
<path d="M92.2305 121.891L116.1 139.639" stroke="#1D2B47" stroke-width="0.4929"/>
<path d="M65.0922 121.891L41.2227 139.639L65.0922 121.891Z" fill="white"/>
<path d="M65.0922 121.891L41.2227 139.639" stroke="#1D2B47" stroke-width="0.4929"/>
<circle cx="76.8144" cy="115.596" r="3.50585" fill="white" stroke="#1D2B47" stroke-width="0.4929"/>
<rect x="149.703" y="91.3008" width="90.4169" height="39.4059" rx="13.9593" fill="#D3B8FF"/>
<path d="M99.418 163.101H118.032H99.418Z" fill="white"/>
<path d="M99.418 163.101H118.032" stroke="#1D2B47" stroke-width="0.4929"/>
<path d="M99.418 170.355H118.032H99.418Z" fill="white"/>
<path d="M99.418 170.355H118.032" stroke="#1D2B47" stroke-width="0.4929"/>
<path d="M99.418 177.605H118.032H99.418Z" fill="white"/>
<path d="M99.418 177.605H118.032" stroke="#1D2B47" stroke-width="0.4929"/>
<rect x="21.3281" y="179.297" width="43.7563" height="14.0204" rx="6.2403" fill="white" stroke="#1D2B47" stroke-width="0.4929"/>
<path d="M21.3281 199.363H62.1862H21.3281Z" fill="white"/>
<path d="M21.3281 199.363H62.1862" stroke="#1D2B47" stroke-width="0.4929"/>
<path d="M21.3281 205.41H32.2072H21.3281Z" fill="white"/>
<path d="M21.3281 205.41H32.2072" stroke="#1D2B47" stroke-width="0.4929"/>
<circle cx="32.4505" cy="69.5443" r="6.52866" fill="white" stroke="#1D2B47" stroke-width="0.4929"/>
<path d="M151.875 224.266C151.875 224.266 228.995 268.988 251.476 263.428C273.957 257.869 243.015 235.4 232.136 255.694C221.257 275.988 252.685 290.506 275.409 273.098" stroke="#1D2B47" stroke-width="0.4929"/>
<path d="M134.711 220.883C134.711 220.883 156.226 234.66 170.489 242.881" stroke="#1D2B47" stroke-width="0.4929"/>
</svg>
