<svg width="36" height="36" viewBox="0 0 36 36" fill="none" xmlns="http://www.w3.org/2000/svg">
<path d="M26.6996 3.15073L11.8047 6.88573C9.62965 7.42573 7.42465 9.63073 6.88465 11.8057L3.14965 26.7007C2.02465 31.2007 4.78465 33.9757 9.29965 32.8507L24.1946 29.1307C26.3546 28.5907 28.5747 26.3707 29.1147 24.2107L32.8497 9.30073C33.9747 4.80073 31.1996 2.02573 26.6996 3.15073Z" stroke="#292D32" stroke-width="1.5" stroke-linecap="round" stroke-linejoin="round"/>
<path d="M18 23.25C20.8995 23.25 23.25 20.8995 23.25 18C23.25 15.1005 20.8995 12.75 18 12.75C15.1005 12.75 12.75 15.1005 12.75 18C12.75 20.8995 15.1005 23.25 18 23.25Z" stroke="#292D32" stroke-width="1.5" stroke-linecap="round" stroke-linejoin="round"/>
</svg>
