<svg width="16" height="16" viewBox="0 0 16 16" fill="none" xmlns="http://www.w3.org/2000/svg">
<path d="M6.33398 9.16682C6.33398 9.81349 6.83399 10.3335 7.44733 10.3335H8.70064C9.23398 10.3335 9.66732 9.88015 9.66732 9.31349C9.66732 8.70682 9.40066 8.48682 9.00732 8.34682L7.00065 7.64682C6.60732 7.50682 6.34066 7.29349 6.34066 6.68016C6.34066 6.12016 6.77398 5.66016 7.30731 5.66016H8.56065C9.17398 5.66016 9.67399 6.18016 9.67399 6.82682" stroke="#292D32" stroke-linecap="round" stroke-linejoin="round"/>
<path d="M8 5V11" stroke="#292D32" stroke-linecap="round" stroke-linejoin="round"/>
<path d="M14.6673 7.99967C14.6673 11.6797 11.6807 14.6663 8.00065 14.6663C4.32065 14.6663 1.33398 11.6797 1.33398 7.99967C1.33398 4.31967 4.32065 1.33301 8.00065 1.33301" stroke="#292D32" stroke-linecap="round" stroke-linejoin="round"/>
<path d="M14.6667 3.99967V1.33301H12" stroke="#292D32" stroke-width="1.5" stroke-linecap="round" stroke-linejoin="round"/>
<path d="M11.334 4.66634L14.6673 1.33301" stroke="#292D32" stroke-linecap="round" stroke-linejoin="round"/>
</svg>
