<svg width="184" height="19" viewBox="0 0 184 19" fill="none" xmlns="http://www.w3.org/2000/svg">
<path d="M22.1992 2.92159C22.1992 1.50029 23.3519 0.347656 24.7732 0.347656H28.2607C30.3143 0.347656 33.9756 0.347659 36.3504 3.76149C37.6123 5.49299 38.0327 7.44738 38.0327 9.45178C38.0327 14.4488 35.5588 18.6551 28.6074 18.6551H24.774C23.3527 18.6551 22.2001 17.5024 22.2001 16.0811V2.92159H22.1992ZM26.875 14.5479H28.8786C32.367 14.5479 33.356 12.1232 33.356 9.52636C33.356 8.48729 33.1331 7.17617 32.4653 6.1371C31.9212 5.32094 30.9813 4.45477 28.9031 4.45477H26.8742V14.5479H26.875Z" fill="#4F00CE"/>
<path d="M48.4431 2.58682C48.4431 1.35028 49.4457 0.347656 50.6823 0.347656H54.43C57.8193 0.347656 59.0812 0.86719 60.0703 1.68336C61.5052 2.87074 62.2222 4.67682 62.2222 6.53205C62.2222 8.38729 61.4552 10.3417 60.2924 11.3316C59.0304 12.3952 57.7938 12.9148 54.9487 12.9148H52.9197V16.4151C52.9197 17.6516 51.9171 18.6542 50.6806 18.6542C49.444 18.6542 48.4414 17.6516 48.4414 16.4151V2.58682H48.4431ZM52.9206 8.80851H54.8258C55.7166 8.80851 57.7447 8.8085 57.7447 6.60663C57.7447 4.45476 55.6666 4.45477 54.6521 4.45477H52.9206V8.80851Z" fill="#4F00CE"/>
<path d="M64.1758 2.12576C64.1758 1.14348 64.9716 0.347656 65.9539 0.347656H69.9644C73.1807 0.347656 74.4173 0.743453 75.6047 1.65878C77.1141 2.84616 77.8557 4.77598 77.8557 6.65579C77.8557 8.7585 76.7675 11.8511 73.3036 12.4198L76.7175 16.6998C77.3463 17.488 76.7853 18.6542 75.7767 18.6542H73.552C73.1638 18.6542 72.7994 18.4669 72.5731 18.1508L68.7033 12.7419H68.6541V16.8761C68.6541 17.8584 67.8583 18.6542 66.876 18.6542H65.9547C64.9725 18.6542 64.1766 17.8584 64.1766 16.8761V2.12576H64.1758ZM68.6541 9.55094H70.3119C73.0579 9.55094 73.3791 7.81945 73.3791 6.9287C73.3791 5.27094 72.1671 4.45477 70.361 4.45477H68.6541V9.55094Z" fill="#4F00CE"/>
<path d="M89.1912 0C94.8315 0 98.864 4.40375 98.864 9.49992C98.864 14.5961 94.8561 18.9998 89.1666 18.9998C83.4026 18.9998 79.543 14.4232 79.543 9.72282C79.543 8.51085 79.7159 7.14973 80.26 5.81403C81.2253 3.43926 84.0705 0 89.1912 0ZM89.2658 14.8927C92.5805 14.8927 94.1891 11.8747 94.1891 9.52449C94.1891 7.14973 92.5813 4.10711 89.2166 4.10711C85.9757 4.10711 84.2196 6.87767 84.2196 9.45076C84.2188 12.2705 86.124 14.8927 89.2658 14.8927Z" fill="#4F00CE"/>
<path d="M104.833 0.348505C106.354 0.348505 107.696 1.3452 108.135 2.80124L111.031 12.3961H111.08L113.933 2.81311C114.369 1.35028 115.713 0.347656 117.239 0.347656H117.254C119.159 0.347656 120.703 1.89185 120.703 3.79709V16.6074C120.703 17.738 119.787 18.6542 118.656 18.6542H118.467C117.328 18.6542 116.409 17.7245 116.42 16.5854L116.547 4.94888L116.498 4.89972L113.012 17.1668C112.762 18.0465 111.958 18.6542 111.043 18.6542C110.128 18.6542 109.324 18.0474 109.074 17.1668L105.588 4.89972L105.539 4.94888L105.665 16.5854C105.678 17.7245 104.758 18.6542 103.619 18.6542H103.43C102.299 18.6542 101.383 17.738 101.383 16.6074V3.79794C101.384 1.8927 102.928 0.348505 104.833 0.348505Z" fill="#4F00CE"/>
<path d="M132.874 0C138.514 0 142.547 4.40375 142.547 9.49992C142.547 14.5961 138.539 18.9998 132.849 18.9998C127.085 18.9998 123.227 14.4232 123.227 9.72282C123.227 8.51085 123.399 7.14973 123.944 5.81403C124.908 3.43926 127.753 0 132.874 0ZM132.949 14.8927C136.263 14.8927 137.872 11.8747 137.872 9.52449C137.872 7.14973 136.264 4.10711 132.899 4.10711C129.658 4.10711 127.902 6.87767 127.902 9.45076C127.902 12.2705 129.806 14.8927 132.949 14.8927Z" fill="#4F00CE"/>
<path d="M146.901 4.45477H145.343C144.209 4.45477 143.289 3.5352 143.289 2.40121C143.289 1.26722 144.209 0.347656 145.343 0.347656H153.11C154.244 0.347656 155.164 1.26722 155.164 2.40121C155.164 3.5352 154.244 4.45477 153.11 4.45477H151.576V16.6015C151.576 17.7355 150.657 18.6551 149.523 18.6551H148.954C147.82 18.6551 146.9 17.7355 146.9 16.6015V4.45477H146.901Z" fill="#4F00CE"/>
<path d="M159.172 0.347656H165.161C166.295 0.347656 167.215 1.26722 167.215 2.40121C167.215 3.5352 166.295 4.45477 165.161 4.45477H161.524V7.29991H164.987C166.121 7.29991 167.041 8.21948 167.041 9.35347C167.041 10.4875 166.121 11.407 164.987 11.407H161.524V14.5488H165.161C166.295 14.5488 167.215 15.4684 167.215 16.6023C167.215 17.7363 166.295 18.6559 165.161 18.6559H159.172C157.999 18.6559 157.047 17.7041 157.047 16.5303V2.47325C157.047 1.29943 157.999 0.347656 159.172 0.347656Z" fill="#4F00CE"/>
<path d="M170.109 1.47063C170.109 0.850239 170.612 0.347656 171.232 0.347656H175.898C179.114 0.347656 180.351 0.743453 181.538 1.65878C183.048 2.84616 183.789 4.77598 183.789 6.65579C183.789 8.7585 182.701 11.8511 179.237 12.4198L182.755 16.8312C183.342 17.5668 182.818 18.6542 181.877 18.6542H179.443C179.08 18.6542 178.741 18.4796 178.53 18.1847L174.636 12.7419H174.587V17.5312C174.587 18.1516 174.084 18.6542 173.464 18.6542H171.232C170.612 18.6542 170.109 18.1516 170.109 17.5312V1.47063ZM174.587 9.55094H176.245C178.991 9.55094 179.312 7.81945 179.312 6.9287C179.312 5.27094 178.1 4.45477 176.294 4.45477H174.587V9.55094Z" fill="#4F00CE"/>
<path d="M12.7373 1.09823C16.4758 4.21543 20.0447 11.8872 19.3607 16.1579C19.0768 17.9318 17.4131 19.1319 15.6376 18.8615C12.0051 18.3089 12.1763 15.6638 9.79387 15.4646C6.34274 15.5706 7.00635 18.9759 2.51616 18.9988C1.71271 19.0031 0.944004 18.592 0.547362 17.8928C-0.591712 15.8842 1.9712 13.1585 7.36825 10.5388L8.61835 12.2788C8.85481 12.6085 9.34468 12.611 9.58537 12.2847L13.3594 7.16736C13.651 6.77242 13.3687 6.21475 12.878 6.21475H5.60963C5.12824 6.21475 4.84432 6.75462 5.11722 7.15126L6.12747 8.62087L10.5651 7.49282L6.86058 9.03616C6.63683 9.12938 6.47326 9.32601 6.42325 9.56247L6.27833 10.2371L0.788057 12.3805C2.12715 6.97074 4.03662 2.62717 7.23603 0.690575C8.97177 -0.360357 11.1779 -0.20187 12.7373 1.09823Z" fill="#4F00CE"/>
</svg>
