<svg width="134" height="134" viewBox="0 0 134 134" fill="none" xmlns="http://www.w3.org/2000/svg">
<g clip-path="url(#clip0_2028_122576)">
<path d="M170 14.5129V190.487C170 201.81 164.96 211 158.75 211H-6.75019C-12.9599 211 -18 201.81 -18 190.487V14.5129C-18 3.19018 -12.9599 -6 -6.75019 -6H158.756C160.978 -6 163.055 -4.82203 164.793 -2.7809C167.923 0.844398 170 7.24199 170 14.5129Z" fill="url(#paint0_linear_2028_122576)"/>
<path d="M170.001 14.5129V148.131C152.318 160.358 132.386 156.235 127.547 140.708C123.999 129.324 131.233 120.449 129.223 99.4485C128.265 89.4967 125.753 82.2258 122.172 75.361C117.377 66.1302 110.655 57.6509 103.243 44.4292C98.4753 35.9296 86.7911 15.0917 80.4199 -6H158.751C160.973 -6 163.05 -4.82203 164.794 -2.77074C167.929 0.844402 170.001 7.23183 170.001 14.5129Z" fill="url(#paint1_linear_2028_122576)"/>
<path d="M170 60.8306V190.488C170 201.811 164.966 210.991 158.756 210.991H-6.7499C-12.9596 210.991 -17.9941 201.811 -17.9941 190.488V90.9297C-14.7529 85.0805 -10.9602 79.607 -6.54384 74.9967C6.92253 60.9119 19.9378 61.8563 45.4169 64.3036C76.1144 67.2485 78.2753 76.8348 99.8894 78.0533C108.783 78.5611 116.023 77.3628 122.172 75.3623C142.895 68.5281 151.104 52.2701 167.773 59.7136C168.513 60.0487 169.254 60.4143 170 60.8306Z" fill="url(#paint2_linear_2028_122576)"/>
<path d="M39.9143 -6C36.8512 48.5216 12.3299 91.4566 -18 94.2695V14.5129C-18 3.19018 -12.9599 -6 -6.75019 -6H39.9143Z" fill="url(#paint3_linear_2028_122576)"/>
<path opacity="0.27" d="M170 188.079V190.476C170 201.799 164.96 210.989 158.75 210.989H-6.75019C-12.9599 210.989 -18 201.799 -18 190.476V109.785C-14.8812 106.759 -11.278 104.454 -7.24028 103.642C2.116 101.783 9.45623 108.892 18.0774 117.493C34.6124 133.994 37.2132 147.044 46.5639 157.889C64.5525 178.757 79.3332 158.813 109.864 160.194C132.864 161.25 157.291 174.045 170 188.079Z" fill="url(#paint4_linear_2028_122576)"/>
<path opacity="0.53" d="M170 14.5129V190.487C170 201.81 164.96 211 158.75 211H-6.75019C-12.9599 211 -18 201.81 -18 190.487V14.5129C-18 3.19018 -12.9599 -6 -6.75019 -6H158.756C160.978 -6 163.055 -4.82203 164.793 -2.7809C167.923 0.844398 170 7.24199 170 14.5129Z" fill="url(#paint5_linear_2028_122576)"/>
<path d="M39.5601 65.384C39.5601 66.0347 39.4108 66.632 39.1121 67.176C38.8135 67.7093 38.3548 68.1413 37.7361 68.472C37.1175 68.8027 36.3495 68.968 35.4321 68.968H33.7361V73H31.0001V61.768H35.4321C36.3281 61.768 37.0855 61.9227 37.7041 62.232C38.3228 62.5413 38.7868 62.968 39.0961 63.512C39.4055 64.056 39.5601 64.68 39.5601 65.384ZM35.2241 66.792C35.7468 66.792 36.1361 66.6693 36.3921 66.424C36.6481 66.1787 36.7761 65.832 36.7761 65.384C36.7761 64.936 36.6481 64.5893 36.3921 64.344C36.1361 64.0987 35.7468 63.976 35.2241 63.976H33.7361V66.792H35.2241ZM43.2405 65.56C43.5605 65.0693 43.9605 64.6853 44.4405 64.408C44.9205 64.12 45.4538 63.976 46.0405 63.976V66.872H45.2885C44.6058 66.872 44.0938 67.0213 43.7525 67.32C43.4112 67.608 43.2405 68.12 43.2405 68.856V73H40.5045V64.072H43.2405V65.56ZM50.9323 73.128C50.0576 73.128 49.2683 72.9413 48.5643 72.568C47.8709 72.1947 47.3216 71.6613 46.9163 70.968C46.5216 70.2747 46.3243 69.464 46.3243 68.536C46.3243 67.6187 46.5269 66.8133 46.9323 66.12C47.3376 65.416 47.8923 64.8773 48.5963 64.504C49.3003 64.1307 50.0896 63.944 50.9643 63.944C51.8389 63.944 52.6283 64.1307 53.3323 64.504C54.0363 64.8773 54.5909 65.416 54.9963 66.12C55.4016 66.8133 55.6043 67.6187 55.6043 68.536C55.6043 69.4533 55.3963 70.264 54.9803 70.968C54.5749 71.6613 54.0149 72.1947 53.3003 72.568C52.5963 72.9413 51.8069 73.128 50.9323 73.128ZM50.9323 70.76C51.4549 70.76 51.8976 70.568 52.2603 70.184C52.6336 69.8 52.8203 69.2507 52.8203 68.536C52.8203 67.8213 52.6389 67.272 52.2763 66.888C51.9243 66.504 51.4869 66.312 50.9643 66.312C50.4309 66.312 49.9883 66.504 49.6363 66.888C49.2843 67.2613 49.1083 67.8107 49.1083 68.536C49.1083 69.2507 49.2789 69.8 49.6203 70.184C49.9723 70.568 50.4096 70.76 50.9323 70.76ZM67.9678 63.976C69.0771 63.976 69.9571 64.312 70.6078 64.984C71.2691 65.656 71.5998 66.5893 71.5998 67.784V73H68.8798V68.152C68.8798 67.576 68.7251 67.1333 68.4158 66.824C68.1171 66.504 67.7011 66.344 67.1678 66.344C66.6344 66.344 66.2131 66.504 65.9038 66.824C65.6051 67.1333 65.4558 67.576 65.4558 68.152V73H62.7358V68.152C62.7358 67.576 62.5811 67.1333 62.2717 66.824C61.9731 66.504 61.5571 66.344 61.0237 66.344C60.4904 66.344 60.0691 66.504 59.7597 66.824C59.4611 67.1333 59.3117 67.576 59.3117 68.152V73H56.5757V64.072H59.3117V65.192C59.5891 64.8187 59.9517 64.5253 60.3998 64.312C60.8478 64.088 61.3544 63.976 61.9198 63.976C62.5918 63.976 63.1891 64.12 63.7118 64.408C64.2451 64.696 64.6611 65.1067 64.9598 65.64C65.2691 65.1493 65.6904 64.7493 66.2238 64.44C66.7571 64.1307 67.3384 63.976 67.9678 63.976ZM77.0973 73.128C76.2226 73.128 75.4333 72.9413 74.7293 72.568C74.0359 72.1947 73.4866 71.6613 73.0813 70.968C72.6866 70.2747 72.4893 69.464 72.4893 68.536C72.4893 67.6187 72.6919 66.8133 73.0973 66.12C73.5026 65.416 74.0573 64.8773 74.7613 64.504C75.4653 64.1307 76.2546 63.944 77.1293 63.944C78.0039 63.944 78.7933 64.1307 79.4973 64.504C80.2013 64.8773 80.7559 65.416 81.1613 66.12C81.5666 66.8133 81.7693 67.6187 81.7693 68.536C81.7693 69.4533 81.5613 70.264 81.1453 70.968C80.7399 71.6613 80.1799 72.1947 79.4653 72.568C78.7613 72.9413 77.9719 73.128 77.0973 73.128ZM77.0973 70.76C77.6199 70.76 78.0626 70.568 78.4253 70.184C78.7986 69.8 78.9853 69.2507 78.9853 68.536C78.9853 67.8213 78.8039 67.272 78.4413 66.888C78.0893 66.504 77.6519 66.312 77.1293 66.312C76.5959 66.312 76.1533 66.504 75.8013 66.888C75.4493 67.2613 75.2733 67.8107 75.2733 68.536C75.2733 69.2507 75.4439 69.8 75.7853 70.184C76.1373 70.568 76.5746 70.76 77.0973 70.76ZM87.7167 70.68V73H86.3247C85.3327 73 84.5594 72.76 84.0047 72.28C83.4501 71.7893 83.1727 70.9947 83.1727 69.896V66.344H82.0847V64.072H83.1727V61.896H85.9087V64.072H87.7007V66.344H85.9087V69.928C85.9087 70.1947 85.9727 70.3867 86.1007 70.504C86.2287 70.6213 86.4421 70.68 86.7407 70.68H87.7167ZM97.1767 68.392C97.1767 68.648 97.1607 68.9147 97.1287 69.192H90.9367C90.9794 69.7467 91.1554 70.1733 91.4647 70.472C91.7847 70.76 92.1741 70.904 92.6327 70.904C93.3154 70.904 93.7901 70.616 94.0567 70.04H96.9688C96.8194 70.6267 96.5474 71.1547 96.1528 71.624C95.7687 72.0933 95.2834 72.4613 94.6967 72.728C94.1101 72.9947 93.4541 73.128 92.7287 73.128C91.8541 73.128 91.0754 72.9413 90.3927 72.568C89.7101 72.1947 89.1767 71.6613 88.7927 70.968C88.4087 70.2747 88.2167 69.464 88.2167 68.536C88.2167 67.608 88.4034 66.7973 88.7767 66.104C89.1607 65.4107 89.6941 64.8773 90.3767 64.504C91.0594 64.1307 91.8434 63.944 92.7287 63.944C93.5927 63.944 94.3607 64.1253 95.0327 64.488C95.7047 64.8507 96.2274 65.368 96.6007 66.04C96.9847 66.712 97.1767 67.496 97.1767 68.392ZM94.3767 67.672C94.3767 67.2027 94.2167 66.8293 93.8967 66.552C93.5767 66.2747 93.1767 66.136 92.6967 66.136C92.2381 66.136 91.8487 66.2693 91.5287 66.536C91.2194 66.8027 91.0274 67.1813 90.9527 67.672H94.3767ZM100.876 65.56C101.196 65.0693 101.596 64.6853 102.076 64.408C102.556 64.12 103.089 63.976 103.676 63.976V66.872H102.924C102.241 66.872 101.729 67.0213 101.388 67.32C101.047 67.608 100.876 68.12 100.876 68.856V73H98.1401V64.072H100.876V65.56Z" fill="white"/>
</g>
<defs>
<linearGradient id="paint0_linear_2028_122576" x1="2.54612" y1="236.436" x2="228.427" y2="112.557" gradientUnits="userSpaceOnUse">
<stop stop-color="#1B1464"/>
<stop offset="1" stop-color="#83EFFF"/>
</linearGradient>
<linearGradient id="paint1_linear_2028_122576" x1="107.039" y1="104.195" x2="196.834" y2="54.9495" gradientUnits="userSpaceOnUse">
<stop stop-color="#FFDC83"/>
<stop offset="1" stop-color="#1B1464"/>
</linearGradient>
<linearGradient id="paint2_linear_2028_122576" x1="14.1896" y1="257.664" x2="216.96" y2="146.459" gradientUnits="userSpaceOnUse">
<stop stop-color="#641419"/>
<stop offset="1" stop-color="#83EFFF"/>
</linearGradient>
<linearGradient id="paint3_linear_2028_122576" x1="-24.5109" y1="82.3939" x2="62.2847" y2="34.7929" gradientUnits="userSpaceOnUse">
<stop stop-color="#1B1464"/>
<stop offset="1" stop-color="#83FFF0"/>
</linearGradient>
<linearGradient id="paint4_linear_2028_122576" x1="16.7739" y1="262.378" x2="165.896" y2="180.596" gradientUnits="userSpaceOnUse">
<stop stop-color="#1B1464"/>
<stop offset="1" stop-color="#83EFFF"/>
</linearGradient>
<linearGradient id="paint5_linear_2028_122576" x1="2.54612" y1="236.436" x2="228.427" y2="112.557" gradientUnits="userSpaceOnUse">
<stop stop-color="#0702FD"/>
<stop offset="1" stop-color="#83F8E3"/>
</linearGradient>
<clipPath id="clip0_2028_122576">
<rect width="134" height="134" rx="6" fill="white"/>
</clipPath>
</defs>
</svg>
