<svg width="21" height="20" viewBox="0 0 21 20" fill="none" xmlns="http://www.w3.org/2000/svg">
<path d="M18 4.98307C15.225 4.70807 12.4333 4.56641 9.65 4.56641C8 4.56641 6.35 4.64974 4.7 4.81641L3 4.98307" stroke="#EB1E1E" stroke-width="1.5" stroke-linecap="round" stroke-linejoin="round"/>
<path d="M7.58203 4.14199L7.76536 3.05033C7.8987 2.25866 7.9987 1.66699 9.40703 1.66699H11.5904C12.9987 1.66699 13.107 2.29199 13.232 3.05866L13.4154 4.14199" stroke="#EB1E1E" stroke-width="1.5" stroke-linecap="round" stroke-linejoin="round"/>
<path d="M16.2096 7.61621L15.668 16.0079C15.5763 17.3162 15.5013 18.3329 13.1763 18.3329H7.8263C5.5013 18.3329 5.4263 17.3162 5.33464 16.0079L4.79297 7.61621" stroke="#EB1E1E" stroke-width="1.5" stroke-linecap="round" stroke-linejoin="round"/>
<path d="M9.10938 13.75H11.8844" stroke="#EB1E1E" stroke-width="1.5" stroke-linecap="round" stroke-linejoin="round"/>
<path d="M8.41797 10.417H12.5846" stroke="#EB1E1E" stroke-width="1.5" stroke-linecap="round" stroke-linejoin="round"/>
</svg>
