<svg width="32" height="33" viewBox="0 0 32 33" fill="none" xmlns="http://www.w3.org/2000/svg">
<rect y="0.5" width="32" height="32" rx="16" fill="#5C85FF"/>
<path d="M17.6666 16.1001H14.3333C14.06 16.1001 13.8333 15.8734 13.8333 15.6001C13.8333 15.3268 14.06 15.1001 14.3333 15.1001H17.6666C17.94 15.1001 18.1666 15.3268 18.1666 15.6001C18.1666 15.8734 17.94 16.1001 17.6666 16.1001Z" fill="white"/>
<path d="M16 17.8065C15.7267 17.8065 15.5 17.5798 15.5 17.3065V13.9731C15.5 13.6998 15.7267 13.4731 16 13.4731C16.2733 13.4731 16.5 13.6998 16.5 13.9731V17.3065C16.5 17.5798 16.2733 17.8065 16 17.8065Z" fill="white"/>
<path d="M20.7133 23.6668C20.3733 23.6668 20 23.5668 19.64 23.3602L16.3867 21.5535C16.1933 21.4468 15.8133 21.4468 15.62 21.5535L12.3667 23.3602C11.7067 23.7268 11.0333 23.7668 10.52 23.4602C10.0067 23.1602 9.71332 22.5535 9.71332 21.8002V12.4068C9.71332 10.7135 11.0933 9.3335 12.7867 9.3335H19.22C20.9133 9.3335 22.2933 10.7135 22.2933 12.4068V21.8002C22.2933 22.5535 22 23.1602 21.4867 23.4602C21.2533 23.6002 20.9867 23.6668 20.7133 23.6668ZM16 20.4735C16.3133 20.4735 16.62 20.5402 16.8667 20.6802L20.12 22.4868C20.46 22.6802 20.7733 22.7202 20.9733 22.6002C21.1733 22.4802 21.2867 22.1935 21.2867 21.8002V12.4068C21.2867 11.2668 20.3533 10.3335 19.2133 10.3335H12.7867C11.6467 10.3335 10.7133 11.2668 10.7133 12.4068V21.8002C10.7133 22.1935 10.8267 22.4868 11.0267 22.6002C11.2267 22.7135 11.54 22.6802 11.88 22.4868L15.1333 20.6802C15.38 20.5402 15.6867 20.4735 16 20.4735Z" fill="white"/>
</svg>
