<svg width="17" height="17" viewBox="0 0 17 17" fill="none" xmlns="http://www.w3.org/2000/svg">
<path d="M12.5 13.0732H11.9933C11.46 13.0732 10.9533 13.2798 10.58 13.6532L9.43998 14.7798C8.91998 15.2932 8.07334 15.2932 7.55334 14.7798L6.41333 13.6532C6.04 13.2798 5.52667 13.0732 5 13.0732H4.5C3.39333 13.0732 2.5 12.1865 2.5 11.0932V3.81982C2.5 2.72649 3.39333 1.83984 4.5 1.83984H12.5C13.6067 1.83984 14.5 2.72649 14.5 3.81982V11.0932C14.5 12.1798 13.6067 13.0732 12.5 13.0732Z" stroke="#292D32" stroke-miterlimit="10" stroke-linecap="round" stroke-linejoin="round"/>
<path d="M8.49963 7.16671C9.35752 7.16671 10.053 6.47124 10.053 5.61336C10.053 4.75548 9.35752 4.06006 8.49963 4.06006C7.64175 4.06006 6.94629 4.75548 6.94629 5.61336C6.94629 6.47124 7.64175 7.16671 8.49963 7.16671Z" stroke="#292D32" stroke-linecap="round" stroke-linejoin="round"/>
<path d="M11.1663 10.9399C11.1663 9.7399 9.97301 8.7666 8.49967 8.7666C7.02634 8.7666 5.83301 9.7399 5.83301 10.9399" stroke="#292D32" stroke-linecap="round" stroke-linejoin="round"/>
</svg>
